<?xml version="1.0" encoding="UTF-8"?>
<svg width="17px" height="10px" viewBox="0 0 17 10" version="1.1" xmlns="http://www.w3.org/2000/svg" xmlns:xlink="http://www.w3.org/1999/xlink">
    <!-- Generator: Sketch 52.5 (67469) - http://www.bohemiancoding.com/sketch -->
    <title>Signal</title>
    <desc>Created with Sketch.</desc>
    <g id="Symbols" stroke="none" stroke-width="1" fill="none" fill-rule="evenodd">
        <g id="Bars-/-Status-Bar-/-iPhone-8-/-On-Light" transform="translate(-6.000000, -5.000000)" fill="#000000">
            <g id="Left-Detail" transform="translate(6.000000, 5.000000)">
                <path d="M14.25,0 L15.75,0 C16.1642136,-7.6089797e-17 16.5,0.335786438 16.5,0.75 L16.5,9.25 C16.5,9.66421356 16.1642136,10 15.75,10 L14.25,10 C13.8357864,10 13.5,9.66421356 13.5,9.25 L13.5,0.75 C13.5,0.335786438 13.8357864,7.6089797e-17 14.25,0 Z M9.75,2 L11.25,2 C11.6642136,2 12,2.33578644 12,2.75 L12,9.25 C12,9.66421356 11.6642136,10 11.25,10 L9.75,10 C9.33578644,10 9,9.66421356 9,9.25 L9,2.75 C9,2.33578644 9.33578644,2 9.75,2 Z M5.25,4 L6.75,4 C7.16421356,4 7.5,4.33578644 7.5,4.75 L7.5,9.25 C7.5,9.66421356 7.16421356,10 6.75,10 L5.25,10 C4.83578644,10 4.5,9.66421356 4.5,9.25 L4.5,4.75 C4.5,4.33578644 4.83578644,4 5.25,4 Z M0.75,5.5 L2.25,5.5 C2.66421356,5.5 3,5.83578644 3,6.25 L3,9.25 C3,9.66421356 2.66421356,10 2.25,10 L0.75,10 C0.335786438,10 5.07265313e-17,9.66421356 0,9.25 L0,6.25 C-5.07265313e-17,5.83578644 0.335786438,5.5 0.75,5.5 Z" id="Signal"></path>
            </g>
        </g>
    </g>
</svg>