<?xml version="1.0" encoding="UTF-8"?>
<svg width="27px" height="12px" viewBox="0 0 27 12" version="1.1" xmlns="http://www.w3.org/2000/svg" xmlns:xlink="http://www.w3.org/1999/xlink">
    <!-- Generator: Sketch 52.5 (67469) - http://www.bohemiancoding.com/sketch -->
    <title>Battery Icon</title>
    <desc>Created with Sketch.</desc>
    <g id="Symbols" stroke="none" stroke-width="1" fill="none" fill-rule="evenodd">
        <g id="Bars-/-Status-Bar-/-iPhone-8-/-On-Light" transform="translate(-343.000000, -4.000000)" fill="#000000">
            <g id="Right-Detail" transform="translate(296.000000, 3.000000)">
                <g id="Battery" transform="translate(11.000000, 0.000000)">
                    <g id="Battery-Icon" transform="translate(36.000000, 1.000000)">
                        <path d="M3.2048565,1.5 C2.33980043,1.5 2.04887034,1.55618119 1.75054173,1.71572908 C1.5174028,1.84041314 1.34041314,2.0174028 1.21572908,2.25054173 C1.05618119,2.54887034 1,2.83980043 1,3.7048565 L1,8.7951435 C1,9.66019957 1.05618119,9.95112966 1.21572908,10.2494583 C1.34041314,10.4825972 1.5174028,10.6595869 1.75054173,10.7842709 C2.04887034,10.9438188 2.33980043,11 3.2048565,11 L22.0738202,11 C22.5853352,11 23,10.5853352 23,10.0738202 L23,3.7048565 C23,2.83980043 22.9438188,2.54887034 22.7842709,2.25054173 C22.6595869,2.0174028 22.4825972,1.84041314 22.2494583,1.71572908 C21.9511297,1.55618119 21.6601996,1.5 20.7951435,1.5 L3.2048565,1.5 Z M3.2048565,0.5 L20.7951435,0.5 C21.9095419,0.5 22.3136497,0.616032014 22.7210571,0.83391588 C23.1284645,1.05179975 23.4482003,1.37153546 23.6660841,1.77894287 C23.883968,2.18635028 24,2.59045808 24,3.7048565 L24,10.0738202 C24,11.1376199 23.1376199,12 22.0738202,12 L3.2048565,12 C2.09045808,12 1.68635028,11.883968 1.27894287,11.6660841 C0.871535463,11.4482003 0.551799746,11.1284645 0.33391588,10.7210571 C0.116032014,10.3136497 5.01544207e-17,9.90954192 -8.63200256e-17,8.7951435 L8.63200256e-17,3.7048565 C-5.01544207e-17,2.59045808 0.116032014,2.18635028 0.33391588,1.77894287 C0.551799746,1.37153546 0.871535463,1.05179975 1.27894287,0.83391588 C1.68635028,0.616032014 2.09045808,0.5 3.2048565,0.5 Z" id="Battery-Outline" fill-rule="nonzero" opacity="0.600000024"></path>
                        <path d="M25,4.12802928 C25.8738943,4.43690659 26.5,5.27033588 26.5,6.25 C26.5,7.22966412 25.8738943,8.06309341 25,8.37197072 L25,4.12802928 Z" id="Battery-Connector" opacity="0.600000024"></path>
                        <path d="M3.2819426,2.5 L20.7180574,2.5 C21.1638168,2.5 21.3254599,2.54641281 21.4884229,2.63356635 C21.6513858,2.7207199 21.7792801,2.84861419 21.8664336,3.01157715 C21.9535872,3.17454011 22,3.33618323 22,3.7819426 L22,8.7180574 C22,9.16381677 21.9535872,9.32545989 21.8664336,9.48842285 C21.7792801,9.65138581 21.6513858,9.7792801 21.4884229,9.86643365 C21.3254599,9.95358719 21.1638168,10 20.7180574,10 L3.2819426,10 C2.83618323,10 2.67454011,9.95358719 2.51157715,9.86643365 C2.34861419,9.7792801 2.2207199,9.65138581 2.13356635,9.48842285 C2.04641281,9.32545989 2,9.16381677 2,8.7180574 L2,3.7819426 C2,3.33618323 2.04641281,3.17454011 2.13356635,3.01157715 C2.2207199,2.84861419 2.34861419,2.7207199 2.51157715,2.63356635 C2.67454011,2.54641281 2.83618323,2.5 3.2819426,2.5 Z" id="Battery-Fill"></path>
                    </g>
                </g>
            </g>
        </g>
    </g>
</svg>