<?xml version="1.0" encoding="UTF-8"?>
<svg width="15px" height="10px" viewBox="0 0 15 10" version="1.1" xmlns="http://www.w3.org/2000/svg" xmlns:xlink="http://www.w3.org/1999/xlink">
    <!-- Generator: Sketch 52.5 (67469) - http://www.bohemiancoding.com/sketch -->
    <title>Wifi</title>
    <desc>Created with Sketch.</desc>
    <g id="Symbols" stroke="none" stroke-width="1" fill="none" fill-rule="evenodd" stroke-linecap="round" stroke-linejoin="round">
        <g id="Bars-/-Status-Bar-/-iPhone-8-/-On-Light" transform="translate(-26.000000, -5.000000)" fill="#000000" stroke="#000000">
            <g id="Left-Detail" transform="translate(6.000000, 5.000000)">
                <path d="M20.9908519,2.99085192 C22.7169011,1.44209802 24.9984311,0.5 27.5,0.5 C30.0015689,0.5 32.2830989,1.44209802 34.0091481,2.99085192 L33.1237701,3.87622995 C31.6251889,2.5529753 29.6563669,1.75 27.5,1.75 C25.3436331,1.75 23.3748111,2.5529753 21.8762299,3.87622995 L20.9908519,2.99085192 Z M23.3831418,5.38314182 C24.4931668,4.44532529 25.9280645,3.88000011 27.4950008,3.88000011 C29.0644872,3.88000011 30.5015048,4.4471668 31.6122766,5.38772337 L30.7300995,6.26990048 C29.8478592,5.55102715 28.7217659,5.11999989 27.4950008,5.11999989 C26.2707894,5.11999989 25.1468312,5.54923452 24.2654149,6.26541489 L23.3831418,5.38314182 Z M25.8767575,7.87675746 C26.3386883,7.56019965 26.8977163,7.375 27.5,7.375 C28.1022837,7.375 28.6613117,7.56019965 29.1232425,7.87675746 L27.5,9.5 L25.8767575,7.87675746 Z" id="Wifi"></path>
            </g>
        </g>
    </g>
</svg>