<svg onclick="test()" class="boydwork" xmlns="http://www.w3.org/2000/svg" viewBox="0 0 44.6 44.6">
  <defs>
    <style type="text/css">
	.lips {fill: #fff;}
  .face {000;}
	.eyes {
  fill: #fff;
  -webkit-animation-name: blink;
  -webkit-animation-duration: 5s;
  -webkit-animation-iteration-count: infinite; 
  -webkit-transform-origin:50% 50%;

  animation-name: blink;
  animation-duration: 5s;
  animation-iteration-count: infinite;
}

@-webkit-keyframes blink { 
  0% { -webkit-transform: scaleX(1) scaleY(1); } 
  1% { -webkit-transform: scaleX(1.1) scaleY(0.1); } 
  2% { -webkit-transform: scaleX(1) scaleY(1); }
  24% { -webkit-transform: scaleX(1) scaleY(1); }
  25% { -webkit-transform: scaleX(1.1) scaleY(0.1); } 
  26% { -webkit-transform: scaleX(1) scaleY(1); }
  50% { -webkit-transform: scaleX(1) scaleY(1); }
  74% { -webkit-transform: scaleX(1) scaleY(1); }
  75% { -webkit-transform: scaleX(1.1) scaleY(0.1); } 
  76% { -webkit-transform: scaleX(1) scaleY(1); }
  100% { -webkit-transform: scaleX(1) scaleY(1);} 
}
@keyframes blink { 
  0% { -webkit-transform: scaleX(1) scaleY(1); } 
  1% { -webkit-transform: scaleX(1.1) scaleY(0.1); } 
  2% { -webkit-transform: scaleX(1) scaleY(1); }
  24% { -webkit-transform: scaleX(1) scaleY(1); }
  25% { -webkit-transform: scaleX(1.1) scaleY(0.1); } 
  26% { -webkit-transform: scaleX(1) scaleY(1); }
  50% { -webkit-transform: scaleX(1) scaleY(1); }
  74% { -webkit-transform: scaleX(1) scaleY(1); }
  75% { -webkit-transform: scaleX(1.1) scaleY(0.1); } 
  76% { -webkit-transform: scaleX(1) scaleY(1); }
  100% { -webkit-transform: scaleX(1) scaleY(1);} 
}

.boydwork {
  animation: boydwork 5s ease none;
}
@keyframes boydwork {
  0%, 10%  {opacity: 0}
  45%, 100% {opacity: 1}
}
</style>
<script>
   function test(){
     alert("yyyy")
   }
 </script> 
  </defs>
  <g class="face">
    <path d="M22.3,0C10,0,0,10,0,22.3s10,22.3,22.3,22.3s22.3-10,22.3-22.3S34.6,0,22.3,0L22.3,0z"/>
  </g>
  <g class="eyes">
    <g>
      <path d="M14.5,18.1c-0.7,0-1.3,0.6-1.3,1.3s0.6,1.3,1.3,1.3s1.3-0.6,1.3-1.3S15.3,18.1,14.5,18.1L14.5,18.1z"/>
    </g>
    <g>
      <path d="M30.1,18.1c-0.7,0-1.3,0.6-1.3,1.3s0.6,1.3,1.3,1.3s1.3-0.6,1.3-1.3S30.8,18.1,30.1,18.1L30.1,18.1z"/>
    </g>
  </g>
  <g class="lips">
    <path d="M28.5,25.6c0.5,0,0.8,0.4,0.8,0.8c0,0.5-0.4,0.8-0.8,0.8H16.1c-0.5,0-0.8-0.4-0.8-0.8c0-0.5,0.4-0.8,0.8-0.8
		H28.5 M28.5,23.6H16.1c-1.6,0-2.8,1.3-2.8,2.8s1.3,2.8,2.8,2.8h12.5c1.6,0,2.8-1.3,2.8-2.8S30.1,23.6,28.5,23.6L28.5,23.6z"/>
  </g>
</svg>
