<svg version="1.1" class="boydwork" xmlns="http://www.w3.org/2000/svg" xmlns:xlink="http://www.w3.org/1999/xlink" x="0px" y="0px"
	 viewBox="0 0 100 100" enable-background="new 0 0 100 100" xml:space="preserve">
<style>
	.svg_wrap {width: 100%; height: 100vh; }
  .boydwork .eyes {
  fill: #FFF;
  -webkit-animation-name: blink;
  -webkit-animation-duration: 5s;
  -webkit-animation-iteration-count: infinite; 
  -webkit-transform-origin:50% 50%;

  animation-name: blink;
  animation-duration: 5s;
  animation-iteration-count: infinite;
}

@-webkit-keyframes blink { 
  0% { -webkit-transform: scaleX(1) scaleY(1); } 
  1% { -webkit-transform: scaleX(1.1) scaleY(0.1); } 
  2% { -webkit-transform: scaleX(1) scaleY(1); }
  24% { -webkit-transform: scaleX(1) scaleY(1); }
  25% { -webkit-transform: scaleX(1.1) scaleY(0.1); } 
  26% { -webkit-transform: scaleX(1) scaleY(1); }
  50% { -webkit-transform: scaleX(1) scaleY(1); }
  74% { -webkit-transform: scaleX(1) scaleY(1); }
  75% { -webkit-transform: scaleX(1.1) scaleY(0.1); } 
  76% { -webkit-transform: scaleX(1) scaleY(1); }
  100% { -webkit-transform: scaleX(1) scaleY(1);} 
}
</style>
<g clsss="face">
	<path d="M50,27.7c-12.3,0-22.3,10-22.3,22.3s10,22.3,22.3,22.3s22.3-10,22.3-22.3S62.3,27.7,50,27.7L50,27.7z"/>
</g>
<g class="eyes">
	<g>
		<path fill="#FFFFFF" d="M42.2,45.8c-0.7,0-1.3,0.6-1.3,1.3s0.6,1.3,1.3,1.3s1.3-0.6,1.3-1.3S43,45.8,42.2,45.8L42.2,45.8z"/>
	</g>
	<g>
		<path fill="#FFFFFF" d="M57.8,45.8c-0.7,0-1.3,0.6-1.3,1.3s0.6,1.3,1.3,1.3s1.3-0.6,1.3-1.3S58.5,45.8,57.8,45.8L57.8,45.8z"/>
	</g>
</g>
<g class="lips">
	<path fill="#FFFFFF" d="M56.2,53.3c0.5,0,0.8,0.4,0.8,0.8c0,0.5-0.4,0.8-0.8,0.8H43.8c-0.5,0-0.8-0.4-0.8-0.8
		c0-0.5,0.4-0.8,0.8-0.8H56.2 M56.2,51.3H43.8c-1.6,0-2.8,1.3-2.8,2.8s1.3,2.8,2.8,2.8h12.5c1.6,0,2.8-1.3,2.8-2.8
		S57.8,51.3,56.2,51.3L56.2,51.3z"/>
</g>
</svg>
