<svg id="bubble" xmlns="http://www.w3.org/2000/svg" viewBox="0 0 38.5 37.5">
	<defs>
		<style>
			#line {fill: #fff;}
			@keyframes bubble {
			0%, 10%  {opacity: 0}
      20%, 100% {opacity: 1}
      }
      #bubble {
      animation: bubble 13s ease none;
      }
      
      #line {
      -webkit-animation-name: blink;
      -webkit-animation-duration: 5s;
      -webkit-animation-iteration-count: infinite; 
      -webkit-transform-origin:50% 50%;

      animation-name: blink;
      animation-duration: 5s;
      animation-iteration-count: infinite;
      }
      
      @-webkit-keyframes blink { 
      0% { -webkit-transform: scaleX(1) scaleY(1); } 
      1% { -webkit-transform: scaleX(1.1) scaleY(0.1); } 
      2% { -webkit-transform: scaleX(1) scaleY(1); }
      24% { -webkit-transform: scaleX(1) scaleY(1); }
      25% { -webkit-transform: scaleX(1.1) scaleY(0.1); } 
      26% { -webkit-transform: scaleX(1) scaleY(1); }
      50% { -webkit-transform: scaleX(1) scaleY(1); }
      74% { -webkit-transform: scaleX(1) scaleY(1); }
      75% { -webkit-transform: scaleX(1.1) scaleY(0.1); } 
      76% { -webkit-transform: scaleX(1) scaleY(1); }
      100% { -webkit-transform: scaleX(1) scaleY(1);} 
      }
      @keyframes blink { 
      0% { -webkit-transform: scaleX(1) scaleY(1); } 
      1% { -webkit-transform: scaleX(1.1) scaleY(0.1); } 
      2% { -webkit-transform: scaleX(1) scaleY(1); }
      24% { -webkit-transform: scaleX(1) scaleY(1); }
      25% { -webkit-transform: scaleX(1.1) scaleY(0.1); } 
      26% { -webkit-transform: scaleX(1) scaleY(1); }
      50% { -webkit-transform: scaleX(1) scaleY(1); }
      74% { -webkit-transform: scaleX(1) scaleY(1); }
      75% { -webkit-transform: scaleX(1.1) scaleY(0.1); } 
      76% { -webkit-transform: scaleX(1) scaleY(1); }
      100% { -webkit-transform: scaleX(1) scaleY(1);} 
      }
		</style>
	</defs>
	<title>bubble</title>
	<g id="line">
		<path d="M1.2,37.5H.8A1.3,1.3,0,0,1,0,36.3V6.4A6.4,6.4,0,0,1,6.4,0H32.1a6.4,6.4,0,0,1,6.4,6.4V22.6A6.4,6.4,0,0,1,32.1,29H8.9L2.2,37.1A1.2,1.2,0,0,1,1.2,37.5Zm5.1-35A3.9,3.9,0,0,0,2.5,6.4V32.8l4.9-5.9a1.3,1.3,0,0,1,1-.4H32.1A3.9,3.9,0,0,0,36,22.6V6.4a3.9,3.9,0,0,0-3.9-3.9Z"/>
	</g>
</svg>