<?xml version="1.0" encoding="utf-8"?>
<!-- Generator: Adobe Illustrator 23.1.1, SVG Export Plug-In . SVG Version: 6.00 Build 0)  -->
<svg version="1.1" xmlns="http://www.w3.org/2000/svg" xmlns:xlink="http://www.w3.org/1999/xlink" x="0px" y="0px"
	 viewBox="0 0 300 300" style="enable-background:new 0 0 300 300;" xml:space="preserve">
<style type="text/css">
	.st0{fill:none;stroke:#231F20;stroke-width:2.5;stroke-miterlimit:10;}
	.st1{fill:#231F20;}
</style>
<g id="Layer_1">
	<path class="st0" d="M78.8,132.1c0,0-1.7,3.1,0.5,5.1l8.6,7.3c1.1,0.9,2.1,2,3,3.1c2.8,3.4,5.1,6.4,4.8,9">
		<animate attributeName="d" keySplines="0.42 0 0.58 1; 0.42 0 0.58 1; 0.42 0 0.58 1" begin="0.12s" dur="1.44s" repeatCount="indefinite" values="
                          M78.8,132.1c0,0-1.7,3.1,0.5,5.6l8.6,7.3c1.1,0.9,2.1,1,3,3.3c2.8,1.4,5.1,6.4,4.8,9
                          ;
                          M78.8,132.1c0,0-1.7,3.1,0.5,5.1l8.6,7.3c1.1,0.9,2.1,2,3,3.1c2.8,3.4,5.1,6.4,4.8,9
                          ;
                          M78.8,132.1c0,0-1.7,3.1,0.5,5.6l8.6,7.3c1.1,0.9,2.1,1,3,3.3c2.8,1.4,5.1,6.4,4.8,9
                          " />
	</path>
	<path class="st0" d="M79.9,129.4c1.5-0.2,4.7-0.9,5-3.1c0.3-2.1,5.1-3.9,9.5-3.8">
		<animate attributeName="d" keySplines="0.42 0 0.58 1; 0.42 0 0.58 1; 0.42 0 0.58 1" begin="0.12s" dur="1.44s" repeatCount="indefinite" values="
                          M79.9,129.4c1.5-0.2,4.7-0.9,5-3.1c0.3-2.1,5.1-3.9,9.9-3.8
                          ;
                          M79.9,129.4c1.5-0.2,4.7-0.9,5-3.1c0.3-2.1,5.1-3.9,9.5-3.8
                          ;
                          M79.9,129.4c1.5-0.2,4.7-0.9,5-3.1c0.3-2.1,5.1-3.9,9.9-3.8
                          " />
	</path>
	<path id="eyes" class="st1" d="M90.6,128.8c0.4,0.2,0.7,0.6,0.9,1.1c0.1,0.4,0.1,0.9-0.1,1.4c-0.5,0.9-1.6,1.2-2.4,0.7
		c-0.9-0.5-1.2-1.6-0.7-2.4c0.3-0.5,0.7-0.8,1.3-0.9C89.8,128.5,90.2,128.6,90.6,128.8z">
		<animate attributeName="d" keySplines="0.42 0 0.58 1; 0.42 0 0.58 1; 0.42 0 0.58 1" begin="0.12s" dur="1.6s" repeatCount="indefinite" values="
                          M89.2,131.2c0.9,0.5,1.7-0.1,1.9-0.3c0.3-0.3,0.4-0.1,0.1,0.3c-0.5,0.9-1.6,1.2-2.4,0.7
		c-0.9-0.5-1.2-1.6-0.7-2.4c0.3-0.5,0.6-0.6,0.5-0.2C88.6,129.5,88.2,130.6,89.2,131.2z
                          ;
                          M90.6,128.8c0.4,0.2,0.7,0.6,0.9,1.1c0.1,0.4,0.1,0.9-0.1,1.4c-0.5,0.9-1.6,1.2-2.4,0.7
		c-0.9-0.5-1.2-1.6-0.7-2.4c0.3-0.5,0.7-0.8,1.3-0.9C89.8,128.5,90.2,128.6,90.6,128.8z
                          ;
                          M90.6,128.8c0.4,0.2,0.7,0.6,0.9,1.1c0.1,0.4,0.1,0.9-0.1,1.4c-0.5,0.9-1.6,1.2-2.4,0.7
		c-0.9-0.5-1.2-1.6-0.7-2.4c0.3-0.5,0.7-0.8,1.3-0.9C89.8,128.5,90.2,128.6,90.6,128.8z
                          ;
                          M90.6,128.8c0.4,0.2,0.7,0.6,0.9,1.1c0.1,0.4,0.1,0.9-0.1,1.4c-0.5,0.9-1.6,1.2-2.4,0.7
		c-0.9-0.5-1.2-1.6-0.7-2.4c0.3-0.5,0.7-0.8,1.3-0.9C89.8,128.5,90.2,128.6,90.6,128.8z
                          ;
                          M90.6,128.8c0.4,0.2,0.7,0.6,0.9,1.1c0.1,0.4,0.1,0.9-0.1,1.4c-0.5,0.9-1.6,1.2-2.4,0.7
		c-0.9-0.5-1.2-1.6-0.7-2.4c0.3-0.5,0.7-0.8,1.3-0.9C89.8,128.5,90.2,128.6,90.6,128.8z
                          ;
                          M90.6,128.8c0.4,0.2,0.7,0.6,0.9,1.1c0.1,0.4,0.1,0.9-0.1,1.4c-0.5,0.9-1.6,1.2-2.4,0.7
		c-0.9-0.5-1.2-1.6-0.7-2.4c0.3-0.5,0.7-0.8,1.3-0.9C89.8,128.5,90.2,128.6,90.6,128.8z
                          ;
                          M90.6,128.8c0.4,0.2,0.7,0.6,0.9,1.1c0.1,0.4,0.1,0.9-0.1,1.4c-0.5,0.9-1.6,1.2-2.4,0.7
		c-0.9-0.5-1.2-1.6-0.7-2.4c0.3-0.5,0.7-0.8,1.3-0.9C89.8,128.5,90.2,128.6,90.6,128.8z
                          ;
                          M90.6,128.8c0.4,0.2,0.7,0.6,0.9,1.1c0.1,0.4,0.1,0.9-0.1,1.4c-0.5,0.9-1.6,1.2-2.4,0.7
		c-0.9-0.5-1.2-1.6-0.7-2.4c0.3-0.5,0.7-0.8,1.3-0.9C89.8,128.5,90.2,128.6,90.6,128.8z
                          ;
                          M90.6,128.8c0.4,0.2,0.7,0.6,0.9,1.1c0.1,0.4,0.1,0.9-0.1,1.4c-0.5,0.9-1.6,1.2-2.4,0.7
		c-0.9-0.5-1.2-1.6-0.7-2.4c0.3-0.5,0.7-0.8,1.3-0.9C89.8,128.5,90.2,128.6,90.6,128.8z
                          ;
                          M89.2,131.2c0.9,0.5,1.7-0.1,1.9-0.3c0.3-0.3,0.4-0.1,0.1,0.3c-0.5,0.9-1.6,1.2-2.4,0.7
		c-0.9-0.5-1.2-1.6-0.7-2.4c0.3-0.5,0.6-0.6,0.5-0.2C88.6,129.5,88.2,130.6,89.2,131.2z
                          " />
	</path>
	<path class="st0" d="M97.5,159.6c0,0,3.5,13.4,11,16.4">
		<animate attributeName="d" keySplines="0.42 0 0.58 1; 0.42 0 0.58 1; 0.42 0 0.58 1" begin="0.12s" dur="1.44s" repeatCount="indefinite" values="
                          M97.5,159.6c0,0,2.5,13.4,11,15.4
                          ;
                          M97.5,159.6c0,0,3.5,13.4,11,16.4
                          ;
                          M97.5,159.6c0,0,2.5,13.4,11,15.4
                          " />
	</path>
	<path class="st0" d="M106,127.5c0,0,15.9,15.4,22.5,13.4s31.6-8.1,44.3-6.1">
		<animate attributeName="d" keySplines="0.42 0 0.58 1; 0.42 0 0.58 1; 0.42 0 0.58 1" begin="0.12s" dur="1.44s" repeatCount="indefinite" values="
                          M106,127.5c0,0,15.9,15.4,22.5,13.1s31.6-8.1,44.3-6.1
                          ;
                          M106,127.5c0,0,15.9,15.4,22.5,13.4s31.6-8.1,44.3-6.1
                          ;
                          M106,127.5c0,0,15.9,15.4,22.5,13.1s31.6-8.1,44.3-6.1
                          " />
	</path>
	<path class="st0" d="M111.9,177.9c0,0,6.5,3,10.2,5.8c5.7,4.3,10,10.1,7.3,20.7c0,0-0.7,1.7-1.4,2s-2.9,0.3-3,2.7
		c0,0-0.6,1.5,1,1.5h7.8c0,0,2-0.4,2.1-3.9">
		<animate attributeName="d" keySplines="0.42 0 0.58 1; 0.42 0 0.58 1; 0.42 0 0.58 1" begin="0.12s" dur="1.44s" repeatCount="indefinite" values="
                          M111.9,177.9c0,0,6.5,3,10.2,5.8c5.7,4.3,10,10.1,6.3,20.7c0,0-0.7,1.7-1.4,2s-2.9,1.3-3,2.7
		c0,0-0.6,1.5,1,1.5h7.8c0,0,2-0.4,3.1-3.9
                          ;
                          M111.9,177.9c0,0,6.5,3,10.2,5.8c5.7,4.3,10,10.1,7.3,20.7c0,0-0.7,1.7-1.4,2s-2.9,0.3-3,2.7
		c0,0-0.6,1.5,1,1.5h7.8c0,0,2-0.4,2.1-3.9
                          ;
                          M111.9,177.9c0,0,6.5,3,10.2,5.8c5.7,4.3,10,10.1,6.3,20.7c0,0-0.7,1.7-1.4,2s-2.9,1.3-3,2.7
		c0,0-0.6,1.5,1,1.5h7.8c0,0,2-0.4,3.1-3.9
                          " />
	</path>
	<path class="st0" d="M134.3,168.5c0,0,6.1,14.7,3.7,22c-2.1,6.6-2.2,14.5-2.2,14.5">
		<animate attributeName="d" keySplines="0.42 0 0.58 1; 0.42 0 0.58 1; 0.42 0 0.58 1" begin="0.12s" dur="1.44s" repeatCount="indefinite" values="
                          M134.3,168.5c0,0,5.1,14.9,3.7,21c-2.1,3.3-2.2,13.5-2.2,14.5
                          ;
                          M134.3,168.5c0,0,6.1,14.7,3.7,22c-2.1,6.6-2.2,14.5-2.2,14.5
                          ;
                          M134.3,168.5c0,0,5.1,14.9,3.7,21c-2.1,3.3-2.2,13.5-2.2,14.5
                          " />
	</path>
	<path class="st0" d="M138.6,183.4c0,0,15.9-5.9,26.5-0.6">
		<animate attributeName="d" keySplines="0.42 0 0.58 1; 0.42 0 0.58 1; 0.42 0 0.58 1" begin="0.12s" dur="1.44s" repeatCount="indefinite" values="
                          M138.6,183.4c0,0,15.9-5.9,26.7-0.6
                          ;
                          M138.6,183.4c0,0,15.9-5.9,26.5-0.6
                          ;
                          M138.6,183.4c0,0,15.9-5.9,26.7-0.6
                          " />
	</path>
	<path class="st0" d="M195.3,164.8c2.4,3,4.2,4.8,9.4,6c1.8,0.4,1.5,14,5.1,23.1">
		<animate attributeName="d" keySplines="0.42 0 0.58 1; 0.42 0 0.58 1; 0.42 0 0.58 1" begin="0.12s" dur="1.44s" repeatCount="indefinite" values="
                          M195.3,164.8c2.4,3,4.2,3.8,9.4,6c1.8,1.4,1.9,14,5.1,23.4
                          ;
                          M195.3,164.8c2.4,3,4.2,4.8,9.4,6c1.8,0.4,1.5,14,5.1,23.1
                          ;
                          M195.3,164.8c2.4,3,4.2,3.8,9.4,6c1.8,1.4,1.9,14,5.1,23.4
                          " />
	</path>
	<path class="st0" d="M186.2,183.1c0,0,2.5,2.5,1.9,6.3c-0.6,3.8-12.7,16.2-12.7,16.2s-2.3,2.7-2.8,2.8c-1.2,0.1-5.4,0.2-7.8,0.3
		c-1,0-1.8-0.9-1.5-1.9c0.3-1.1,1-2.4,3.1-3.1c3.9-1.3,6-3.8,6-3.8">
		<animate attributeName="d" keySplines="0.42 0 0.58 1; 0.42 0 0.58 1; 0.42 0 0.58 1" begin="0.12s" dur="1.44s" repeatCount="indefinite" values="
                          M186.2,183.1c0,0,2.5,1.5,1.9,6.3c-0.6,3.8-12.7,16.2-12.7,16.2s-2.3,2.7-2.8,2.8c-1.2,0.1-5.4,0.2-7.8,0.3
		c-1,0-1.8-0.9-1.5-1.9c0.3-1.1,1-2.4,2.2-3.1c3.9-1.3,6-3.8,6-3.8
                          ;
                          M186.2,183.1c0,0,2.5,2.5,1.9,6.3c-0.6,3.8-12.7,16.2-12.7,16.2s-2.3,2.7-2.8,2.8c-1.2,0.1-5.4,0.2-7.8,0.3
		c-1,0-1.8-0.9-1.5-1.9c0.3-1.1,1-2.4,3.1-3.1c3.9-1.3,6-3.8,6-3.8
                          ;
                          M186.2,183.1c0,0,2.5,1.5,1.9,6.3c-0.6,3.8-12.7,16.2-12.7,16.2s-2.3,2.7-2.8,2.8c-1.2,0.1-5.4,0.2-7.8,0.3
		c-1,0-1.8-0.9-1.5-1.9c0.3-1.1,1-2.4,2.2-3.1c3.9-1.3,6-3.8,6-3.8
                          " />
	</path>
	<path class="st0" d="M95.9,122.9c2.2-1.2,3.9-11.6,4.8-11.2c0.5,0.2,6.1,9.7,2.8,13.2">
		<animate attributeName="d" keySplines="0.42 0 0.58 1; 0.42 0 0.58 1; 0.42 0 0.58 1" begin="0.12s" dur="1.44s" repeatCount="indefinite" values="
                          M95.9,122.1c2.2-1.2,3.9-11.6,4.6-11.2c0.5,1.2,6.1,10.7,2.8,12.2
                          ;
                          M95.9,122.9c2.2-1.2,3.9-11.6,4.8-11.2c0.5,0.2,6.1,9.7,2.8,13.2
                          ;
                          M95.9,122.1c2.2-1.2,3.9-11.6,4.6-11.2c0.5,1.2,6.1,10.7,2.8,12.2
                          " />
	</path>
	<path class="st0" d="M210.8,200c0,0,0.8,6.8-2.9,10.3c0,0-0.6,1.9-7.1,1.9c-2.2,0-4.4-0.2-4.4-0.2s-1.6-3.1,3.1-5.6
		c1.8-0.9,4.1-3.6,4.5-5.2c1.1-4.7-2.2-11.8-4.6-15.5c-5.7-8.7-14.6-4.9-22.4-5.9s-9-7.4-9.4-7.9">
		<animate attributeName="d" keySplines="0.42 0 0.58 1; 0.42 0 0.58 1; 0.42 0 0.58 1" begin="0.12s" dur="1.44s" repeatCount="indefinite" values="
                          M210.8,200c0,0,0.8,6.8-2.9,10.3c0,0-0.6,1.9-7.1,1.10c-2.2,0-4.4-0.2-4.4-0.2s-1.6-3.1,3.4-5.6
		c1.8-0.9,4.1-3.6,4.2-5.2c1.1-4.7-2.2-11.8-4.6-15.5c-5.7-8.7-14.6-4.9-22.4-5.9s-9-7.4-9.4-7.9
                          ;
                          M210.8,200c0,0,0.8,6.8-2.9,10.3c0,0-0.6,1.9-7.1,1.9c-2.2,0-4.4-0.2-4.4-0.2s-1.6-3.1,3.1-5.6
		c1.8-0.9,4.1-3.6,4.5-5.2c1.1-4.7-2.2-11.8-4.6-15.5c-5.7-8.7-14.6-4.9-22.4-5.9s-9-7.4-9.4-7.9
                          ;
                          M210.8,200c0,0,0.8,6.8-2.9,10.3c0,0-0.6,1.9-7.1,1.10c-2.2,0-4.4-0.2-4.4-0.2s-1.6-3.1,3.4-5.6
		c1.8-0.9,4.1-3.6,4.2-5.2c1.1-4.7-2.2-11.8-4.6-15.5c-5.7-8.7-14.6-4.9-22.4-5.9s-9-7.4-9.4-7.9
                          " />
	</path>
	<path class="st0" d="M203.4,153.2c0,0,2.4,6.4-4.5,15.2">
		<animate attributeName="d" keySplines="0.42 0 0.58 1; 0.42 0 0.58 1; 0.42 0 0.58 1" begin="0.12s" dur="1.44s" repeatCount="indefinite" values="
                          M203.4,153.2c0,0,2.4,6.6-4.5,14.6
                          ;
                          M203.4,153.2c0,0,2.4,6.4-4.5,15.2
                          ;
                          M203.4,153.2c0,0,2.4,6.6-4.5,14.6
                          " />
	</path>
	<path class="st0" d="M172.2,185.3c1.6,1.5,6.6,2.6,4.8,7.3c-1.9,4.9-3.8,6.4-3.8,6.4"/>
	<path class="st0" d="M115.7,210.3c0,0-3.7,0.7-3.7-2.8c0-2.4,4.9-3.3,4.9-3.3s2-1.9,2.3-5c0.1-1.2-0.1-2.5-0.6-3.6l-4-10.8">
		<animate attributeName="d" keySplines="0.42 0 0.58 1; 0.42 0 0.58 1; 0.42 0 0.58 1" begin="0.12s" dur="1.44s" repeatCount="indefinite" values="
                          M115.7,210.3c0,0-3.7,0.7-3.7-2.8c0-2.4,4.9-3.3,4.9-3.9s2-1.9,2.1-5c0.1-1.2-0.1-2.5-0.6-3.6l-4-10.8
                          ;
                          M115.7,210.3c0,0-3.7,0.7-3.7-2.8c0-2.4,4.9-3.3,4.9-3.3s2-1.9,2.3-5c0.1-1.2-0.1-2.5-0.6-3.6l-4-10.8
                          ;
                          M115.7,210.3c0,0-3.7,0.7-3.7-2.8c0-2.4,4.9-3.3,4.9-3.9s2-1.9,2.1-5c0.1-1.2-0.1-2.5-0.6-3.6l-4-10.8
                          " />
	</path>
	<path class="st0" d="M124.9,189.2c0,0-0.2,6.8,0,9.3c0.3,4,1,7.2,1,7.2"/>
	<g id="land">
		<line class="st0" x1="214.3" y1="209.7" x2="266.6" y2="209.7"/>
		<line class="st0" x1="35" y1="209.7" x2="108" y2="209.7"/>
	</g>
</g>
<g id="tail_x5F_01">
	<path id="tail_x5F_01_2_" class="st0" d="M203.1,151.4C203.1,151.4,203.1,151.4,203.1,151.4c-0.7-1.6,0.3-4.5,1.9-5.1
		c3.7-1.4,10.6-3.7,19.3-18.4c7.4-12.5,6.8-27.1,14-28.3c3.8-1,4.9,0.9,7.2,2.4c0,0,2.7,2.6,5-0.1c1.3-2,0-4-1.3-5.4
		c-1.7-1.8-4.2-2.7-4.2-2.7s-14.4-8.4-19.6,13.2c-2.8,10.7-7.7,20.1-13.9,25.5c-6.5,5.7-14.2,7.2-19.8,5.8c-3.6-0.9-17-3.5-17-3.5"
		>
		<animate attributeName="d" keySplines="0.42 0 0.58 1; 0.42 0 0.58 1; 0 0.58 1; 0 0.58 1; 0.42 0 0.58 1" begin="0.2s" dur="2.5s" repeatCount="indefinite"  values="
                          M203.1,151.4C203.1,151.4,203.1,151.4,203.1,151.4c-0.7-1.6,0.3-4.5,1.9-5.1
		c3.7-1.4,10.6-3.7,19.3-18.4c7.4-12.5,6.8-27.1,14-28.3c3.8-1,4.9,0.9,7.2,2.4c0,0,2.7,2.6,5-0.1c1.3-2,0-4-1.3-5.4
		c-1.7-1.8-4.2-2.7-4.2-2.7s-14.4-8.4-19.6,13.2c-2.8,10.7-7.7,20.1-13.9,25.5c-6.5,5.7-14.2,7.2-19.8,5.8c-3.6-0.9-17-3.5-17-3.5
                          ;
                          M203.1,151.4c0,0,0,0-0.2-0.2c-0.6-0.7-0.9-1.6-0.8-2.5c0.6-4.3,9.5,0.5,22.1-20.8
		c7.4-12.5,5.6-23.5,14-29.3c6.5-3.9,8.5-3.5,12.2-3.1c0,0,3.3,1,4.2-1.8c0.7-2.9-0.7-4.1-2.4-4.8c-1.8-0.8-3.8-0.9-3.8-0.9
		s-17.7-2.6-22.9,19c-2.8,10.7-7.7,22.1-13.9,25.5c-6.5,5.7-14.2,7.2-19.8,5.8c-3.6-0.9-17-3.5-17-3.5
		;
		M203.1,151.4C203.1,151.4,203.1,151.4,203.1,151.4c-0.7-1.6,0.3-4.5,1.9-5.1
		c3.7-1.4,10.6-3.7,19.3-18.4c7.4-12.5,6.8-27.1,14-28.3c3.8-1,4.9,0.9,7.2,2.4c0,0,2.7,2.6,5-0.1c1.3-2,0-4-1.3-5.4
		c-1.7-1.8-4.2-2.7-4.2-2.7s-14.4-8.4-19.6,13.2c-2.8,10.7-7.7,20.1-13.9,25.5c-6.5,5.7-14.2,7.2-19.8,5.8c-3.6-0.9-17-3.5-17-3.5
                          
                          " />
	</path>
</g>
</svg>
