<?xml version="1.0" encoding="utf-8"?>
<!-- Generator: Adobe Illustrator 23.1.1, SVG Export Plug-In . SVG Version: 6.00 Build 0)  -->
<svg version="1.1" id="Layer_1" xmlns="http://www.w3.org/2000/svg" xmlns:xlink="http://www.w3.org/1999/xlink" x="0px" y="0px"
	 viewBox="0 0 200 200" style="enable-background:new 0 0 200 200;" xml:space="preserve">
<path d="M150.89,100.01c0,5.31-0.83,10.42-2.36,15.22c-1.63,5.1-4.05,9.84-7.12,14.08c-2.91,4.02-6.41,7.59-10.37,10.59
	c-1.86,1.41-3.83,2.69-5.88,3.83c-7.19,4-15.47,6.28-24.27,6.28c-7.92,0-15.41-1.84-22.06-5.12c-5.02-2.47-9.57-5.77-13.47-9.7
	c-2.81-2.84-5.29-6.01-7.36-9.46c-4.52-7.51-7.11-16.31-7.11-25.72c0-4.94,0.72-9.71,2.05-14.22c2.36-7.98,6.66-15.13,12.36-20.89
	c4.53-4.59,9.95-8.31,15.97-10.89c6.02-2.57,12.66-4,19.62-4c4.94,0,9.71,0.72,14.21,2.05c4.5,1.33,8.74,3.28,12.62,5.75
	c6.96,4.44,12.76,10.55,16.81,17.77S150.89,91.14,150.89,100.01z"/>
</svg>
