<?xml version="1.0" encoding="utf-8"?>
<!-- Generator: Adobe Illustrator 23.1.1, SVG Export Plug-In . SVG Version: 6.00 Build 0)  -->
<svg version="1.1" id="Layer_2" xmlns="http://www.w3.org/2000/svg" xmlns:xlink="http://www.w3.org/1999/xlink" x="0px" y="0px"
	 viewBox="0 0 365.63 397.26" style="enable-background:new 0 0 365.63 397.26;" xml:space="preserve">
<style type="text/css">
	.Drop_x0020_Shadow{fill:none;}
	.Round_x0020_Corners_x0020_2_x0020_pt{fill:#FFFFFF;stroke:#000000;stroke-miterlimit:10;}
	.Live_x0020_Reflect_x0020_X{fill:none;}
	.Bevel_x0020_Soft{fill:url(#SVGID_1_);}
	.Dusk{fill:#FFFFFF;}
	.Foliage_GS{fill:#FFDD00;}
	.Pompadour_GS{fill-rule:evenodd;clip-rule:evenodd;fill:#44ADE2;}
</style>
<linearGradient id="SVGID_1_" gradientUnits="userSpaceOnUse" x1="-137.7856" y1="-222.8023" x2="-137.0785" y2="-222.0952">
	<stop  offset="0" style="stop-color:#DEDFE3"/>
	<stop  offset="0.1738" style="stop-color:#D8D9DD"/>
	<stop  offset="0.352" style="stop-color:#C9CACD"/>
	<stop  offset="0.5323" style="stop-color:#B4B5B8"/>
	<stop  offset="0.7139" style="stop-color:#989A9C"/>
	<stop  offset="0.8949" style="stop-color:#797C7E"/>
	<stop  offset="1" style="stop-color:#656B6C"/>
</linearGradient>
<g>
	<g>
		<path d="M79.13,155.51c-2.53,12.15-2.5,24.73,0.19,36.85c0.6,2.72,1.3,5.55,3.31,7.6c1.97,2.01,4.79,2.82,7.43,3.53
			c5.97,1.6,12.04,2.85,18.16,3.76c7.06,1.04,14.17,1.65,21.3,1.78c3.22,0.06,3.22-4.94,0-5c-11.51-0.21-22.97-1.65-34.16-4.34
			c-2.46-0.59-5.14-1.06-7.46-2.11c-2.25-1.02-2.89-2.9-3.44-5.16c-1.31-5.43-2.03-10.99-2.19-16.58
			c-0.18-6.38,0.38-12.74,1.68-18.99c0.27-1.32-0.39-2.7-1.75-3.08C80.96,153.42,79.4,154.18,79.13,155.51L79.13,155.51z"/>
	</g>
</g>
<g>
	<g>
		<path d="M108.6,207.37c15.54,17.39,23.63,41.53,21.19,64.79c-0.69,6.57-2.56,13.07-6.53,18.44c-0.8,1.09-0.18,2.79,0.9,3.42
			c1.27,0.74,2.62,0.19,3.42-0.9c7.54-10.2,8.36-24.34,7.28-36.55c-1.09-12.42-4.71-24.54-10.62-35.52
			c-3.33-6.19-7.42-11.97-12.11-17.22C109.98,201.43,106.46,204.98,108.6,207.37L108.6,207.37z"/>
	</g>
</g>
<g>
	<g>
		<path d="M95.21,105.05c9.21-11.44,20.88-25.49,37.3-23.54c1.34,0.16,2.5-1.26,2.5-2.5c0-1.48-1.15-2.34-2.5-2.5
			c-8.25-0.98-16.58,2.11-23.21,6.88c-6.92,4.97-12.31,11.55-17.62,18.13c-0.85,1.05-1.03,2.51,0,3.54
			C92.55,105.93,94.36,106.11,95.21,105.05L95.21,105.05z"/>
	</g>
</g>
<g id="line_x5F_c">
	<g>
		<g>
			<path d="M136.95,55.73c-12.23-2.31-25.48-4.18-37.35,0.7c-4.81,1.98-9.33,4.85-12.73,8.84c-3.79,4.45-5.76,9.75-6.51,15.51
				c-0.88,6.7-0.25,13.53-1.4,20.19c-0.23,1.33,0.35,2.69,1.75,3.08c1.2,0.33,2.85-0.41,3.08-1.75c0.98-5.7,0.82-11.47,1.17-17.22
				c0.32-5.22,1.3-10.38,4.3-14.76c5.62-8.19,16.1-11.6,25.6-11.92c7-0.23,13.92,0.86,20.77,2.16c1.33,0.25,2.7-0.37,3.08-1.75
				C139.03,57.59,138.28,55.98,136.95,55.73L136.95,55.73z"/>
		</g>
	</g>
</g>
<g id="line_x5F_b">
	<g>
		<g>
			<path d="M86.89,209.6c-2.25,2.93-5.58,4.89-8.71,6.73c-3.27,1.92-6.57,3.82-9.4,6.38c-2.75,2.49-5.07,5.77-5.73,9.48
				c-0.61,3.43,0.09,6.98,1.82,9.99c1.96,3.42,5.24,6.07,9.08,7.02c3.12,0.77,4.46-4.05,1.33-4.82c-4.93-1.22-8.48-6.73-7.25-11.67
				c1.62-6.46,8.68-9.67,13.87-12.79c3.53-2.12,6.77-4.52,9.29-7.81c0.82-1.07,0.17-2.8-0.9-3.42
				C89.02,207.95,87.71,208.52,86.89,209.6L86.89,209.6z"/>
		</g>
	</g>
</g>
<g>
	<g>
		<path d="M144.58,72.07c-1.23,12.99,4.3,25.78,12.9,35.3c4.19,4.64,9.15,8.59,14.43,11.92c2.57,1.62,5.23,3.09,7.95,4.44
			c2.78,1.38,5.69,2.51,8.4,4.04c2.57,1.46,4.81,3.39,5.89,6.22c1.01,2.67,1.08,5.8-0.1,8.43c-0.55,1.23-0.35,2.69,0.9,3.42
			c1.07,0.63,2.86,0.34,3.42-0.9c2.56-5.69,1.81-12.34-2.19-17.19c-3.98-4.83-10.64-6.64-15.99-9.47
			c-11.1-5.86-21.15-14.19-26.72-25.65c-3.1-6.38-4.54-13.48-3.87-20.56c0.13-1.35-1.24-2.5-2.5-2.5
			C145.62,69.57,144.71,70.72,144.58,72.07L144.58,72.07z"/>
	</g>
</g>
<g>
	<g>
		<path d="M197.71,179.83c4.21-1.1,8.14-3.27,11.24-6.34c0.93-0.92,0.99-2.62,0-3.54c-1-0.92-2.54-0.98-3.54,0
			c-0.34,0.34-0.69,0.66-1.05,0.97c-0.17,0.15-0.34,0.29-0.51,0.43c-0.11,0.09-0.23,0.17-0.33,0.26c0.1-0.1,0.36-0.27,0.11-0.09
			c-0.77,0.56-1.56,1.08-2.4,1.55c-0.39,0.22-0.79,0.42-1.19,0.62c-0.23,0.11-0.46,0.22-0.69,0.32c-0.07,0.03-0.43,0.19-0.09,0.04
			c0.34-0.15-0.02,0.01-0.09,0.03c-0.91,0.36-1.85,0.66-2.8,0.91c-1.27,0.33-2.16,1.8-1.75,3.08
			C195.06,179.38,196.35,180.18,197.71,179.83L197.71,179.83z"/>
	</g>
</g>
<g>
	<g>
		<path d="M180.28,166.45c-1.6,2.1-3.09,4.43-3.05,7.18c0.02,1.29,0.36,2.68,1.11,3.75c1,1.43,2.39,2.18,4.01,2.73
			c1.24,0.42,2.79-0.48,3.08-1.75c0.32-1.39-0.42-2.63-1.75-3.08c-0.11-0.04-0.22-0.07-0.33-0.11c-0.03-0.01-0.56-0.21-0.19-0.07
			c0.33,0.13-0.03-0.02-0.09-0.06c-0.1-0.05-0.2-0.11-0.3-0.17c-0.36-0.22-0.06-0.14,0.02,0.04c-0.03-0.07-0.16-0.14-0.21-0.2
			c-0.06-0.07-0.12-0.15-0.19-0.21c0.41,0.36,0.23,0.31,0.11,0.1c-0.05-0.08-0.09-0.16-0.14-0.25c-0.12-0.24-0.02-0.34,0.05,0.14
			c-0.03-0.18-0.12-0.37-0.16-0.55c-0.02-0.09-0.03-0.19-0.05-0.28c0.17,0.62,0.05,0.38,0.04,0.16c-0.01-0.22-0.01-0.44,0-0.66
			c0.01-0.1,0.03-0.19,0.03-0.29c0,0.1-0.11,0.57-0.02,0.23c0.06-0.22,0.1-0.45,0.18-0.67c0.04-0.11,0.08-0.22,0.11-0.33
			c0.09-0.31-0.27,0.55-0.02,0.04c0.1-0.21,0.2-0.41,0.31-0.62c0.51-0.92,1.14-1.75,1.77-2.58c0.37-0.48,0.4-1.37,0.25-1.93
			c-0.16-0.58-0.61-1.21-1.15-1.49c-0.58-0.31-1.28-0.46-1.93-0.25C181.11,165.52,180.7,165.9,180.28,166.45L180.28,166.45z"/>
	</g>
</g>
<g id="line_x5F_a">
	<g>
		<g>
			<path d="M169.84,62.15c14.28,8.71,31.56,10.48,45.83,19.17c6.45,3.92,11.7,9.25,14.75,16.21c2.98,6.81,3.88,14.39,4.8,21.7
				c0.97,7.72,1.84,15.65,4.72,22.94c0.82,2.08,1.79,4.01,3.23,5.74c1.31,1.57,3.02,2.76,4.69,3.91c2.34,1.61,4.53,3.42,6.22,5.73
				c3.63,4.99,5.6,10.99,6.55,17.05c0.93,5.93,0.78,12.16-0.74,17.89c-1.7,6.44-5.38,12.51-9.74,17.5
				c-4.63,5.3-10.4,9.8-16.99,12.39c-1.67,0.66-3.38,1.2-5.13,1.63c-3.12,0.78-1.8,5.6,1.33,4.82c14.8-3.68,27.1-15.32,33.19-29.1
				c5.38-12.17,4.63-27.06-0.89-39.06c-1.33-2.9-3.05-5.62-5.15-8.03c-2.28-2.61-5.17-4.25-7.85-6.38
				c-3.18-2.53-4.42-6.39-5.47-10.17c-1.07-3.85-1.75-7.79-2.3-11.74c-1.09-7.79-1.67-15.72-3.91-23.3
				c-2.29-7.75-6.48-14.64-12.77-19.79c-6.28-5.15-13.71-8.55-21.3-11.29c-8.23-2.97-16.76-5.2-24.68-8.97c-2-0.95-3.96-2-5.85-3.16
				C169.61,56.15,167.09,60.47,169.84,62.15L169.84,62.15z"/>
		</g>
	</g>
</g>
<g>
	<g>
		<path d="M126.4,113.87c1.87-1.06,4.05-1.11,6.17-0.96c1.79,0.12,4,0.71,5.24,1.75c1.32,1.1,2.16,2.62,2.7,4.14
			c0.7,1.96,1.09,4.02,1.45,6.07c0.23,1.33,1.86,2.08,3.08,1.75c1.4-0.39,1.98-1.74,1.75-3.08c-0.86-4.89-2.17-10.05-6.38-13.15
			c-2.3-1.69-5.2-2.32-8-2.49c-2.93-0.18-5.94,0.19-8.53,1.65C121.07,111.14,123.59,115.46,126.4,113.87L126.4,113.87z"/>
	</g>
</g>
<g>
	<g>
		<path d="M161.13,288.53c9.1-6.13,18.88-11.24,28.63-16.23c4.65-2.38,9.33-4.72,14.01-7.06c5.57-2.79,11.26-5.38,17.25-7.14
			c5.78-1.7,11.85-2.6,17.87-1.83c4.33,0.55,8.56,2,12.44,3.98c8.26,4.21,15.21,10.48,22.21,16.44
			c8.15,6.94,16.62,13.79,26.86,17.36c1.27,0.45,2.73-0.51,3.08-1.75c0.38-1.38-0.47-2.63-1.75-3.08
			c-18.09-6.32-29.7-23.21-46.12-32.37c-4.09-2.28-8.5-4.09-13.09-5.03c-6.1-1.24-12.34-0.98-18.41,0.32
			c-11.67,2.5-22.33,8.46-32.89,13.81c-11.1,5.62-22.29,11.3-32.61,18.26C155.95,286,158.45,290.33,161.13,288.53L161.13,288.53z"/>
	</g>
</g>
<g>
	<g>
		<path d="M75.47,318.96c19.21-0.87,37.62-6.62,55.05-14.46c4.97-2.24,9.87-4.64,14.72-7.15c2.86-1.48,0.33-5.79-2.52-4.32
			c-16.42,8.48-33.59,15.84-51.86,19.18c-5.09,0.93-10.22,1.51-15.38,1.74C72.26,314.11,72.25,319.11,75.47,318.96L75.47,318.96z"/>
	</g>
</g>
<g>
	<g>
		<path d="M179.64,258.34c15.73-4.8,32.54-5.57,48.63-2.12c3.14,0.67,4.48-4.15,1.33-4.82c-16.95-3.64-34.7-2.94-51.28,2.12
			C175.24,254.45,176.55,259.28,179.64,258.34L179.64,258.34z"/>
	</g>
</g>
<g>
	<g>
		<path d="M85.33,145.14c-0.82-3.64-2.89-7.03-3.28-10.76c-0.15-1.45-0.07-2.99,0.66-4.28c0.15-0.26,0.42-0.48,0.55-0.73
			c-0.17,0.32-0.69,0,0.18,0.23c0.77,0.21,1.53,0.49,2.27,0.8c3.38,1.42,6.76,2.86,10.46,1.64c3.26-1.07,6.06-3.62,7.51-6.73
			c1.91-4.07,2.1-8.12,1.18-12.47c-0.67-3.15-5.49-1.81-4.82,1.33c0.69,3.24,0.59,6.47-1.09,9.42c-1.32,2.31-3.83,4.28-6.63,3.9
			c-3.37-0.45-6.32-3.3-9.82-2.96c-4.17,0.41-5.66,5.76-5.49,9.26c0.22,4.48,2.53,8.37,3.5,12.68
			C81.22,149.6,86.04,148.28,85.33,145.14L85.33,145.14z"/>
	</g>
</g>
<g>
	<g>
		<path d="M145.25,62.98c4.81-2.38,9.91-4.11,15.16-5.21c1.25-0.26,2.51-0.49,3.78-0.67c0.48-0.07,1.01-0.2,1.5-0.18
			c0.47,0.02,0.34-0.03,0.65,0.3c0.78,0.82,1.35,2.19,1.86,3.19c0.6,1.18,1.12,2.39,1.58,3.63c3.62,9.7,4.27,20.72,10.44,29.36
			c3.11,4.35,7.3,7.89,12.53,9.31c3.11,0.85,4.43-3.97,1.33-4.82c-9.94-2.71-13.58-13.72-15.88-22.59
			c-1.37-5.29-2.63-10.61-4.85-15.63c-1.02-2.31-2.31-5.36-4.43-6.86c-2.29-1.62-5.53-0.66-8.07-0.2
			c-6.3,1.13-12.39,3.23-18.13,6.06C139.84,60.08,142.37,64.4,145.25,62.98L145.25,62.98z"/>
	</g>
</g>
<g>
	<g>
		<path d="M130.22,261.22c-10.09,10.38-25.83,11.55-37.45,19.62c-3.35,2.32-6.26,5.09-8.55,8.47c-1.81,2.67,2.52,5.17,4.32,2.52
			c3.76-5.52,9.77-8.93,15.74-11.58c6.51-2.89,13.37-4.94,19.68-8.3c3.59-1.91,6.96-4.27,9.8-7.19
			C136,262.44,132.47,258.9,130.22,261.22L130.22,261.22z"/>
	</g>
</g>
<g>
	<g>
		<path d="M188.71,161.31c-0.69,24.73-11.08,47.68-20.71,70.01c-4.96,11.5-9.87,23.07-13.49,35.08
			c-3.79,12.55-5.95,25.55-5.74,38.69c0.24,15.54,3.56,30.88,9.65,45.17c0.53,1.24,2.36,1.52,3.42,0.9c1.29-0.75,1.43-2.17,0.9-3.42
			c-5.28-12.4-8.26-25.81-8.86-39.26c-0.58-12.96,1.18-25.75,4.72-38.2c6.77-23.81,18.8-45.64,26.97-68.93
			c4.53-12.9,7.77-26.32,8.15-40.04C193.8,158.1,188.8,158.1,188.71,161.31L188.71,161.31z"/>
	</g>
</g>
<g id="eyes">
	<ellipse transform="matrix(0.356 -0.9345 0.9345 0.356 -35.3798 201.6418)" cx="128.61" cy="126.49" rx="5.38" ry="4.23"/>
</g>
<g>
	<g>
		<path d="M90.1,156.35c5.35,0.62,10.7,1.25,16.05,1.87c1.3,0.15,2.56-1.26,2.5-2.5c-0.07-1.48-1.1-2.34-2.5-2.5
			c-5.35-0.62-10.7-1.25-16.05-1.87c-1.3-0.15-2.56,1.26-2.5,2.5C87.67,155.34,88.71,156.19,90.1,156.35L90.1,156.35z"/>
	</g>
</g>
</svg>
