<?xml version="1.0" encoding="utf-8"?>
<!-- Generator: Adobe Illustrator 23.1.1, SVG Export Plug-In . SVG Version: 6.00 Build 0)  -->
<svg version="1.1" id="Layer_1" xmlns="http://www.w3.org/2000/svg" xmlns:xlink="http://www.w3.org/1999/xlink" x="0px" y="0px"
	 viewBox="0 0 136.72 147.49" style="enable-background:new 0 0 136.72 147.49;" xml:space="preserve">
<style type="text/css">
	.st0{fill:#EE273C;}
	.st1{fill:#4CA3DA;}
	.st2{fill:none;stroke:#000000;stroke-width:2.7;stroke-miterlimit:10;}
	.st3{fill:none;stroke:#000000;stroke-width:4;stroke-miterlimit:10;}
</style>
<path class="st0" d="M37.12,46.26c0,0,5.83-6.51,8.27-4.88s3.66,2.98,4.75,3.8s0.54-0.41,1.63-0.41s0.68-1.76,1.22-1.36
	s1.22-1.09,1.36-2.03c0.14-0.95-3.93-0.68-5.29-2.71c-1.36-2.03-5.56-0.68-6.37,0.54S37.12,46.26,37.12,46.26z"/>
<path class="st0" d="M66.82,37.99c0,0-0.54,1.49,1.76,1.9c2.31,0.41,3.12,0.68,3.93-0.27c0.81-0.95,0.54,1.76,0.95,0.95
	s1.63-3.66,3.53-2.31c1.9,1.36,4.61,2.71,5.43,5.56c0.49,1.7-0.54-7.73-7.05-8.95c-4.95-0.93-8.14,0.41-8.14,0.41
	S65.74,36.77,66.82,37.99z"/>
<path class="st0" d="M53.21,76.73c0,0,0.63-1.45,2.26-0.81s2.53,0.9,2.8-0.9s3.53-4.34,5.06-2.8c1.54,1.54,2.8-0.18,3.07,2.17
	c0.27,2.35,0.99,4.25,2.08,3.16c1.09-1.09,2.44-2.17,2.53-0.63c0.09,1.54-2.26,3.89-5.7,5.06c-3.44,1.18-6.69,1.63-8.32,0
	c-1.63-1.63-0.72-0.54-2.35-1.54s-2.35-2.26-2.08-2.98C52.85,76.73,53.21,76.73,53.21,76.73z"/>
<path class="st1" d="M89.29,58.11c-0.09-1.09-1.54-4.88-3.16-5.52c-1.63-0.63-2.62-2.89-4.07-4.61c-1.45-1.72-1.54-1.18-2.62-1.54
	c-1.09-0.36-1.27,1.31-3.53,1.58c-2.26,0.27-8.14,5.83-8.68,7.73c0,0-0.18,1.09,0.18,1.81c0.24,0.48,1.86,4.39,3.56,6.78
	c0.27,0.57,0.69,1.12,1.33,1.54c2.17,1.45,4.88,1.27,5.61,2.71c0.72,1.45,2.35,2.53,2.53,0c0.18-2.53,1.09-4.34,3.44-4.34
	c1.57,0,2.98-0.65,2.54-1.73C89.11,60.76,89.37,59.02,89.29,58.11z"/>
<path class="st1" d="M50.55,52.03c-3.7-2.4-1.63,0.61-5.85-2.64c-3.43-2.64-13.88,6.44-7.44,17.36c0,0,0.02-0.02,0.03-0.03
	c0.39,0.83,1.64,2.18,2.68,3.14c1.03,0.96,2.33,1.6,3.72,1.76c1.18,0.14,2.63,0.06,4-0.67c3.07-1.63,0.54-5.74,5.97-7.19
	c0.08-0.02,1.08-1.06,1.09-1.09c0.1,0,1.16-1.49,1.22-1.49l0.23-1.72l0.36-4.16C56.18,53.93,51.74,52.8,50.55,52.03z"/>
<path class="st0" d="M33.59,80.62c0,0,4.54,4.31,6.69,5.97c4.29,3.29,4.95,3.94,7.14,1.54c2.04-2.24,1.81-2.44,5.79-2.08
	c1.49,0.14,1.63,1.09,4.52,1.45c2.89,0.36,0.99,1.27,4.25,0.36c3.26-0.9,1.99-1.63,4.16-1.63c2.17,0,3.07,0.72,4.16,0.54
	c1.09-0.18,1.72-1.09,4.07-1.36c1.44-0.17,2.62,0.27,4.97-0.27c2.35-0.54,1.76-2.12,4.43-1.18c2.67,0.95,0.63,3.71,2.98,1.9
	c2.35-1.81,2.17-1.63,4.88-4.34c2.71-2.71,2.53-4.7,2.53-4.7s0.09,6.33-2.08,8.68c-2.17,2.35-3.89,5.15-6.42,8.5
	c-2.06,2.72-6.33,1.99-7.78,5.61s-1.09,6.33-3.62,7.96c-2.53,1.63-13.74,3.44-16.82,1.45s-5.06-3.98-7.05-5.79
	c-1.99-1.81-3.98-3.26-4.88-3.62c-0.9-0.36-3.62-1.99-5.24-6.69S33.59,80.62,33.59,80.62z"/>
<path class="st2" d="M35.22,34.78c0,0-8.32,11.94-4.7,30.38l-1.48,11.28c-0.21,1.62-0.07,3.27,0.43,4.83l2.14,6.67l1.42,13.3
	c0.25,2.36,1.46,4.52,3.34,5.97l15.14,10.93"/>
<path class="st2" d="M89.22,35.88c0,0,5.67,22.77,5.67,28.19s2.53,10.85,2.53,10.85s-1.45,22.79-1.45,26.4s-10.13,11.94-10.13,11.94
	"/>
<path class="st2" d="M40.24,98.34c0,0,10.53,21.79,14.87,23.24s20.98,0,20.98,0s5.79-5.79,6.51-10.85"/>
<polyline class="st3" points="35.36,58.88 41.19,53.68 54.75,57.38 "/>
<path class="st3" d="M68.58,56.03c0,0,10.58-4.88,11.21-4.7c0.63,0.18,8.5,5.7,8.5,5.7"/>
<path class="st2" d="M57.55,54.67c0,0-1.36,13.2-3.07,15.73"/>
<path class="st2" d="M52.4,74.11c0,0-1.63,1.81,0.36,4.52"/>
<path class="st2" d="M55.56,78.18c0,0,1.27,5.06,6.24,5.06s6.33-3.44,6.33-3.44l3.53-0.9c0,0,0.72-2.53-0.9-3.98"/>
<path class="st2" d="M38.47,29.72c0,0,3.56-8.45,20.07-9.49c17.23-1.09,25.23,7.73,25.23,7.73"/>
<g id="eyes">
	<ellipse transform="matrix(0.9942 -0.1074 0.1074 0.9942 -6.0329 8.6646)" cx="77.39" cy="60.32" rx="4.77" ry="2.17"/>
	<ellipse transform="matrix(0.9942 -0.1074 0.1074 0.9942 -6.4773 5.2978)" cx="45.92" cy="62.76" rx="4.77" ry="2.17"/>
</g>
<line class="st2" x1="66.01" y1="59.83" x2="69.13" y2="63.49"/>
<path class="st2" d="M80.16,82.07c0,0,2.17,2.03,2.31,3.66c0.14,1.63-0.54,4.34-0.54,4.34"/>
<polyline class="st2" points="84.49,61.72 86.35,63.08 90.2,63.45 "/>
<path class="st2" d="M33.11,70.28c0.5-0.25,4.1-0.37,5.34-1.99"/>
<path class="st2" d="M44.65,88.03c0,0-1.74,4.22-0.87,5.34s2.36,3.72,2.36,3.72"/>
<g id="lips">
	<path class="st2" d="M47.7,92.11l15.86-0.66c0.37-0.02,0.74-0.06,1.1-0.14l14.65-3.14"/>
	<path class="st2" d="M53.09,95.85c0.99,0,14.52,1.86,20.85-2.73"/>
</g>
<line class="st2" x1="38.47" y1="111.27" x2="39.74" y2="123.39"/>
<line class="st2" x1="92.18" y1="110.55" x2="90.56" y2="133.88"/>
<path class="st2" d="M45.53,39.48c0,0,21.16-3.53,28.84-2.08"/>
<line class="st2" x1="82.78" y1="65.07" x2="86.76" y2="68.23"/>
<line class="st2" x1="38.2" y1="65.25" x2="34.41" y2="66.88"/>
<line class="st2" x1="69.67" y1="71.22" x2="75.91" y2="78"/>
<g id="hair">
	<path class="st2" d="M21.39,77.73c0,0-3.93,2.71-6.65,13.56s0.68,19.12,3.66,24.01s-3.12,9.9,0,15.6"/>
	<path class="st2" d="M107.65,60.1c0,0,10.44,5.97,4.88,21.84c-5.56,15.87-1.22,21.7,1.09,24.28"/>
	<path class="st2" d="M58.01,17.24c0,0-5.24-6.15-12.48-2.35s-8.5,7.6-8.5,7.6"/>
	<path class="st2" d="M59.81,17.78c0,0,6.51-5.24,14.65-4.16c0,0,9.27,0.59,17.04,8.91s10.44,19.67,11.17,21.66
		c0.72,1.99,3.8,9.77,1.45,15.73"/>
	<path class="st2" d="M34.54,24.29c0,0-15.19,5.97-12.61,19.12s-0.81,24.14-0.81,25.63"/>
	<path class="st2" d="M114.25,109.29c0,0,7.41,7.05-0.36,16.28"/>
	<path class="st2" d="M24.03,69.97c0,0,2.71,7.96-1.27,15.01c-3.98,7.05,0.36,12.48,0.36,12.48"/>
	<path class="st2" d="M27.2,102.34c0,0,2.17,1.36,0.81,5.97c-1.36,4.61-2.71,7.87,0.54,11.12"/>
	<path class="st2" d="M53.69,20.69c0,0-4.07-2.98-7.87-1.9"/>
	<path class="st2" d="M99.26,49.45c0,0-2.71,7.6,0.27,13.56s7.05,9.77,2.98,19.8"/>
	<path class="st2" d="M99.98,101.8c0,0-2.89,10.49,1.81,15.55s0.72,9.4,0.72,9.4"/>
</g>
</svg>
