<?xml version="1.0" encoding="utf-8"?>
<!-- Generator: Adobe Illustrator 23.0.4, SVG Export Plug-In . SVG Version: 6.00 Build 0)  -->
<svg version="1.1" id="motion" xmlns="http://www.w3.org/2000/svg" xmlns:xlink="http://www.w3.org/1999/xlink" x="0px" y="0px"
   viewBox="0 0 136 136" style="enable-background:new 0 0 136 136;" xml:space="preserve">
<style type="text/css">
	.st0{fill:#EE273C;}
	.st1{fill:#4CA3DA;}
	.st2{fill:none;stroke:#000000;stroke-width:2.7;stroke-miterlimit:10;}
	.st3{fill:none;stroke:#000000;stroke-width:4;stroke-miterlimit:10;}
	#eyes {
	fill: #000000;
	-webkit-animation-name: blink;
    -webkit-animation-duration: 5s;
    -webkit-animation-iteration-count: infinite; 
    -webkit-transform-origin:50% 50%;

    animation-name: blink;
    animation-duration: 5s;
    animation-iteration-count: infinite;
     }

@-webkit-keyframes blink { 
  0% { -webkit-transform: scaleX(1) scaleY(1); } 
  1% { -webkit-transform: scaleX(1.1) scaleY(0.1); } 
  2% { -webkit-transform: scaleX(1) scaleY(1); }
  24% { -webkit-transform: scaleX(1) scaleY(1); }
  25% { -webkit-transform: scaleX(1.1) scaleY(0.1); } 
  26% { -webkit-transform: scaleX(1) scaleY(1); }
  50% { -webkit-transform: scaleX(1) scaleY(1); }
  74% { -webkit-transform: scaleX(1) scaleY(1); }
  75% { -webkit-transform: scaleX(1.1) scaleY(0.1); } 
  76% { -webkit-transform: scaleX(1) scaleY(1); }
  100% { -webkit-transform: scaleX(1) scaleY(1);} 
}
@keyframes blink { 
  0% { -webkit-transform: scaleX(1) scaleY(1); } 
  1% { -webkit-transform: scaleX(1.1) scaleY(0.1); } 
  2% { -webkit-transform: scaleX(1) scaleY(1); }
  24% { -webkit-transform: scaleX(1) scaleY(1); }
  25% { -webkit-transform: scaleX(1.1) scaleY(0.1); } 
  26% { -webkit-transform: scaleX(1) scaleY(1); }
  50% { -webkit-transform: scaleX(1) scaleY(1); }
  74% { -webkit-transform: scaleX(1) scaleY(1); }
  75% { -webkit-transform: scaleX(1.1) scaleY(0.1); } 
  76% { -webkit-transform: scaleX(1) scaleY(1); }
  100% { -webkit-transform: scaleX(1) scaleY(1);} 
}
#makeup {
	animation: glitch-skew 1s cubic-bezier(0.05, 0.16, 0.04, 0.02) 4s infinite;
}
@keyframes glitch-skew {
  0% {
    transform: skew(0deg, 0deg);
  }
  48% {
    transform: skew(0deg, 0deg);
    filter: blur(0);
  }
  50% {
    transform: skew(-13deg, 0deg);
    filter: blur(4px);
  }
  52% {
    transform: skew(13deg, 0deg);
  }
  54% {
    transform: skew(0deg, 0deg);
    filter: blur(0);
  }
  100% {
    transform: skew(0deg, 0deg);
  }
}
</style>
<g id="makeup">
	<path class="st0" d="M43.7,50.3c0,0,5.3-5.9,7.5-4.4c2.2,1.5,3.3,2.7,4.3,3.5c1,0.7,0.5-0.4,1.5-0.4s0.6-1.6,1.1-1.2
		c0.5,0.4,1.1-1,1.2-1.8c0.1-0.9-3.6-0.6-4.8-2.5c-1.2-1.8-5.1-0.6-5.8,0.5C48,45,43.7,50.3,43.7,50.3z"/>
	<path class="st0" d="M70.7,42.8c0,0-0.5,1.4,1.6,1.7c2.1,0.4,2.8,0.6,3.6-0.2c0.7-0.9,0.5,1.6,0.9,0.9s1.5-3.3,3.2-2.1
		c1.7,1.2,4.2,2.5,4.9,5.1c0.4,1.5-0.5-7-6.4-8.1c-4.5-0.8-7.4,0.4-7.4,0.4S69.7,41.6,70.7,42.8z"/>
	<path class="st0" d="M58.3,78c0,0,0.6-1.3,2.1-0.7c1.5,0.6,2.3,0.8,2.5-0.8c0.2-1.6,3.2-3.9,4.6-2.5c1.4,1.4,2.5-0.2,2.8,2
		c0.2,2.1,0.9,3.9,1.9,2.9c1-1,2.2-2,2.3-0.6s-2.1,3.5-5.2,4.6c-3.1,1.1-6.1,1.5-7.6,0c-1.5-1.5-0.7-0.5-2.1-1.4
		c-1.5-0.9-2.1-2.1-1.9-2.7C58,78,58.3,78,58.3,78z"/>
	<path class="st1" d="M91.1,61c-0.1-1-1.4-4.4-2.9-5c-1.5-0.6-2.4-2.6-3.7-4.2c-1.3-1.6-1.4-1.1-2.4-1.4c-1-0.3-1.2,1.2-3.2,1.4
		c-2.1,0.2-7.4,5.3-7.9,7c0,0-0.2,1,0.2,1.6c0.2,0.4,1.7,4,3.2,6.2c0.2,0.5,0.6,1,1.2,1.4c2,1.3,4.4,1.2,5.1,2.5
		c0.7,1.3,2.1,2.3,2.3,0s1-3.9,3.1-3.9c1.4,0,2.7-0.6,2.3-1.6C91,63.4,91.2,61.9,91.1,61z"/>
	<path class="st1" d="M55.9,55.5c-3.4-2.2-1.5,0.6-5.3-2.4C47.5,50.7,38,59,43.8,68.9c0,0,0,0,0,0c0.4,0.8,1.5,2,2.4,2.9
		c0.9,0.9,2.1,1.5,3.4,1.6c1.1,0.1,2.4,0.1,3.6-0.6c2.8-1.5,0.5-5.2,5.4-6.5c0.1,0,1-1,1-1c0.1,0,1.1-1.4,1.1-1.4l0.2-1.6l0.3-3.8
		C61,57.2,57,56.2,55.9,55.5z"/>
	<path class="st0" d="M40.5,81.5c0,0,4.1,3.9,6.1,5.4c3.9,3,4.5,3.6,6.5,1.4c1.9-2,1.6-2.2,5.3-1.9c1.4,0.1,1.5,1,4.1,1.3
		c2.6,0.3,0.9,1.2,3.9,0.3c3-0.8,1.8-1.5,3.8-1.5s2.8,0.7,3.8,0.5c1-0.2,1.6-1,3.7-1.2c1.3-0.2,2.4,0.2,4.5-0.2
		c2.1-0.5,1.6-1.9,4-1.1c2.4,0.9,0.6,3.4,2.7,1.7c2.1-1.6,2-1.5,4.4-3.9c2.5-2.5,2.3-4.3,2.3-4.3s0.1,5.8-1.9,7.9s-3.5,4.7-5.8,7.7
		c-1.9,2.5-5.8,1.8-7.1,5.1s-1,5.8-3.3,7.2s-12.5,3.1-15.3,1.3s-4.6-3.6-6.4-5.3c-1.8-1.6-3.6-3-4.4-3.3c-0.8-0.3-3.3-1.8-4.8-6.1
		C45.1,88.4,40.5,81.5,40.5,81.5z"/>
</g>
<path class="st2" d="M42,39.8c0,0-7.6,10.9-4.3,27.6l-1.3,10.3c-0.2,1.5-0.1,3,0.4,4.4l1.9,6.1l1.3,12.1c0.2,2.1,1.3,4.1,3,5.4
	l13.8,9.9"/>
<path class="st2" d="M91.1,40.8c0,0,5.2,20.7,5.2,25.6c0,4.9,2.3,9.9,2.3,9.9s-1.3,20.7-1.3,24S88,111.2,88,111.2"/>
<path class="st2" d="M46.6,97.6c0,0,9.6,19.8,13.5,21.1s19.1,0,19.1,0s5.3-5.3,5.9-9.9"/>
<polyline class="st3" points="42.1,61.7 47.4,57 59.7,60.4 "/>
<path class="st3" d="M72.3,59.1c0,0,9.6-4.4,10.2-4.3c0.6,0.2,7.7,5.2,7.7,5.2"/>
<path class="st2" d="M62.3,57.9c0,0-1.2,12-2.8,14.3"/>
<path class="st2" d="M57.6,75.6c0,0-1.5,1.6,0.3,4.1"/>
<path class="st2" d="M60.5,79.3c0,0,1.2,4.6,5.7,4.6s5.8-3.1,5.8-3.1l3.2-0.8c0,0,0.7-2.3-0.8-3.6"/>
<path class="st2" d="M44.9,35.2c0,0,3.2-7.7,18.2-8.6c15.7-1,22.9,7,22.9,7"/>
<g id="eyes">
	<ellipse transform="matrix(0.9942 -0.1074 0.1074 0.9942 -6.3068 8.9901)" cx="80.3" cy="63" rx="4.3" ry="2"/>
	<ellipse transform="matrix(0.9942 -0.1074 0.1074 0.9942 -6.7102 5.9315)" cx="51.7" cy="65.3" rx="4.3" ry="2"/>
</g>
<line class="st2" x1="70" y1="62.6" x2="72.8" y2="65.9"/>
<path class="st2" d="M82.8,82.8c0,0,2,1.8,2.1,3.3c0.1,1.5-0.5,3.9-0.5,3.9"/>
<polyline class="st2" points="86.8,64.3 88.5,65.6 92,65.9 "/>
<path class="st2" d="M40.1,72.1c0.5-0.2,3.7-0.3,4.9-1.8"/>
<path class="st2" d="M50.6,88.2c0,0-1.6,3.8-0.8,4.9c0.8,1,2.1,3.4,2.1,3.4"/>
<g id="lips">
	<path class="st2" d="M53.3,91.9l14.4-0.6c0.3,0,0.7-0.1,1-0.1l13.3-2.9">
		 <animate attributeName="d" calcMode="spline" keySplines="0.42 0 0.58 1; 0.42 0 0.58 1; 0.42 0 0.58 1" begin="0s" dur="0.6s" repeatCount="indefinite" values="
                          M53.3,91.9l14.4-0.6c0.3,0,0.7-0.1,1-0.1l13.3-2.9
                          ;
                          M53.4,91.9l14.4-0.6c0.3,0,0.7-0.1,1-0.1l13.3-3.9
                          ;
                          M53.3,91.9l14.4-0.6c0.3,0,0.7-0.1,1-0.1l13.3-2.9
                          ;
                          M53.4,91.9l14.4-0.6c0.3,0,0.7-0.1,1-0.1l13.3-3.9
                          " />
	</path>
</g>
<path class="st2" d="M58.2,95.3c0.9,0,13.2,1.7,18.9-2.5"/>
<line class="st2" x1="44.9" y1="109.3" x2="46.1" y2="120.4"/>
<line class="st2" x1="93.8" y1="108.7" x2="92.3" y2="129.9"/>
<path class="st2" d="M51.4,44.1c0,0,19.2-3.2,26.2-1.9"/>
<line class="st2" x1="85.2" y1="67.4" x2="88.8" y2="70.2"/>
<line class="st2" x1="44.7" y1="67.5" x2="41.3" y2="69"/>
<line class="st2" x1="73.3" y1="72.9" x2="79" y2="79.1"/>
<g id="hair">
	<path class="st2" d="M29.4,78.9c0,0-3.6,2.5-6,12.3s0.6,17.4,3.3,21.8c2.7,4.4-2.8,9,0,14.2"/>
	<path class="st2" d="M107.8,62.8c0,0,9.5,5.4,4.4,19.8c-5.1,14.4-1.1,19.7,1,22.1"/>
	<path class="st2" d="M62.7,23.9c0,0-4.8-5.6-11.3-2.1s-7.7,6.9-7.7,6.9"/>
	<path class="st2" d="M64.3,24.4c0,0,5.9-4.8,13.3-3.8c0,0,8.4,0.5,15.5,8.1s9.5,17.9,10.2,19.7c0.7,1.8,3.5,8.9,1.3,14.3"/>
	<path class="st2" d="M41.4,30.3c0,0-13.8,5.4-11.5,17.4S29.2,69.6,29.2,71"/>
	<path class="st2" d="M113.8,107.5c0,0,6.7,6.4-0.3,14.8"/>
	<path class="st2" d="M31.8,71.8c0,0,2.5,7.2-1.2,13.6C27.1,91.9,31,96.8,31,96.8"/>
	<path class="st2" d="M34.7,101.2c0,0,2,1.2,0.7,5.4c-1.2,4.2-2.5,7.2,0.5,10.1"/>
	<path class="st2" d="M58.8,27c0,0-3.7-2.7-7.2-1.7"/>
	<path class="st2" d="M100.2,53.2c0,0-2.5,6.9,0.2,12.3c2.7,5.4,6.4,8.9,2.7,18"/>
	<path class="st2" d="M100.8,100.7c0,0-2.6,9.5,1.6,14.1c4.3,4.6,0.7,8.5,0.7,8.5"/>
</g>
</svg>
