<?xml version="1.0" encoding="utf-8"?>
<!-- Generator: Adobe Illustrator 21.1.0, SVG Export Plug-In . SVG Version: 6.00 Build 0)  -->
<svg version="1.1" id="Layer_1" xmlns="http://www.w3.org/2000/svg" xmlns:xlink="http://www.w3.org/1999/xlink" x="0px" y="0px"
	 viewBox="0 0 100 100" style="enable-background:new 0 0 100 100;" xml:space="preserve">
<style type="text/css">
	.st0{fill-rule:evenodd;clip-rule:evenodd;}
</style>
<g>
	<g>
		<path class="st0" d="M96.1,75.5c-0.8-0.2-1.7-0.4-2.5-0.5c-1.7-0.2-3.4-0.4-5.1-0.9c-3.5-1.1-7.1-1.8-10.8-2.2
			c-0.7-0.1-1.4-0.1-2.1-0.2c0.1-1.5,0.1-3,0.2-4.5c0-0.2,0.2-0.3,0.3-0.4c2.5-2,4.9-4,7.4-6.1c0.3-0.3,0.7-0.5,1.1-0.6
			c0.6-0.3,1-0.8,0.9-1.5c-0.1-0.9-1.1-1.4-2-1c-0.6,0.3-1.2,0.6-1.2,1.4c-1.7,1.5-4,2.6-5.8,4.1c-0.1,0.1-0.2,0.2-0.4,0.3
			c0.2-2.1,0.3-4,0.4-6c0-0.4,0.2-0.5,0.6-0.6c3.5-0.9,6.9-1.7,10.4-2.6c1.3-0.3,2.7-0.7,4-1.2c0.8-0.3,1.1-1,0.9-1.7
			c-0.3-0.7-1-1-1.8-0.8c-3.2,0.9-6.5,1.8-9.7,2.6c-1.3,0.4-2.7,0.6-4,1c0-0.1,0-0.2,0-0.3c0-2.3-0.2-3.8-0.2-6.1
			c0-0.2,0.5-1,0.5-1.6c0-1.2-1.4-1.4-2-1.4c-0.6,0-1.5,0.3-1.5,1.9c-0.1,1.5,0.5,2.1,0.5,2.1c-0.1,2.5,0,3.2,0,5.7
			c0,0.3-0.1,0.4-0.4,0.5c-6.3,1.6-12.6,3.3-19,4.9c-0.1,0-0.3,0.1-0.5,0.1c0.2-0.3,0.4-0.6,0.6-0.8c0.4-0.7,0.3-1.5-0.2-1.9
			c-0.6-0.4-1.4-0.3-1.9,0.3c-0.1,0.1-0.2,0.2-0.3,0.4c-0.6,0.9-1.2,1.8-1.8,2.7c-0.1,0.2-0.3,0.3-0.5,0.4c-1,0.3-2,0.5-3.1,0.8
			c-0.1,0-0.2,0-0.4,0c0.8-1.4,1.6-2.6,2.3-3.9c0.4-0.7,0.8-1.3,1.1-2c0.4-0.8,0.1-1.5-0.6-1.9c-0.7-0.3-1.4-0.1-1.8,0.6
			c-1.3,2.2-2.6,4.4-3.9,6.7c0,0.1-0.1,0.1-0.2,0.3c-0.1-0.5-0.2-1-0.2-1.5c-0.1-1.2-0.3-2.3-0.4-3.5c0-0.8-0.4-1.4-1-1.5
			c-0.7-0.1-1.4,0.2-1.6,1c-0.1,0.4-0.2,0.9-0.1,1.4c0.1,1,0.3,2,0.4,3c0.1,1,0.3,1.9,0.5,2.9c-1.1,0.4-2.2,0.7-3.3,1
			c0-0.1,0-0.1,0-0.2c-0.1-1.3-0.8-2.1-0.9-3.4c-0.1-1,0.3-2.3,0.3-3.3c0-0.8-0.4-1.4-1-1.5c-0.7-0.1-1.4,0.2-1.6,1
			c-0.1,0.5-0.2,1.1-0.1,1.6c0.2,2.1,0.5,4.2,0.7,6.2c0,0.3,0,0.5-0.4,0.5c-1.4,0.4-2.7,0.8-4.1,1.2c-0.9,0.3-1.9,0.5-2.9,0.7
			c-0.8,0.2-1.6,0.4-2.4,0.6c-0.7,0.2-1.1,0.8-1,1.5c0.1,0.7,0.7,1.1,1.4,1.2c0.3,0,0.6,0,0.8-0.1c3.5-1.6,5.9-1.9,8.3-2.3
			c0.2,0,0.3-0.1,0.5-0.1c0,0.1,0.1,0.2,0.1,0.3c0.3,1.8,0.6,3.6,1,5.4c0.5,1.9,1,3.9,1.6,5.8c0.2,0.8,0.9,1.1,1.6,1
			c0.7-0.1,1.1-0.7,1.1-1.5c-0.1-2.3,0.5-4.6,1.1-6.8c0.1-0.5,0.3-0.9,0.5-1.4c0.3,0.7,0.4,1.4,0.6,2.1c0.5,1.6,1,3.3,1.6,4.9
			c0.3,0.8,1,1.1,1.7,1c0.7-0.1,1.1-0.6,1.3-1.5c0-0.1,0-0.2,0-0.3c0.2-1.5,0.4-3,0.7-4.5c0.2-1.1,0.6-2.1,0.9-3.1
			c0.6,0.1,1,0.2,1.5,0.3c-0.3,0.8-0.5,1.5-0.8,2.3c-0.4,1.4-0.8,2.8-0.6,4.3c0.1,1,0.8,1.8,1.9,1.9c0.5,0.1,1.2,0.1,1.7,0
			c2.8-0.9,5.2-2.6,7-4.9c0.8-1,0.6-2.2-0.1-3.2c-1.1-1.4-2.5-2.3-4.2-2.7c-0.2,0-0.4-0.1-0.7-0.2c0.7-1.1,1.4-2.1,2.1-3
			c0.3-0.4,0.5-0.8,0.3-1.3c-0.1-0.3-0.4-0.6-0.6-0.9c5.7-1.5,11.4-3,17.1-4.5c0,0.2,0,0.3,0,0.4c-0.2,2.3-0.3,4.6-0.5,6.9
			c0,0.5-0.2,0.9-0.6,1.2c-0.3,0.2-0.5,0.4-0.8,0.6c-2.6,1.9-5.2,3.7-8.1,4.9c-0.1,0.1-0.3,0.1-0.5,0.2c0-0.5,0-1,0-1.5
			c0-0.1,0.1-0.2,0.2-0.3c1.3-1.3,2.7-2.4,4.7-2.3c0.9,0,1.5-0.6,1.5-1.4c0-0.8-0.7-1.3-1.6-1.3c-1.6,0-3.1,0.5-4.5,1.4
			c-0.1,0-0.1,0.1-0.2,0.1c-0.2,0.5-0.1,0.3,0-0.2c0.2-0.8,0-1.7,0-2.5c0-0.9-0.6-1.5-1.4-1.5c-0.8,0-1.3,0.6-1.3,1.5
			c0,2.5-0.1,5,0,7.5c0,2.4,0,4.8,0,7.1c0,0.8,0.6,1.4,1.4,1.4c0.7,0,1.3-0.6,1.3-1.4c0-0.5,0-1,0-1.5c0-0.8,0-1.5,0-2.3
			c3.2-0.1,6.4-0.2,9.6-0.2c0,0.3,0,0.5,0,0.8c0,0.8,0.1,1.5,0.2,2.3c0.1,0.7,0.7,1.2,1.5,1.1c0.7-0.1,1.2-0.6,1.2-1.4
			c0-0.3,0-0.6,0-0.9c0-0.6,0-1.1,0-1.7c0,0,0.1,0,0.1,0c0.6,0.1,1.1,0.1,1.7,0.2c4.2,0.4,4.9,0.5,9.1,1.2c1.6,0.5,2.4,0.7,4,1
			c1.1,0.2,1.9,0.8,3,1c0.2,0,0.4,0.3,0.5,0.5c0.4,0.5,2.1,0.6,2.7,0.4c0.6-0.2,0.9-0.8,0.8-1.5C97.5,76.3,97,75.8,96.1,75.5z
			 M38.9,72.3c-0.1-0.6-0.3-1.3-0.4-2c-0.2-1-0.3-1.9-0.5-2.9c-0.1-0.3,0-0.5,0.3-0.6c0.8-0.2,1.7-0.5,2.5-0.8
			c0.1,0,0.2-0.1,0.3-0.1C40.5,68.1,39.7,70.2,38.9,72.3z M45.5,71.9c0-0.2-0.1-0.3-0.1-0.5c-0.3-1.7-0.7-3.4-1-5.2
			c-0.1-0.5,0.4-1.3,0.9-1.4c1.1-0.3,2.1-0.6,3.3-0.9C47.3,66.6,46.3,69.2,45.5,71.9z M50.2,66.9c0.5-1,1-1.9,1.4-2.8
			c0.3-0.7,0.8-1.1,1.6-1.2c0.5-0.1,1-0.2,1.4-0.3c-0.8,1.4-1.7,2.9-2.5,4.3c-0.1,0.1-0.2,0.2-0.4,0.2C51.2,67,50.7,66.9,50.2,66.9z
			 M57.3,71.5c0.2,0.2,0.2,0.4,0,0.6c-1.4,1.4-2.9,2.5-4.7,3.3c-0.2,0.1-0.4,0.1-0.8,0.2c0.1-0.7,0.1-1.3,0.3-1.8
			c0.4-1.2,0.8-2.4,1.3-3.7c0.1-0.3,0.3-0.3,0.5-0.3C55.3,70,56.4,70.5,57.3,71.5z M73,71.6h-3.6c1.2-0.8,2.4-1.6,3.6-2.4V71.6z
			 M26.2,44.7c-0.1,0.2-0.1,0.3-0.1,0.4c-0.6,1.3-0.8,2.7-0.8,4.1c0.1,1.4,1,2.5,2.4,2.8c1.1,0.2,2,0,3-0.6c1.5-0.9,2.7-2.1,3.5-3.6
			c0.9-1.7,0.6-3.5-1.4-4.5c-0.6-0.3-1.2-0.5-1.8-0.8c-0.2-0.1-0.4-0.1-0.7-0.2c0.6-1.1,1.2-2.1,1.8-3.1c0.4-0.7,0.4-1.4-0.1-1.9
			c-0.5-0.5-1.3-0.4-1.9,0.1c-0.3,0.3-0.5,0.6-0.7,1c-0.5,1-1,2-1.5,3c-0.3,0.6-0.3,0.6-1,0.5c0-0.1,0.1-0.2,0.1-0.3
			c0.4-1,0-2-0.9-2.6c-0.5-0.3-1-0.4-1.5-0.5c-1.3-0.1-2.6,0-3.9,0c-0.3,0-3,0.9-3.3,0.9c0-0.1,0.5-1,0.5-1c1.8-1.6,5.7-3.2,7.5-4.7
			c0.6-0.5,0.8-1.1,0.5-1.7c-0.3-0.6-0.9-0.9-1.6-0.7c-0.2,0-0.4,0.1-0.6,0.1c-2.1,0.3-4.2,0.5-6.4,0.8c-0.7,0.1-1.5,0.2-2.3,0.3
			c0.4-1,0.9-2,1.2-3.5c0.5-1.4,1.7-2,2.2-3.2c0.3-0.8-0.2-2.1-0.9-2.2c-0.7-0.2-2-1-2.6,0.7c-0.1,0.2,0.1,1.8,0,2
			c-1.1,2.4-1.8,3.8-2.9,6.3c-0.1,0.2-0.2,0.4-0.5,0.4c-1.9,0.3-3.9,1.9-5.2,0.4c0-0.1-0.1-0.5-1.3-0.3c-0.6,0.1-1,0.7-1.1,1.3
			c-0.1,0.5,0,1,0.5,1.3c0.3,0.2,0.7,0.3,1,0.4c1.2,0,2.2-0.6,3.4-0.6c0.5,0,1.5,0,2,0c0,0.1-0.4,0.6-0.4,0.7
			C8,41.5,5.7,46.8,3.5,52c-0.1,0.1-0.3,0-0.4,0.1c-0.6,0.4-1,1.3-1,2c0,0.7,0.9,1.4,1.5,1.5c0.6,0.2,1.5,0.4,2.1-0.9
			c0.2-0.6,0-0.8,0.1-1.1c2.5-5.9,5-11.8,7.5-17.7c0.1-0.3,0.3-0.5,0.7-0.5c1.3-0.2,2.6-0.3,3.9-0.5c0.6-0.1,1.3-0.1,1.9-0.2
			c-1.4,1.3-2.7,2.6-4.4,3.5c-0.4,0.2-0.9,0.4-1.3,0.6c-0.8,0.3-1.2,0.8-1.1,1.5c0.1,0.7,0.3,1.7,1.2,1.7c2.4,0.4,3-0.6,4.3-0.6
			c1.7-0.1,3.3-0.1,5.1-0.2c-0.1,0.2-0.1,0.2-0.1,0.2c-2,1.9-4.1,3.8-6.3,5.4c-1.4,1-2.8,1.8-4.5,2.1c-0.4,0.1-0.8,0.1-1.2,0.2
			c-0.6,0.2-1,0.7-1,1.4c0,0.6,0.5,1.1,1.1,1.2c0.3,0,0.6,0,0.9,0c1.7-0.2,3.2-0.8,4.7-1.6c2.3-1.3,4.2-3,6.2-4.7
			c0.5-0.4,0.9-0.8,1.6-0.7C25.2,44.8,25.7,44.7,26.2,44.7z M29.1,44.8c0.8,0.3,1.6,0.6,2.4,0.9c0.4,0.2,0.4,0.5,0.3,0.8
			c-0.1,0.1-0.1,0.3-0.2,0.4c-0.6,0.9-1.3,1.7-2.3,2.2c-0.1,0.1-0.3,0.1-0.4,0.2c-0.7,0.2-0.9,0-0.9-0.7
			C28,47.3,28.5,46.1,29.1,44.8z M52.6,38.2c-1.3,0.7-2.6,1.4-3.9,2.2c-1.6,0.9-3,2-4.3,3.4c-0.6,0.6-1.1,1.2-1.4,2
			c-0.5,1.4-0.2,2.7,1,3.6c0.7,0.5,1.5,0.9,2.3,1.1c1.5,0.5,3.2,0.5,4.8,0.5c0.5,0,1.1,0,1.7,0c-0.1,0.4-0.1,0.7-0.3,1
			c-0.6,0.9-0.2,2,0.9,2.2c1,0.2,1.8-0.5,1.9-1.6c0.1-0.6,0.1-1.1,0.1-1.7c0.9-0.1,1.8-0.2,2.7-0.4c2.4-0.4,4.8-0.7,7.2-1.1
			c0.9-0.1,1.9-0.2,2.8-0.3c1.3-0.1,2-1.3,1.3-2.5c-0.2-0.4-0.5-0.7-0.9-0.9c-0.7-0.5-1.7-0.2-2,0.6c-0.1,0.1-0.2,0.3-0.4,0.3
			c-2.8,0.4-5.6,0.9-8.4,1.3c-0.7,0.1-1.5,0.2-2.2,0.3c0-2.8,0-5.5,0-8.2c0-0.1,0.1-0.2,0.2-0.3c0.9-0.3,1.7-0.6,2.6-0.8
			c0.7-0.1,1.5,0,2.3-0.1c0.1,0,0.3,0,0.4,0c0.8,0,1.8,0,2.3-1.4c0.4-1.1-0.5-2.1-1.9-2.2c-1.6,0-3.5,0.7-5.1,1.3
			c-0.2,0.1-0.5,0.2-0.8,0.2c0-0.2,0-0.2,0-0.3c0.1-4.9,0.1-9.7,0.6-14c0.1-0.6,0.3-2.3-1.4-2.6c-1.2-0.1-2.3,0.3-2.5,1
			c-0.2,0.3-0.3,1.8,0,2c0.4,1.4,0.8,2.4,0.8,4c-0.1,3.5-0.1,7.1-0.2,10.6C53,37.9,52.9,38,52.6,38.2z M52.9,48.3
			c-0.6,0-1.2,0-1.8,0c-1.3-0.1-2.7,0-3.9-0.4c-0.4-0.1-0.9-0.4-1.3-0.6c-0.4-0.2-0.5-0.4-0.2-0.8c0.4-0.5,0.8-1,1.2-1.4
			c1.5-1.4,3.2-2.4,5-3.4c0.3-0.2,0.7-0.4,1.1-0.6V48.3z M35.4,40.4c0.5,1.9,1,3.7,1.5,5.6c0.1,0.4,0,0.6-0.2,0.9
			c-2.8,4.3-5.5,8.8-7.8,13.4c-0.5,1.1-1.1,2.1-1.7,3.1c-0.5,0.8,0,1.8,0.9,1.9c0.6,0.1,1.1-0.1,1.5-0.6c0.3-0.4,0.5-0.8,0.7-1.2
			c2.3-4.6,4.8-9.1,7.6-13.4c0.1-0.1,0.2-0.3,0.3-0.5c0.2,0.2,0.3,0.4,0.5,0.5c0.6,0.5,1.5,0.5,2-0.1c0.6-0.7,0.5-2.1-0.2-2.7
			c-0.4-0.3-0.4-0.6-0.2-1c1.3-2.3,2.6-4.5,3.9-7.1c0.4-0.7,1.1-0.9,1.6-1.4c0.6-0.7-0.1-2.1-0.8-2.6c-0.7-0.5-2.2-0.3-2.5,0.5
			c-0.2,0.5,0,1.1-0.3,1.6c-0.9,1.7-1.9,3.5-2.8,5.2c-0.1,0.1-0.2,0.2-0.2,0.3c-0.5-1.6-1.2-2.6-1.8-4.2c-0.1-0.4-0.1-1.4-0.4-1.8
			c-0.5-0.6-1-1.5-2.1-0.7c-1.3,0.9-0.8,1.8-0.5,2.5C34.5,39.6,35.2,39.8,35.4,40.4z M5.6,30.7c0.7,0.1,1.3-0.3,1.6-1
			c0.1-0.3,0.1-0.6,0.2-1c0,0,0,0,0,0c0-0.1,0-0.3,0-0.4C7.3,27.5,6.7,27,6,26.9c-0.8-0.1-1.5,0.4-1.6,1.2c-0.1,0.5-0.1,1,0,1.4
			C4.5,30.2,5,30.7,5.6,30.7z M10.9,27.9c0.7-0.2,1.1-0.9,1.1-1.6c0-0.8-0.4-1.5-1-1.7c-0.6-0.2-1.2,0-1.7,0.5
			c-0.5,0.6-0.6,1.7-0.1,2.4C9.7,28,10.3,28.1,10.9,27.9z M50.9,43.6c-0.7,0-1.3,0.5-1.3,1.2c0,0.7,0.5,1.3,1.2,1.3
			c0.7,0,1.3-0.5,1.3-1.3C52.2,44.2,51.6,43.6,50.9,43.6z"/>
	</g>
</g>
</svg>
