<?xml version="1.0" encoding="utf-8"?>
<!-- Generator: Adobe Illustrator 21.1.0, SVG Export Plug-In . SVG Version: 6.00 Build 0)  -->
<svg version="1.1" id="boydwork" xmlns="http://www.w3.org/2000/svg" xmlns:xlink="http://www.w3.org/1999/xlink" x="0px" y="0px"
	 viewBox="0 0 95.8 60.7" style="enable-background:new 0 0 95.8 60.7;" xml:space="preserve">
<g id="signature">
	<path d="M94,55.7c-0.8-0.2-1.7-0.4-2.5-0.5c-1.7-0.2-3.4-0.4-5.1-0.9c-3.5-1.1-7.1-1.8-10.8-2.2c-0.7-0.1-1.4-0.1-2.1-0.2
		c0.1-1.5,0.1-3,0.2-4.5c0-0.2,0.2-0.3,0.3-0.4c2.5-2,4.9-4,7.4-6.1c0.3-0.3,0.7-0.5,1.1-0.6c0.6-0.3,1-0.8,0.9-1.5
		c-0.1-0.9-1.1-1.4-2-1c-0.6,0.3-1.2,0.6-1.2,1.4c-1.7,1.5-4,2.6-5.8,4.1c-0.1,0.1-0.2,0.2-0.4,0.3c0.2-2.1,0.3-4,0.4-6
		c0-0.4,0.2-0.5,0.6-0.6c3.5-0.9,6.9-1.7,10.4-2.6c1.3-0.3,2.7-0.7,4-1.2c0.8-0.3,1.1-1,0.9-1.7c-0.3-0.7-1-1-1.8-0.8
		c-3.2,0.9-6.5,1.8-9.7,2.6c-1.3,0.4-2.7,0.6-4,1c0-0.1,0-0.2,0-0.3c0-2.3-0.2-3.8-0.2-6.1c0-0.2,0.5-1,0.5-1.6c0-1.2-1.4-1.4-2-1.4
		s-1.5,0.3-1.5,1.9c-0.1,1.5,0.5,2.1,0.5,2.1c-0.1,2.5,0,3.2,0,5.7c0,0.3-0.1,0.4-0.4,0.5c-6.3,1.6-12.6,3.3-19,4.9
		c-0.1,0-0.3,0.1-0.5,0.1c0.2-0.3,0.4-0.6,0.6-0.8c0.4-0.7,0.3-1.5-0.2-1.9c-0.6-0.4-1.4-0.3-1.9,0.3c-0.1,0.1-0.2,0.2-0.3,0.4
		c-0.6,0.9-1.2,1.8-1.8,2.7c-0.1,0.2-0.3,0.3-0.5,0.4c-1,0.3-2,0.5-3.1,0.8c-0.1,0-0.2,0-0.4,0c0.8-1.4,1.6-2.6,2.3-3.9
		c0.4-0.7,0.8-1.3,1.1-2c0.4-0.8,0.1-1.5-0.6-1.9c-0.7-0.3-1.4-0.1-1.8,0.6c-1.3,2.2-2.6,4.4-3.9,6.7c0,0.1-0.1,0.1-0.2,0.3
		c-0.1-0.5-0.2-1-0.2-1.5c-0.1-1.2-0.3-2.3-0.4-3.5c0-0.8-0.4-1.4-1-1.5c-0.7-0.1-1.4,0.2-1.6,1c-0.1,0.4-0.2,0.9-0.1,1.4
		c0.1,1,0.3,2,0.4,3c0.1,1,0.3,1.9,0.5,2.9c-1.1,0.4-2.2,0.7-3.3,1c0-0.1,0-0.1,0-0.2c-0.1-1.3-0.8-2.1-0.9-3.4
		c-0.1-1,0.3-2.3,0.3-3.3c0-0.8-0.4-1.4-1-1.5c-0.7-0.1-1.4,0.2-1.6,1c-0.1,0.5-0.2,1.1-0.1,1.6c0.2,2.1,0.5,4.2,0.7,6.2
		c0,0.3,0,0.5-0.4,0.5c-1.4,0.4-2.7,0.8-4.1,1.2c-0.9,0.3-1.9,0.5-2.9,0.7c-0.8,0.2-1.6,0.4-2.4,0.6c-0.7,0.2-1.1,0.8-1,1.5
		s0.7,1.1,1.4,1.2c0.3,0,0.6,0,0.8-0.1c3.5-1.6,5.9-1.9,8.3-2.3c0.2,0,0.3-0.1,0.5-0.1c0,0.1,0.1,0.2,0.1,0.3c0.3,1.8,0.6,3.6,1,5.4
		c0.5,1.9,1,3.9,1.6,5.8c0.2,0.8,0.9,1.1,1.6,1c0.7-0.1,1.1-0.7,1.1-1.5c-0.1-2.3,0.5-4.6,1.1-6.8c0.1-0.5,0.3-0.9,0.5-1.4
		c0.3,0.7,0.4,1.4,0.6,2.1c0.5,1.6,1,3.3,1.6,4.9c0.3,0.8,1,1.1,1.7,1s1.1-0.6,1.3-1.5c0-0.1,0-0.2,0-0.3c0.2-1.5,0.4-3,0.7-4.5
		c0.2-1.1,0.6-2.1,0.9-3.1c0.6,0.1,1,0.2,1.5,0.3c-0.3,0.8-0.5,1.5-0.8,2.3c-0.4,1.4-0.8,2.8-0.6,4.3c0.1,1,0.8,1.8,1.9,1.9
		c0.5,0.1,1.2,0.1,1.7,0c2.8-0.9,5.2-2.6,7-4.9c0.8-1,0.6-2.2-0.1-3.2c-1.1-1.4-2.5-2.3-4.2-2.7c-0.2,0-0.4-0.1-0.7-0.2
		c0.7-1.1,1.4-2.1,2.1-3c0.3-0.4,0.5-0.8,0.3-1.3c-0.1-0.3-0.4-0.6-0.6-0.9c5.7-1.5,11.4-3,17.1-4.5c0,0.2,0,0.3,0,0.4
		c-0.2,2.3-0.3,4.6-0.5,6.9c0,0.5-0.2,0.9-0.6,1.2c-0.3,0.2-0.5,0.4-0.8,0.6c-2.6,1.9-5.2,3.7-8.1,4.9c-0.1,0.1-0.3,0.1-0.5,0.2
		c0-0.5,0-1,0-1.5c0-0.1,0.1-0.2,0.2-0.3c1.3-1.3,2.7-2.4,4.7-2.3c0.9,0,1.5-0.6,1.5-1.4s-0.7-1.3-1.6-1.3c-1.6,0-3.1,0.5-4.5,1.4
		c-0.1,0-0.1,0.1-0.2,0.1c-0.2,0.5-0.1,0.3,0-0.2c0.2-0.8,0-1.7,0-2.5c0-0.9-0.6-1.5-1.4-1.5c-0.8,0-1.3,0.6-1.3,1.5
		c0,2.5-0.1,5,0,7.5c0,2.4,0,4.8,0,7.1c0,0.8,0.6,1.4,1.4,1.4c0.7,0,1.3-0.6,1.3-1.4c0-0.5,0-1,0-1.5c0-0.8,0-1.5,0-2.3
		c3.2-0.1,6.4-0.2,9.6-0.2c0,0.3,0,0.5,0,0.8c0,0.8,0.1,1.5,0.2,2.3c0.1,0.7,0.7,1.2,1.5,1.1c0.7-0.1,1.2-0.6,1.2-1.4
		c0-0.3,0-0.6,0-0.9c0-0.6,0-1.1,0-1.7H74c0.6,0.1,1.1,0.1,1.7,0.2c4.2,0.4,4.9,0.5,9.1,1.2c1.6,0.5,2.4,0.7,4,1
		c1.1,0.2,1.9,0.8,3,1c0.2,0,0.4,0.3,0.5,0.5c0.4,0.5,2.1,0.6,2.7,0.4s0.9-0.8,0.8-1.5C95.4,56.5,94.9,56,94,55.7z M36.8,52.5
		c-0.1-0.6-0.3-1.3-0.4-2c-0.2-1-0.3-1.9-0.5-2.9c-0.1-0.3,0-0.5,0.3-0.6c0.8-0.2,1.7-0.5,2.5-0.8c0.1,0,0.2-0.1,0.3-0.1
		C38.4,48.3,37.6,50.4,36.8,52.5z M43.4,52.1c0-0.2-0.1-0.3-0.1-0.5c-0.3-1.7-0.7-3.4-1-5.2c-0.1-0.5,0.4-1.3,0.9-1.4
		c1.1-0.3,2.1-0.6,3.3-0.9C45.2,46.8,44.2,49.4,43.4,52.1z M48.1,47.1c0.5-1,1-1.9,1.4-2.8c0.3-0.7,0.8-1.1,1.6-1.2
		c0.5-0.1,1-0.2,1.4-0.3c-0.8,1.4-1.7,2.9-2.5,4.3c-0.1,0.1-0.2,0.2-0.4,0.2C49.1,47.2,48.6,47.1,48.1,47.1z M55.2,51.7
		c0.2,0.2,0.2,0.4,0,0.6c-1.4,1.4-2.9,2.5-4.7,3.3c-0.2,0.1-0.4,0.1-0.8,0.2c0.1-0.7,0.1-1.3,0.3-1.8c0.4-1.2,0.8-2.4,1.3-3.7
		c0.1-0.3,0.3-0.3,0.5-0.3C53.2,50.2,54.3,50.7,55.2,51.7z M70.9,51.8h-3.6c1.2-0.8,2.4-1.6,3.6-2.4V51.8z M24.1,24.9
		C24,25.1,24,25.2,24,25.3c-0.6,1.3-0.8,2.7-0.8,4.1c0.1,1.4,1,2.5,2.4,2.8c1.1,0.2,2,0,3-0.6c1.5-0.9,2.7-2.1,3.5-3.6
		c0.9-1.7,0.6-3.5-1.4-4.5c-0.6-0.3-1.2-0.5-1.8-0.8c-0.2-0.1-0.4-0.1-0.7-0.2c0.6-1.1,1.2-2.1,1.8-3.1c0.4-0.7,0.4-1.4-0.1-1.9
		c-0.5-0.5-1.3-0.4-1.9,0.1c-0.3,0.3-0.5,0.6-0.7,1c-0.5,1-1,2-1.5,3c-0.3,0.6-0.3,0.6-1,0.5c0-0.1,0.1-0.2,0.1-0.3
		c0.4-1,0-2-0.9-2.6c-0.5-0.3-1-0.4-1.5-0.5c-1.3-0.1-2.6,0-3.9,0c-0.3,0-3,0.9-3.3,0.9c0-0.1,0.5-1,0.5-1c1.8-1.6,5.7-3.2,7.5-4.7
		c0.6-0.5,0.8-1.1,0.5-1.7c-0.3-0.6-0.9-0.9-1.6-0.7c-0.2,0-0.4,0.1-0.6,0.1c-2.1,0.3-4.2,0.5-6.4,0.8c-0.7,0.1-1.5,0.2-2.3,0.3
		c0.4-1,0.9-2,1.2-3.5c0.5-1.4,1.7-2,2.2-3.2c0.3-0.8-0.2-2.1-0.9-2.2c-0.7-0.2-2-1-2.6,0.7c-0.1,0.2,0.1,1.8,0,2
		c-1.1,2.4-1.8,3.8-2.9,6.3c-0.1,0.2-0.2,0.4-0.5,0.4c-1.9,0.3-3.9,1.9-5.2,0.4c0-0.1-0.1-0.5-1.3-0.3c-0.6,0.1-1,0.7-1.1,1.3
		c-0.1,0.5,0,1,0.5,1.3c0.3,0.2,0.7,0.3,1,0.4c1.2,0,2.2-0.6,3.4-0.6c0.5,0,1.5,0,2,0c0,0.1-0.4,0.6-0.4,0.7
		C5.9,21.7,3.6,27,1.4,32.2c-0.1,0.1-0.3,0-0.4,0.1c-0.6,0.4-1,1.3-1,2s0.9,1.4,1.5,1.5C2.1,36,3,36.2,3.6,34.9
		c0.2-0.6,0-0.8,0.1-1.1c2.5-5.9,5-11.8,7.5-17.7c0.1-0.3,0.3-0.5,0.7-0.5c1.3-0.2,2.6-0.3,3.9-0.5c0.6-0.1,1.3-0.1,1.9-0.2
		c-1.4,1.3-2.7,2.6-4.4,3.5c-0.4,0.2-0.9,0.4-1.3,0.6c-0.8,0.3-1.2,0.8-1.1,1.5s0.3,1.7,1.2,1.7c2.4,0.4,3-0.6,4.3-0.6
		c1.7-0.1,3.3-0.1,5.1-0.2c-0.1,0.2-0.1,0.2-0.1,0.2c-2,1.9-4.1,3.8-6.3,5.4c-1.4,1-2.8,1.8-4.5,2.1c-0.4,0.1-0.8,0.1-1.2,0.2
		c-0.6,0.2-1,0.7-1,1.4c0,0.6,0.5,1.1,1.1,1.2c0.3,0,0.6,0,0.9,0c1.7-0.2,3.2-0.8,4.7-1.6c2.3-1.3,4.2-3,6.2-4.7
		c0.5-0.4,0.9-0.8,1.6-0.7C23.1,25,23.6,24.9,24.1,24.9z M27,25c0.8,0.3,1.6,0.6,2.4,0.9c0.4,0.2,0.4,0.5,0.3,0.8
		c-0.1,0.1-0.1,0.3-0.2,0.4c-0.6,0.9-1.3,1.7-2.3,2.2c-0.1,0.1-0.3,0.1-0.4,0.2c-0.7,0.2-0.9,0-0.9-0.7C25.9,27.5,26.4,26.3,27,25z
		 M50.5,18.4c-1.3,0.7-2.6,1.4-3.9,2.2c-1.6,0.9-3,2-4.3,3.4c-0.6,0.6-1.1,1.2-1.4,2c-0.5,1.4-0.2,2.7,1,3.6
		c0.7,0.5,1.5,0.9,2.3,1.1c1.5,0.5,3.2,0.5,4.8,0.5c0.5,0,1.1,0,1.7,0c-0.1,0.4-0.1,0.7-0.3,1c-0.6,0.9-0.2,2,0.9,2.2
		c1,0.2,1.8-0.5,1.9-1.6c0.1-0.6,0.1-1.1,0.1-1.7c0.9-0.1,1.8-0.2,2.7-0.4c2.4-0.4,4.8-0.7,7.2-1.1c0.9-0.1,1.9-0.2,2.8-0.3
		c1.3-0.1,2-1.3,1.3-2.5c-0.2-0.4-0.5-0.7-0.9-0.9c-0.7-0.5-1.7-0.2-2,0.6c-0.1,0.1-0.2,0.3-0.4,0.3c-2.8,0.4-5.6,0.9-8.4,1.3
		c-0.7,0.1-1.5,0.2-2.2,0.3c0-2.8,0-5.5,0-8.2c0-0.1,0.1-0.2,0.2-0.3c0.9-0.3,1.7-0.6,2.6-0.8c0.7-0.1,1.5,0,2.3-0.1
		c0.1,0,0.3,0,0.4,0c0.8,0,1.8,0,2.3-1.4c0.4-1.1-0.5-2.1-1.9-2.2c-1.6,0-3.5,0.7-5.1,1.3c-0.2,0.1-0.5,0.2-0.8,0.2
		c0-0.2,0-0.2,0-0.3c0.1-4.9,0.1-9.7,0.6-14C54.1,2,54.3,0.3,52.6,0c-1.2-0.1-2.3,0.3-2.5,1c-0.2,0.3-0.3,1.8,0,2
		c0.4,1.4,0.8,2.4,0.8,4c-0.1,3.5-0.1,7.1-0.2,10.6C50.9,18.1,50.8,18.2,50.5,18.4z M50.8,28.5c-0.6,0-1.2,0-1.8,0
		c-1.3-0.1-2.7,0-3.9-0.4c-0.4-0.1-0.9-0.4-1.3-0.6c-0.4-0.2-0.5-0.4-0.2-0.8c0.4-0.5,0.8-1,1.2-1.4c1.5-1.4,3.2-2.4,5-3.4
		c0.3-0.2,0.7-0.4,1.1-0.6L50.8,28.5L50.8,28.5z M33.3,20.6c0.5,1.9,1,3.7,1.5,5.6c0.1,0.4,0,0.6-0.2,0.9c-2.8,4.3-5.5,8.8-7.8,13.4
		c-0.5,1.1-1.1,2.1-1.7,3.1c-0.5,0.8,0,1.8,0.9,1.9c0.6,0.1,1.1-0.1,1.5-0.6c0.3-0.4,0.5-0.8,0.7-1.2c2.3-4.6,4.8-9.1,7.6-13.4
		c0.1-0.1,0.2-0.3,0.3-0.5c0.2,0.2,0.3,0.4,0.5,0.5c0.6,0.5,1.5,0.5,2-0.1c0.6-0.7,0.5-2.1-0.2-2.7c-0.4-0.3-0.4-0.6-0.2-1
		c1.3-2.3,2.6-4.5,3.9-7.1c0.4-0.7,1.1-0.9,1.6-1.4c0.6-0.7-0.1-2.1-0.8-2.6s-2.2-0.3-2.5,0.5c-0.2,0.5,0,1.1-0.3,1.6
		c-0.9,1.7-1.9,3.5-2.8,5.2c-0.1,0.1-0.2,0.2-0.2,0.3c-0.5-1.6-1.2-2.6-1.8-4.2c-0.1-0.4-0.1-1.4-0.4-1.8c-0.5-0.6-1-1.5-2.1-0.7
		c-1.3,0.9-0.8,1.8-0.5,2.5C32.4,19.8,33.1,20,33.3,20.6z M3.5,10.9c0.7,0.1,1.3-0.3,1.6-1c0.1-0.3,0.1-0.6,0.2-1l0,0
		c0-0.1,0-0.3,0-0.4C5.2,7.7,4.6,7.2,3.9,7.1C3.1,7,2.4,7.5,2.3,8.3c-0.1,0.5-0.1,1,0,1.4C2.4,10.4,2.9,10.9,3.5,10.9z M8.8,8.1
		c0.7-0.2,1.1-0.9,1.1-1.6c0-0.8-0.4-1.5-1-1.7s-1.2,0-1.7,0.5C6.7,5.9,6.6,7,7.1,7.7C7.6,8.2,8.2,8.3,8.8,8.1z M48.8,23.8
		c-0.7,0-1.3,0.5-1.3,1.2s0.5,1.3,1.2,1.3S50,25.8,50,25C50.1,24.4,49.5,23.8,48.8,23.8z"/>
</g>
</svg>
