<?xml version="1.0" encoding="utf-8"?>
<!-- Generator: Adobe Illustrator 23.1.1, SVG Export Plug-In . SVG Version: 6.00 Build 0)  -->
<svg version="1.1" id="Layer_1" xmlns="http://www.w3.org/2000/svg" xmlns:xlink="http://www.w3.org/1999/xlink" x="0px" y="0px"
	 viewBox="0 0 300 300" style="enable-background:new 0 0 300 300;" xml:space="preserve">
<style type="text/css">
	.st0{fill:none;stroke:#231F20;stroke-width:4;stroke-miterlimit:10;}
	.st1{fill:#231F20;}
	.st2{fill:none;stroke:#231F20;stroke-width:3.9999;stroke-miterlimit:9.9996;}
</style>
<path class="st0" d="M189.66,130.7v10.1c0,24.19-19.79,43.97-43.97,43.97l0,0c-24.19,0-43.97-19.79-43.97-43.97"/>
<path class="st0" d="M101.22,132.08l0.12-6.35l0.13-6.84l0.11-6.02l0.13-7.17c1.87-26.63,19.79-43.97,43.97-43.97l0,0
	c24.19,0,43.97,19.79,43.97,43.97v9.45"/>
<path class="st1" d="M131.56,96.19c13.23-3.65,10.86-13.69,10.86-13.69s1.46,3.31,5.05,5.3c2.31,1.28,5.49,2.02,9.73,0.98
	c8.53-2.1,7.43-8.98,7.43-8.98s1.35,1.95,4.27,3.12c2.93,1.17,7.43,1.57,13.74-1.54l-3.75-4.43l-12-9.78l-16.79-5.21l-10.46,0.33
	l-12.28,3.14l-10.03,5.98l-6.51,8.31c0,0,1.58,4.65,4.74,9.08c2.07,2.9,4.83,5.71,8.27,7.05C126.1,96.74,128.68,96.99,131.56,96.19z">
	<animate attributeName="d" keySplines="0.42 0 0.58 1; 0.42 0 0.58 1; 0.42 0 0.58 1" begin="0.12s" dur="1.44s" repeatCount="indefinite" values="
                          M139.23,93.58c10.91-3.42,3.19-11.08,3.19-11.08s5.59-1.29,9.18,0.7c2.31,1.28,5.99,3.91,10.87,3.3  c8.53-2.1,2.15-6.7,2.15-6.7s3.27,0.44,6.19,1.61c2.93,1.17,5.51,3.08,11.82-0.03l-3.75-4.43l-12-9.78l-16.79-5.21l-10.46,0.33  l-12.28,3.14l-10.03,5.98l-6.51,8.31c0,0,5.98-0.24,9.14,4.19c2.07,2.9,2.91,5.16,5.76,7.35C129.63,94.24,134.75,95.17,139.23,93.58  z
                          ;
                          M131.56,96.19c13.23-3.65,10.86-13.69,10.86-13.69s1.46,3.31,5.05,5.3c2.31,1.28,5.49,2.02,9.73,0.98
	c8.53-2.1,7.43-8.98,7.43-8.98s1.35,1.95,4.27,3.12c2.93,1.17,7.43,1.57,13.74-1.54l-3.75-4.43l-12-9.78l-16.79-5.21l-10.46,0.33
	l-12.28,3.14l-10.03,5.98l-6.51,8.31c0,0,1.58,4.65,4.74,9.08c2.07,2.9,4.83,5.71,8.27,7.05C126.1,96.74,128.68,96.99,131.56,96.19z
                          ;
                          M139.23,93.58c10.91-3.42,3.19-11.08,3.19-11.08s5.59-1.29,9.18,0.7c2.31,1.28,5.99,3.91,10.87,3.3  c8.53-2.1,2.15-6.7,2.15-6.7s3.27,0.44,6.19,1.61c2.93,1.17,5.51,3.08,11.82-0.03l-3.75-4.43l-12-9.78l-16.79-5.21l-10.46,0.33  l-12.28,3.14l-10.03,5.98l-6.51,8.31c0,0,5.98-0.24,9.14,4.19c2.07,2.9,2.91,5.16,5.76,7.35C129.63,94.24,134.75,95.17,139.23,93.58  z
                          " />
	</path>
<path id="co" class="st0" d="M115.71,106.92c0,0,4.37-0.61,13.02-1.1c3.71-0.21,8.21-0.4,13.48-0.51
	c6.79-0.14,11.89-0.19,17.17,0.13c3.94,0.24,7.98,0.69,12.88,1.48"/>
<path class="st0" d="M121.23,116.69c0.72,0.05,4.18-0.02,7.74-0.11c4.25-0.11,8.63-0.26,8.63-0.26"/>
<path class="st0" d="M167.75,116.68c-0.76,0.06-4.57-0.02-8.33-0.12c-4.06-0.11-8.04-0.23-8.04-0.23"/>
<g id="eyes">
	<path class="st1" d="M124.62,124.88l-0.1-2.1l-0.09-1.9c0,0,2.16-0.1,5.03-0.18c2.84-0.08,5.11-0.19,5.11-0.19l0.1,2.1l0.09,1.9
		c0,0-2.3,0.1-5.17,0.19C126.76,124.78,124.63,124.88,124.62,124.88z">
		<animate attributeName="d" keySplines="0.42 0 0.58 1; 0.42 0 0.58 1; 0.42 0 0.58 1" begin="0.12s" dur="1.44s" repeatCount="indefinite" values="
                          M124.62,124.88l-0.1-2.1l0.53-0.25c0,0,1.69,0.98,4.56,0.9c2.84-0.08,4.64-1.06,4.64-1.06l0.42,0.24l0.09,1.9
		c0,0-2.3,0.1-5.17,0.19C126.76,124.78,124.63,124.88,124.62,124.88z
                          ;
                          M124.62,124.88l-0.1-2.1l-0.09-1.9c0,0,2.16-0.1,5.03-0.18c2.84-0.08,5.11-0.19,5.11-0.19l0.1,2.1l0.09,1.9
		c0,0-2.3,0.1-5.17,0.19C126.76,124.78,124.63,124.88,124.62,124.88z
                          ;
                          M124.62,124.88l-0.1-2.1l-0.09-1.9c0,0,2.16-0.1,5.03-0.18c2.84-0.08,5.11-0.19,5.11-0.19l0.1,2.1l0.09,1.9
		c0,0-2.3,0.1-5.17,0.19C126.76,124.78,124.63,124.88,124.62,124.88z
                          ;
                          M124.62,124.88l-0.1-2.1l-0.09-1.9c0,0,2.16-0.1,5.03-0.18c2.84-0.08,5.11-0.19,5.11-0.19l0.1,2.1l0.09,1.9
		c0,0-2.3,0.1-5.17,0.19C126.76,124.78,124.63,124.88,124.62,124.88z
                          ;
                          M124.62,124.88l-0.1-2.1l-0.09-1.9c0,0,2.16-0.1,5.03-0.18c2.84-0.08,5.11-0.19,5.11-0.19l0.1,2.1l0.09,1.9
		c0,0-2.3,0.1-5.17,0.19C126.76,124.78,124.63,124.88,124.62,124.88z
                          ;
                          M124.62,124.88l-0.1-2.1l-0.09-1.9c0,0,2.16-0.1,5.03-0.18c2.84-0.08,5.11-0.19,5.11-0.19l0.1,2.1l0.09,1.9
		c0,0-2.3,0.1-5.17,0.19C126.76,124.78,124.63,124.88,124.62,124.88z
                          ;
                          M124.62,124.88l-0.1-2.1l-0.09-1.9c0,0,2.16-0.1,5.03-0.18c2.84-0.08,5.11-0.19,5.11-0.19l0.1,2.1l0.09,1.9
		c0,0-2.3,0.1-5.17,0.19C126.76,124.78,124.63,124.88,124.62,124.88z
                          ;
                          M124.62,124.88l-0.1-2.1l0.53-0.25c0,0,1.69,0.98,4.56,0.9c2.84-0.08,4.64-1.06,4.64-1.06l0.42,0.24l0.09,1.9
		c0,0-2.3,0.1-5.17,0.19C126.76,124.78,124.63,124.88,124.62,124.88z
                          " />
	</path>
	<path class="st1" d="M163.91,124.64c0,0-2.5-0.07-4.81-0.17c-2.28-0.1-5.32-0.19-5.33-0.19l0.06-1.99l0.06-2.01
		c0,0,3.08,0.09,5.39,0.19c2.27,0.1,4.73,0.17,4.74,0.17l-0.06,2.3L163.91,124.64z">
		<animate attributeName="d" keySplines="0.42 0 0.58 1; 0.42 0 0.58 1; 0.42 0 0.58 1" begin="0.12s" dur="1.44s" repeatCount="indefinite" values="
                          M163.91,124.64c0,0-2.5-0.07-4.81-0.17c-2.28-0.1-5.32-0.19-5.33-0.19l0.11-1.58l0.65-0.33
		c0,0,1.93,1.12,4.23,1.22c2.27,0.1,4.56-1.06,4.56-1.06l0.62,0.41L163.91,124.64z
                          ;
                          M163.91,124.64c0,0-2.5-0.07-4.81-0.17c-2.28-0.1-5.32-0.19-5.33-0.19l0.06-1.99l0.06-2.01
		c0,0,3.08,0.09,5.39,0.19c2.27,0.1,4.73,0.17,4.74,0.17l-0.06,2.3L163.91,124.64z
                          ;
                          M163.91,124.64c0,0-2.5-0.07-4.81-0.17c-2.28-0.1-5.32-0.19-5.33-0.19l0.06-1.99l0.06-2.01
		c0,0,3.08,0.09,5.39,0.19c2.27,0.1,4.73,0.17,4.74,0.17l-0.06,2.3L163.91,124.64z
                          ;
                          M163.91,124.64c0,0-2.5-0.07-4.81-0.17c-2.28-0.1-5.32-0.19-5.33-0.19l0.06-1.99l0.06-2.01
		c0,0,3.08,0.09,5.39,0.19c2.27,0.1,4.73,0.17,4.74,0.17l-0.06,2.3L163.91,124.64z
                          ;
                          M163.91,124.64c0,0-2.5-0.07-4.81-0.17c-2.28-0.1-5.32-0.19-5.33-0.19l0.06-1.99l0.06-2.01
		c0,0,3.08,0.09,5.39,0.19c2.27,0.1,4.73,0.17,4.74,0.17l-0.06,2.3L163.91,124.64z
                          ;
                          M163.91,124.64c0,0-2.5-0.07-4.81-0.17c-2.28-0.1-5.32-0.19-5.33-0.19l0.06-1.99l0.06-2.01
		c0,0,3.08,0.09,5.39,0.19c2.27,0.1,4.73,0.17,4.74,0.17l-0.06,2.3L163.91,124.64z
                          ;
                          M163.91,124.64c0,0-2.5-0.07-4.81-0.17c-2.28-0.1-5.32-0.19-5.33-0.19l0.06-1.99l0.06-2.01
		c0,0,3.08,0.09,5.39,0.19c2.27,0.1,4.73,0.17,4.74,0.17l-0.06,2.3L163.91,124.64z
                          ;
                          M163.91,124.64c0,0-2.5-0.07-4.81-0.17c-2.28-0.1-5.32-0.19-5.33-0.19l0.06-1.99l0.06-2.01
		c0,0,3.08,0.09,5.39,0.19c2.27,0.1,4.73,0.17,4.74,0.17l-0.06,2.3L163.91,124.64z
                          ;
                          M163.91,124.64c0,0-2.5-0.07-4.81-0.17c-2.28-0.1-5.32-0.19-5.33-0.19l0.11-1.58l0.65-0.33
		c0,0,1.93,1.12,4.23,1.22c2.27,0.1,4.56-1.06,4.56-1.06l0.62,0.41L163.91,124.64z
                          " />
	</path>
</g>
<path class="st0" d="M138.43,139.43c1.95,0.5,12.09,0,12.09,0"/>
<path id="eyp" class="st0" d="M136.24,153.92c1.47,0.07,17.92,0.15,17.92,0.15"/>
<path class="st0" d="M133.91,140.92l-0.11,0.2c-1.77,3.23-2.7,8.86-2.7,12.55l0,0"/>
<path class="st0" d="M154.76,140.68l0.11,0.2c1.77,3.23,2.7,8.86,2.7,12.55l0,0"/>
<path class="st0" d="M143.96,37.28c0,0-77.84-3.42-75.09,87.8c2.38,79.06,66.74,83.03,66.74,83.03"/>
<path class="st0" d="M148.33,36.88c0,0,71.91-1.59,71.51,92.57"/>
<path class="st0" d="M82.25,174.34c-2.26,1.51-15.08,12.81-6.78,29.4"/>
<path class="st0" d="M164.62,207.31c0,0,48.47,1.99,54.43-64.76"/>
<path class="st0" d="M139.99,208.9c0,0,13.9,1.19,17.08,0.4"/>
<path class="st0" d="M213.08,173.15c1.19,0.79,15.49,6.36,9.93,24.23"/>
<path class="st0" d="M68.87,191.82c0,0-38.33,26.82-41.11,55.82"/>
<path class="st0" d="M228.04,191.82c0,0,40.27,26.82,43.05,55.82"/>
<path class="st0" d="M104.48,220.52c0,0,43.97,29.32,92.35-1.95"/>
<path class="st1" d="M131.86,167.56L131.86,167.56c-0.84,0-1.52-0.68-1.52-1.52v-0.58c0-0.84,0.68-1.52,1.52-1.52l0,0
	c0.84,0,1.52,0.68,1.52,1.52v0.58C133.38,166.87,132.7,167.56,131.86,167.56z">
</path>
<path class="st1" d="M144.78,168.01L144.78,168.01c-0.84,0-1.52-0.68-1.52-1.52v-0.58c0-0.84,0.68-1.52,1.52-1.52l0,0
	c0.84,0,1.52,0.68,1.52,1.52v0.58C146.3,167.32,145.62,168.01,144.78,168.01z"/>
<path class="st1" d="M158.22,167.6L158.22,167.6c-0.84,0-1.52-0.68-1.52-1.52v-0.58c0-0.84,0.68-1.52,1.52-1.52l0,0
	c0.84,0,1.52,0.68,1.52,1.52v0.58C159.74,166.92,159.06,167.6,158.22,167.6z"/>
<path class="st1" d="M125.67,172.94L125.67,172.94c-0.84,0-1.52-0.68-1.52-1.52v-0.58c0-0.84,0.68-1.52,1.52-1.52l0,0
	c0.84,0,1.52,0.68,1.52,1.52v0.58C127.19,172.25,126.51,172.94,125.67,172.94z"/>
<path class="st1" d="M138.6,173.39L138.6,173.39c-0.84,0-1.52-0.68-1.52-1.52v-0.58c0-0.84,0.68-1.52,1.52-1.52l0,0
	c0.84,0,1.52,0.68,1.52,1.52v0.58C140.12,172.7,139.43,173.39,138.6,173.39z"/>
<path class="st1" d="M151.22,173.47L151.22,173.47c-0.84,0-1.52-0.68-1.52-1.52v-0.58c0-0.84,0.68-1.52,1.52-1.52l0,0
	c0.84,0,1.52,0.68,1.52,1.52v0.58C152.74,172.78,152.06,173.47,151.22,173.47z"/>
<path class="st1" d="M164.14,173.92L164.14,173.92c-0.84,0-1.52-0.68-1.52-1.52v-0.58c0-0.84,0.68-1.52,1.52-1.52l0,0
	c0.84,0,1.52,0.68,1.52,1.52v0.58C165.66,173.23,164.98,173.92,164.14,173.92z"/>
<path class="st1" d="M121.36,204.89l-3.97-0.5c-0.02,0.17-2.23,17.63-4.21,27.45c-1.79,8.87-3.43,21.7-3.78,24.51
	c-3.1,0.53-5.47,3.37-5.47,6.79c0,3.8,2.92,6.89,6.52,6.89s6.52-3.09,6.52-6.89c0-2.7-1.48-5.03-3.62-6.16
	c0.31-2.48,1.96-15.46,3.75-24.35C119.12,222.67,121.34,205.07,121.36,204.89z M110.45,266.03c-1.39,0-2.52-1.3-2.52-2.89
	s1.13-2.89,2.52-2.89s2.52,1.3,2.52,2.89S111.84,266.03,110.45,266.03z">
	<animate attributeName="d" keySplines="0.42 0 0.58 1; 0.42 0 0.58 1; 0.42 0 0.58 1" begin="0.12s" dur="1.00s" repeatCount="indefinite" values="
                          M121.36,204.89l-3.97-0.5c-0.02,0.17,11.07,18.99,9.09,28.81c-1.79,8.87-3.43,21.7-3.78,24.51
	c-3.1,0.53-5.47,3.37-5.47,6.79c0,3.8,2.92,6.89,6.52,6.89s6.52-3.09,6.52-6.89c0-2.7-1.48-5.03-3.62-6.16
	c0.31-2.48,1.96-15.46,3.75-24.35C132.41,224.03,121.34,205.07,121.36,204.89z M123.75,267.39c-1.39,0-2.52-1.3-2.52-2.89
	s1.13-2.89,2.52-2.89s2.52,1.3,2.52,2.89S125.14,267.39,123.75,267.39z
                          ;
                          M121.36,204.89l-3.97-0.5c-0.02,0.17-2.23,17.63-4.21,27.45c-1.79,8.87-3.43,21.7-3.78,24.51
	c-3.1,0.53-5.47,3.37-5.47,6.79c0,3.8,2.92,6.89,6.52,6.89s6.52-3.09,6.52-6.89c0-2.7-1.48-5.03-3.62-6.16
	c0.31-2.48,1.96-15.46,3.75-24.35C119.12,222.67,121.34,205.07,121.36,204.89z M110.45,266.03c-1.39,0-2.52-1.3-2.52-2.89
	s1.13-2.89,2.52-2.89s2.52,1.3,2.52,2.89S111.84,266.03,110.45,266.03z
                          ;
                          M121.36,204.89l-3.97-0.5c-0.02,0.17,11.07,18.99,9.09,28.81c-1.79,8.87-3.43,21.7-3.78,24.51
	c-3.1,0.53-5.47,3.37-5.47,6.79c0,3.8,2.92,6.89,6.52,6.89s6.52-3.09,6.52-6.89c0-2.7-1.48-5.03-3.62-6.16
	c0.31-2.48,1.96-15.46,3.75-24.35C132.41,224.03,121.34,205.07,121.36,204.89z M123.75,267.39c-1.39,0-2.52-1.3-2.52-2.89
	s1.13-2.89,2.52-2.89s2.52,1.3,2.52,2.89S125.14,267.39,123.75,267.39z
                          " />
</path>
<path class="st1" d="M178.95,204.86l-3.85,1.08c0.05,0.17,4.77,17.11,6.75,26.94c1.79,8.87,5.24,21.33,6.01,24.06
	c-2.65,1.69-3.74,5.23-2.41,8.38c1.47,3.5,5.37,5.22,8.68,3.83c3.31-1.39,4.81-5.38,3.34-8.88c-1.04-2.49-3.31-4.06-5.72-4.28
	c-0.68-2.41-4.19-15.01-5.98-23.9C183.77,222.11,179,205.03,178.95,204.86z M192.58,265.45c-1.28,0.54-2.83-0.22-3.44-1.69
	s-0.08-3.1,1.2-3.64c1.28-0.54,2.83,0.22,3.44,1.69S193.86,264.91,192.58,265.45z">
	<animate attributeName="d" keySplines="0.42 0 0.58 1; 0.42 0 0.58 1; 0.42 0 0.58 1" begin="0.16s" dur="1s" repeatCount="indefinite" values="
                          M178.95,204.86l-3.85,1.08c0.05,0.17,16.85,15.48,18.83,25.3c1.79,8.87,5.24,21.33,6.01,24.06
	c-2.65,1.69-3.74,5.23-2.41,8.38c1.47,3.5,5.37,5.22,8.68,3.83c3.31-1.39,4.81-5.38,3.34-8.88c-1.04-2.49-3.31-4.06-5.72-4.28
	c-0.68-2.41-4.19-15.01-5.98-23.9C195.84,220.48,179,205.03,178.95,204.86z M204.66,263.82c-1.28,0.54-2.83-0.22-3.44-1.69
	s-0.08-3.1,1.2-3.64c1.28-0.54,2.83,0.22,3.44,1.69S205.94,263.28,204.66,263.82z
                          ;
                          M178.95,204.86l-3.85,1.08c0.05,0.17,4.77,17.11,6.75,26.94c1.79,8.87,5.24,21.33,6.01,24.06
	c-2.65,1.69-3.74,5.23-2.41,8.38c1.47,3.5,5.37,5.22,8.68,3.83c3.31-1.39,4.81-5.38,3.34-8.88c-1.04-2.49-3.31-4.06-5.72-4.28
	c-0.68-2.41-4.19-15.01-5.98-23.9C183.77,222.11,179,205.03,178.95,204.86z M192.58,265.45c-1.28,0.54-2.83-0.22-3.44-1.69
	s-0.08-3.1,1.2-3.64c1.28-0.54,2.83,0.22,3.44,1.69S193.86,264.91,192.58,265.45z
                          ;
                          M178.95,204.86l-3.85,1.08c0.05,0.17,16.85,15.48,18.83,25.3c1.79,8.87,5.24,21.33,6.01,24.06
	c-2.65,1.69-3.74,5.23-2.41,8.38c1.47,3.5,5.37,5.22,8.68,3.83c3.31-1.39,4.81-5.38,3.34-8.88c-1.04-2.49-3.31-4.06-5.72-4.28
	c-0.68-2.41-4.19-15.01-5.98-23.9C195.84,220.48,179,205.03,178.95,204.86z M204.66,263.82c-1.28,0.54-2.83-0.22-3.44-1.69
	s-0.08-3.1,1.2-3.64c1.28-0.54,2.83,0.22,3.44,1.69S205.94,263.28,204.66,263.82z
                          " />
</path>
</svg>
