<?xml version="1.0" encoding="utf-8"?>
<!-- Generator: Adobe Illustrator 24.0.3, SVG Export Plug-In . SVG Version: 6.00 Build 0)  -->
<svg version="1.1" id="Layer_1" xmlns="http://www.w3.org/2000/svg" xmlns:xlink="http://www.w3.org/1999/xlink" x="0px" y="0px"
	 viewBox="0 0 44 44" style="enable-background:new 0 0 44 44;" xml:space="preserve">
    <path transform="translate(1,47)" stroke-width="5.5" stroke-dasharray="718 718" stroke-dashoffset="718" stroke-linecap="round" fill="none" stroke="#ffffff" class="big_pen" d="M165.3 120.3C158.4 125 153.4 129.8 150.9 134.7 147.3 142.2 126.6 131.6 142.3 120.3 152.9 112.8 163.3 111 173.7 115.1 179.7 119.8 178.7 124.2 170.9 128.2 163 132.3 156.3 135 150.6 136.5 163.9 134.3 171.6 135.1 173.7 138.9 175.9 142.6 173 147.2 165 152.5 153 159.5 141.7 163.7 131.3 165.1 120.8 166.5 115 166.3 113.9 164.5 111.7 162.2 112.2 159.2 115.4 155.6 118.7 152 126.8 147.5 139.9 142.2L208.8 111.7C197.6 126 191.9 133.4 191.8 133.8 191.7 134.4 187.8 141.5 188.9 140 181.4 148.1 178.6 150.1 177.5 154.6 176.4 159 179.1 156.2 183.9 152.5L200.4 119.1 227.7 133.1 214.6 131.8C213.4 130.9 211.9 130.9 210.1 131.8 207.5 133.2 199.9 137.7 195.5 143.9 191.2 150.1 192.4 152.9 199.3 149.7 206.2 146.4 211.8 138.8 214 132.6 216.1 126.4 204.2 158.3 195.5 168.6 189.8 175.6 185.6 178 183 176 182 175.2 182.7 173 184.9 169.6 188.3 164.5 202.6 151.7 221.5 146.3">
	<animate id="handst" transform="translate(0, 51)" attributeName="stroke-dashoffset" dur="1.6" calcMode="spline" fill="freeze" values="718; 0" keySplines=".42,0,.58,1"/>
    </path>
</svg>
