<?xml version="1.0" encoding="utf-8"?>
<!-- Generator: Adobe Illustrator 24.0.3, SVG Export Plug-In . SVG Version: 6.00 Build 0)  -->
<svg version="1.1" id="Layer_1" xmlns="http://www.w3.org/2000/svg" xmlns:xlink="http://www.w3.org/1999/xlink" x="0px" y="0px"
	 viewBox="0 0 44 44" style="enable-background:new 0 0 44 44;" xml:space="preserve">
<path d="M170.6,151.8c6.8-6,5.5-11,5.5-11c-1-6.2-13.3-7-13.3-7c19.8-4,16.3-14,16.3-14c-2-8.6-18-7.2-18-7.2
	c-9.8,0.4-16.8,4-20.8,7l-2.7,2c-3,2.8-3,6-3,6c0.5,3.5,3.6,3.4,3.6,3.4c1,0,0.8-0.3,0.8-0.3c-2.7-2,1-5.7,1-5.7
	c0.3-0.5,0.8-1,1.4-1.4c4.7-4,15.2-7.7,15.2-7.7c12.8-3.7,19.3,1.2,19.3,1.2c3.8,3-1,6.2-3.2,8c-2.3,1.6-16.4,8-17.6,8.4
	c-1.4,0.5-1,0-1,0s2.6-3,6.2-6.7s5.5-4.7,6.4-4.8c0.8,0,1-0.3,0.8-0.7c-0.2-0.3-0.6-0.8-2.4-1.8c-2-1-3,0-5.6,2
	c-2.6,2.3-9.4,9.5-10.4,11l-2.2,2.6l2.8,3.6h0.3l1.8-1.5c4-2.8,14-1.7,14-1.7c13,2.2,3.8,10,3.8,10c-1,1-3,2.5-5.2,3.8
	c-5,3-11.4,6.3-11.4,6.3c-0.4,0-0.8,0.2-1.2,0.4c-18.3,8-32.8,8-32.8,8c-8.3-0.4-5.2-5-3.8-7.2c2-3,15-10.5,16-11
	c1.2-0.5,0.4-0.5,0.4-0.5C98.3,160,115.4,167,115.4,167c13,4.4,41.5-7.4,41.5-7.4l0.4-0.3c6.3-2.5,10.4-5,13.2-7.5H170.6z"/>
<path d="M195.4,133c0.5,0.7-0.3,0.7-1.3,1.3s-3,2.4-3,2.4c-0.8,0.5-1.7,1-2.4,0.3c-0.4-0.5-0.4-1.2-0.2-1.8c0.2-0.8,1.5-3,2.6-4
	c1-1.2,2-0.8,2.5-0.4s2,2.2,2,2.2H195.4z M187.4,143.6c-3.5,3.8-7,10-7.5,11s-0.4,2,0.8,1.3c1.3-0.7,1.5-1,2.4-1.8
	c1-0.8,0.5,0.5,0.5,0.5c-0.2,0.5-0.4,1.2-2.3,3c-2,2-4.3,1.6-4.8,1.4c-0.5-0.2-1.5-0.7-1.8-1.6c0,0-0.5-1,1-4.5v-0.2
	c0,0,0-0.3,0.2-0.4c2.4-5.6,9.3-12.5,9.3-12.5c1-1.4,2.4-1.2,3.5-0.3l1,1.4c0.3,0.4,0,0.8-0.2,1c-1,0.3-2.2,1.6-2.2,1.6L187.4,143.6
	z"/>
</svg>
