 <?xml version="1.0" encoding="utf-8"?>
<!-- Generator: Adobe Illustrator 23.1.1, SVG Export Plug-In . SVG Version: 6.00 Build 0)  -->
<svg version="1.1" id="Layer_1" xmlns="http://www.w3.org/2000/svg" xmlns:xlink="http://www.w3.org/1999/xlink" x="0px" y="0px"
   viewBox="0 0 200 200" style="enable-background:new 0 0 200 200;" xml:space="preserve">
<style type="text/css">
  .st0{fill:none;stroke:#231F20;stroke-width:2.5;stroke-miterlimit:10;}
  .st1{fill:#231F20;}
  .st2{fill:none;stroke:#FFFFFF;stroke-width:2.5;stroke-miterlimit:10;}
</style>
<path class="st0" d="M92.43,90.91c0,0,2.06,2.85,0.79,5.87c-1.27,3.01-10.31,8.8-12.85,14.91">
  <animate attributeName="d" keySplines="0.42 0 0.58 1; 0.42 0 0.58 1; 0.42 0 0.58 1" begin="0.12s" dur="1.44s" repeatCount="indefinite" values="
                          M92.43,90.91c0,0,2.06,3.85,0.79,5.87c-1.27,3.01-10.31,8.8-12.85,14.91
                          ;
                          M92.43,90.91c0,0,2.06,2.85,0.79,5.87c-1.27,3.01-10.31,8.8-12.85,14.91
                          ;
                          M92.43,90.91c0,0,2.06,3.85,0.79,5.87c-1.27,3.01-10.31,8.8-12.85,14.91
                          " />
</path>
<path class="st0" d="M103.37,94.08c0,0-0.16,5.23,3.01,6.34">
  <animate attributeName="d" keySplines="0.42 0 0.58 1; 0.42 0 0.58 1; 0.42 0 0.58 1" begin="0.12s" dur="1.44s" repeatCount="indefinite" values="
                          M103.37,94.08c0,0-0.16,5.23,2.01,6.34
                          ;
                          M103.37,94.08c0,0-0.16,5.23,3.01,6.34
                          ;
                          M103.37,94.08c0,0-0.16,5.23,2.01,6.34
                          " />
</path>
<path class="st0" d="M121.61,115.02c-2.22-5.39-10.31-10.94-10.31-10.94"/>
<path class="st1" d="M100.2,102.57c6.01,0.38,7.27,5.34,8.72,6.58c5.07,4.36,20.24,13.26,13.4,20.7c-5.47,5.95-12.81,0.84-19.3-7.87
  c-0.47-0.63-1.05-1.18-1.74-1.54c-1.14-0.59-2.8-0.88-3.94,1.4c-1.27,2.54-11.42,17.76-18.71,8.72c-7.3-9.04,9.52-17.6,12.69-21.57
  C92.33,107.72,95.12,102.25,100.2,102.57z">
  <animate attributeName="d" keySplines="0.42 0 0.58 1; 0.42 0 0.58 1; 0.42 0 0.58 1" begin="0.12s" dur="1.44s" repeatCount="indefinite" values="
                          M100.2,102.57c6.01,1.38,7.27,4.34,8.72,6.58c5.07,4.36,20.24,13.26,13.4,20.7c-5.47,5.95-12.81,0.84-19.3-7.87
  c-0.47-0.63-1.05-1.18-1.74-1.54c-1.14-0.59-2.8-0.88-3.94,1.4c-1.27,2.54-11.42,17.76-18.71,8.72c-7.3-9.04,9.52-18.6,12.69-21.57
  C92.33,107.72,95.12,102.25,100.2,102.57z
                          ;
                          M100.2,102.57c6.01,0.38,7.27,5.34,8.72,6.58c5.07,4.36,20.24,13.26,13.4,20.7c-5.47,5.95-12.81,0.84-19.3-7.87
  c-0.47-0.63-1.05-1.18-1.74-1.54c-1.14-0.59-2.8-0.88-3.94,1.4c-1.27,2.54-11.42,17.76-18.71,8.72c-7.3-9.04,9.52-17.6,12.69-21.57
  C92.33,107.72,95.12,102.25,100.2,102.57z
                          ;
                          M100.2,102.57c6.01,1.38,7.27,4.34,8.72,6.58c5.07,4.36,20.24,13.26,13.4,20.7c-5.47,5.95-12.81,0.84-19.3-7.87
  c-0.47-0.63-1.05-1.18-1.74-1.54c-1.14-0.59-2.8-0.88-3.94,1.4c-1.27,2.54-11.42,17.76-18.71,8.72c-7.3-9.04,9.52-18.6,12.69-21.57
  C92.33,107.72,95.12,102.25,100.2,102.57z
                          " />
</path>
<path class="st0" d="M96.31,128.02c0,0,2.14-3.96,3.57-3.96s1.98,0.32,4.04,3.41">
  <animate attributeName="d" keySplines="0.42 0 0.58 1; 0.42 0 0.58 1; 0.42 0 0.58 1" begin="0.12s" dur="1.44s" repeatCount="indefinite" values="
                          M96.31,128.02c0,0,0.14-3.96,3.57-3.96s1.98,0.32,4.04,3.41
                          ;
                          M96.31,128.02c0,0,2.14-3.96,3.57-3.96s1.98,0.32,4.04,3.41
                          ;
                          M96.31,128.02c0,0,0.14-3.96,3.57-3.96s1.98,0.32,4.04,3.41
                          " />
</path>
<path class="st0" d="M104.22,90.33c0,0-0.08-2.28,2.64-3.49c0.48-0.21,2.54-1.96,6.66,1.06c4.12,3.01,10.78,10.15,15.22,8.88">
  <animate attributeName="d" keySplines="0.42 0 0.58 1; 0.42 0 0.58 1; 0.42 0 0.58 1" begin="0.12s" dur="1.44s" repeatCount="indefinite" values="
                          M104.22,90.33c0,0-0.08-2.28,2.64-3.49c0.48-0.21,2.54-1.96,5.66,1.06c4.12,3.01,10.78,10.15,15.22,8.88
                          ;
                          M104.22,90.33c0,0-0.08-2.28,2.64-3.49c0.48-0.21,2.54-1.96,6.66,1.06c4.12,3.01,10.78,10.15,15.22,8.88
                          ;
                          M104.22,90.33c0,0-0.08-2.28,2.64-3.49c0.48-0.21,2.54-1.96,5.66,1.06c4.12,3.01,10.78,10.15,15.22,8.88
                          " />
</path>
<path class="st2" d="M96.79,113.35c-0.37-0.39-2.09-3.58-1.84-4.2c0.12-0.31,0.55-0.57,1.27-0.76c1-0.27,3.17-0.33,3.93-0.31l0.17,0
  c1.1-0.01,2.61,0.06,3.5,0.3c0.72,0.19,1.14,0.45,1.27,0.76c0.25,0.62-1.67,3.8-2.04,4.2"/>
<path class="st0" d="M69.37,81.36c0,0-3.25,7.88-6.62,9s-2.88,11.62-1.12,13.87s0.88,6.75-1.12,7.25s-11.29-3.81-11.62-10.25
  c-0.37-7.05,1.97-13.93,2.59-18.68s9.39-8.15,12.26-7.4">
  <animate attributeName="d" keySplines="0.42 0 0.58 1; 0.42 0 0.58 1; 0.42 0 0.58 1" begin="0.12s" dur="1.44s" repeatCount="indefinite" values="
                          M69.37,81.36c0,0-3.25,7.88-6.62,9s-2.88,11.62-1.12,14.87s0.88,6.75-1.13,7.25s-11.29-3.81-11.62-10.25
  c-0.37-7.05,1.97-13.93,2.59-18.68s9.39-8.15,12.26-7.4
                          ;
                          M69.37,81.36c0,0-3.25,7.88-6.62,9s-2.88,11.62-1.12,13.87s0.88,6.75-1.12,7.25s-11.29-3.81-11.62-10.25
  c-0.37-7.05,1.97-13.93,2.59-18.68s9.39-8.15,12.26-7.4
                          ;
                          M69.37,81.36c0,0-3.25,7.88-6.62,9s-2.88,11.62-1.12,14.87s0.88,6.75-1.13,7.25s-11.29-3.81-11.62-10.25
  c-0.37-7.05,1.97-13.93,2.59-18.68s9.39-8.15,12.26-7.4
                          " />
</path>
<path class="st0" d="M126.74,79.87c0,0,2.91,9.34,6.44,9.77c3.53,0.44,5.71,9.82,4.44,12.37s1.71,5.54,3.77,5.63
  s9.56-5.9,9.37-12.35c-0.16-5.2-5.88-10.96-7.43-15.49s-8.75-8.28-11.42-6.98">
  <animate attributeName="d" keySplines="0.42 0 0.58 1; 0.42 0 0.58 1; 0.42 0 0.58 1" begin="0.12s" dur="1.44s" repeatCount="indefinite" values="
                          M126.74,79.87c0,0,2.91,9.34,6.44,10.77c3.53,0.44,5.71,9.82,5.44,12.37s1.71,5.54,3.77,5.63
  s9.56-5.9,9.37-12.35c-0.16-5.2-5.88-10.96-7.43-15.49s-8.75-8.28-11.42-6.98
                          ;
                          M126.74,79.87c0,0,2.91,9.34,6.44,9.77c3.53,0.44,5.71,9.82,4.44,12.37s1.71,5.54,3.77,5.63
  s9.56-5.9,9.37-12.35c-0.16-5.2-5.88-10.96-7.43-15.49s-8.75-8.28-11.42-6.98
                          ;
                          M126.74,79.87c0,0,2.91,9.34,6.44,10.77c3.53,0.44,5.71,9.82,5.44,12.37s1.71,5.54,3.77,5.63
  s9.56-5.9,9.37-12.35c-0.16-5.2-5.88-10.96-7.43-15.49s-8.75-8.28-11.42-6.98
                          " />
</path>
<path class="st0" d="M90.05,89.33c-0.74-1.48-0.79-3.33-10.31,2.22">
  <animate attributeName="d" keySplines="0.42 0 0.58 1; 0.42 0 0.58 1; 0.42 0 0.58 1" begin="0.12s" dur="1.44s" repeatCount="indefinite" values="
                          M90.05,89.34c-0.74-1.49-0.79-3.33-10.31,1.22
                          ;
                          M90.05,89.33c-0.74-1.48-0.79-3.33-10.31,2.22
                          ;
                          M90.05,89.34c-0.74-1.49-0.79-3.33-10.31,1.22
                          " />
</path>
<path class="st0" d="M94.81,101.22c0,0,0.95-3.17,5.39-2.85">
  <animate attributeName="d" keySplines="0.42 0 0.58 1; 0.42 0 0.58 1; 0.42 0 0.58 1" begin="0.12s" dur="1.44s" repeatCount="indefinite" values="
                          M94.81,101.22c0,0,0.95-3.17,4.39-2.85
                          ;
                          M94.81,101.22c0,0,0.95-3.17,5.39-2.85
                          ;
                          M94.81,101.22c0,0,0.95-3.17,4.39-2.85
                          " />
</path>
<path class="st0" d="M91.79,80.13c0,0,3.17,8.72,5.87,8.56">
  <animate attributeName="d" keySplines="0.42 0 0.58 1; 0.42 0 0.58 1; 0.42 0 0.58 1" begin="0.12s" dur="1.44s" repeatCount="indefinite" values="
                          M91.79,80.13c0,0,2.17,8.72,5.87,8.56
                          ;
                          M91.79,80.13c0,0,3.17,8.72,5.87,8.56
                          ;
                          M91.79,80.13c0,0,2.17,8.72,5.87,8.56
                          " />
</path>
<path class="st0" d="M101.62,87.42c0,0-0.95-4.92,5.07-5.71">
  <animate attributeName="d" keySplines="0.42 0 0.58 1; 0.42 0 0.58 1; 0.42 0 0.58 1" begin="0.12s" dur="1.44s" repeatCount="indefinite" values="
                          M101.62,87.42c0,0-0.95-4.92,6.07-5.71
                          ;
                          M101.62,87.42c0,0-0.95-4.92,5.07-5.71
                          ;
                          M101.62,87.42c0,0-0.95-4.92,6.07-5.71
                          " />
</path>
<path class="st0" d="M132.23,98.84c0.48,0.48,2.85,13.8-1.74,18.08">
  <animate attributeName="d" keySplines="0.42 0 0.58 1; 0.42 0 0.58 1; 0.42 0 0.58 1" begin="0.12s" dur="1.44s" repeatCount="indefinite" values="
                          M132.23,98.84c0.48,0.48,2.85,12.8-1.74,18.08
                          ;
                          M132.23,98.84c0.48,0.48,2.85,13.8-1.74,18.08
                          ;
                          M132.23,98.84c0.48,0.48,2.85,12.8-1.74,18.08
                          " />
</path>
<path class="st0" d="M68.41,98.84c-0.48,0.48-2.85,13.8,1.74,18.08">
  <animate attributeName="d" keySplines="0.42 0 0.58 1; 0.42 0 0.58 1; 0.42 0 0.58 1" begin="0.12s" dur="1.44s" repeatCount="indefinite" values="
                          M68.41,98.84c-0.48,0.48-2.85,14.8,1.74,18.08
                          ;
                          M68.41,98.84c-0.48,0.48-2.85,13.8,1.74,18.08
                          ;
                          M68.41,98.84c-0.48,0.48-2.85,14.8,1.74,18.08
                          " />
</path>
<path class="st0" d="M71.81,118.35c0,0-1.59,8.41,2.38,11.42">
  <animate attributeName="d" keySplines="0.42 0 0.58 1; 0.42 0 0.58 1; 0.42 0 0.58 1" begin="0.12s" dur="1.44s" repeatCount="indefinite" values="
                          M71.81,118.35c0,0-1.59,8.41,3.38,11.42
                          ;
                          M71.81,118.35c0,0-1.59,8.41,2.38,11.42
                          ;
                          M71.81,118.35c0,0-1.59,8.41,3.38,11.42
                          " />
</path>
<path class="st0" d="M128.74,117.87c0.32,0.63,2.38,6.5-1.9,9.99">
  <animate attributeName="d" keySplines="0.42 0 0.58 1; 0.42 0 0.58 1; 0.42 0 0.58 1" begin="0.12s" dur="1.44s" repeatCount="indefinite" values="
                          M128.74,117.87c0.32,0.63,2.38,7.5-1.9,9.99
                          ;
                          M128.74,117.87c0.32,0.63,2.38,6.5-1.9,9.99
                          ;
                          M128.74,117.87c0.32,0.63,2.38,7.5-1.9,9.99
                          " />
</path>
<path class="st0" d="M80.37,111.69c0,0-2.7,5.66-2.91,7.88"/>
<path class="st0" d="M67.11,75.16c0,0,10.57-16.07,25.59-15.86">
  <animate attributeName="d" keySplines="0.42 0 0.58 1; 0.42 0 0.58 1; 0.42 0 0.58 1" begin="0.12s" dur="1.44s" repeatCount="indefinite" values="
                          M67.11,76.16c0,0,10.57-16.08,25.59-15.86
                          ;
                          M67.11,75.16c0,0,10.57-16.07,25.59-15.86
                          ;
                          M67.11,76.16c0,0,10.57-16.08,25.59-15.86
                          " />
</path>
<path class="st0" d="M103.26,59.93c0,0,16.49-1.27,24.74,11.63"/>
<line class="st0" x1="58.86" y1="113.86" x2="55.69" y2="134.37"/>
<line class="st0" x1="139" y1="112.38" x2="143.65" y2="131.41"/>
<path class="st1" d="M85.09,96.21c2.33-2.16-9.33-0.78-12.46,8.95c0,0-1.76,4.49,1.99,6.81c3.75,2.32,3.09,3.66,3.09,3.66
  s5.28-12.03,9.76-13.46C91.94,100.76,82.76,98.36,85.09,96.21z M82.2,104.18c-1.76,0.8-3.64,0.48-4.33-0.69l6.65-3.03
  C84.95,101.74,83.96,103.37,82.2,104.18z">
  <animate attributeName="d" keySplines="0.42 0 0.58 1; 0.42 0 0.58 1; 0.42 0 0.58 1" begin="0.12s" dur="1.44s" repeatCount="indefinite" values="
                          M85.09,96.21c2.33-2.16-9.33-0.78-12.46,8.95c0,0-1.76,5.49,1.99,6.81c3.75,7.32,3.09,3.66,3.09,3.66
  s5.28-12.03,9.76-13.46C91.94,100.76,82.76,98.36,85.09,96.21z M82.2,104.18c-1.76,0.8-3.64,0.48-4.33-0.69l6.65-3.03
  C84.95,101.74,83.96,103.37,82.2,104.18z
                          ;
                          M85.09,96.21c2.33-2.16-9.33-0.78-12.46,8.95c0,0-1.76,4.49,1.99,6.81c3.75,2.32,3.09,3.66,3.09,3.66
  s5.28-12.03,9.76-13.46C91.94,100.76,82.76,98.36,85.09,96.21z M82.2,104.18c-1.76,0.8-3.64,0.48-4.33-0.69l6.65-3.03
  C84.95,101.74,83.96,103.37,82.2,104.18z
                          ;
                          M85.09,96.21c2.33-2.16-9.33-0.78-12.46,8.95c0,0-1.76,5.49,1.99,6.81c3.75,7.32,3.09,3.66,3.09,3.66
  s5.28-12.03,9.76-13.46C91.94,100.76,82.76,98.36,85.09,96.21z M82.2,104.18c-1.76,0.8-3.64,0.48-4.33-0.69l6.65-3.03
  C84.95,101.74,83.96,103.37,82.2,104.18z
                          " />
</path>
<path class="st1" d="M125,101.91c-4.12-9.36-15.86-9.52-13.32-7.61c2.54,1.9-6.34,5.23-1.74,6.19s11.1,12.37,11.1,12.37
  s-0.79-1.27,2.7-3.96C127.22,106.19,125,101.91,125,101.91z M117.41,103.83c-1.76-0.8-2.66-2.63-2.11-4.17l6.65,3.03
  C121.13,104.11,119.17,104.63,117.41,103.83z">
  <animate attributeName="d" keySplines="0.42 0 0.58 1; 0.42 0 0.58 1; 0.42 0 0.58 1" begin="0.12s" dur="1.44s" repeatCount="indefinite" values="
                          M125,101.91c-4.12-9.36-15.86-9.52-13.32-7.61c2.54,3.9-6.34,5.23-1.74,6.19s11.5,12.37,11.1,12.37
  s-0.79-1.27,2.7-3.96C127.22,106.19,125,101.91,125,101.91z M117.41,103.83c-1.76-0.8-2.66-2.63-2.11-4.17l6.65,3.03
  C121.13,104.11,119.17,104.63,117.41,103.83z
                          ;
                          M125,101.91c-4.12-9.36-15.86-9.52-13.32-7.61c2.54,1.9-6.34,5.23-1.74,6.19s11.1,12.37,11.1,12.37
  s-0.79-1.27,2.7-3.96C127.22,106.19,125,101.91,125,101.91z M117.41,103.83c-1.76-0.8-2.66-2.63-2.11-4.17l6.65,3.03
  C121.13,104.11,119.17,104.63,117.41,103.83z
                          ;
                          M125,101.91c-4.12-9.36-15.86-9.52-13.32-7.61c2.54,3.9-6.34,5.23-1.74,6.19s11.5,12.37,11.1,12.37
  s-0.79-1.27,2.7-3.96C127.22,106.19,125,101.91,125,101.91z M117.41,103.83c-1.76-0.8-2.66-2.63-2.11-4.17l6.65,3.03
  C121.13,104.11,119.17,104.63,117.41,103.83z
                          " />
</path>
<path class="st0" d="M79.11,134.21c0,0,7.61,7.14,14.27-1.59">
  <animate attributeName="d" keySplines="0.42 0 0.58 1; 0.42 0 0.58 1; 0.42 0 0.58 1" begin="0.12s" dur="1.44s" repeatCount="indefinite" values="
                          M79.11,134.21c0,0,7.61,8.14,14.27-1.59
                          ;
                          M79.11,134.21c0,0,7.61,7.14,14.27-1.59
                          ;
                          M79.11,134.21c0,0,7.61,8.14,14.27-1.59
                          " />
</path>
<path class="st0" d="M108.6,132.15c0,0,5.39,8.25,14.91,0.63">
  <animate attributeName="d" keySplines="0.42 0 0.58 1; 0.42 0 0.58 1; 0.42 0 0.58 1" begin="0.12s" dur="1.44s" repeatCount="indefinite" values="
                          M108.6,132.15c0,0,5.39,9.25,14.91,0.63
                          ;
                          M108.6,132.15c0,0,5.39,8.25,14.91,0.63
                          ;
                          M108.6,132.15c0,0,5.39,9.25,14.91,0.63
                          " />
</path>
<path class="st0" d="M107.19,95.47c0,0,4.07-1.87,8.37-0.25"/>
<path class="st0" d="M80.74,97.78c0,0,4.44-2.11,7.08-1.9"/>
<circle class="st1" cx="80.81" cy="100.65" r="2.85"/>
<circle class="st1" cx="118.81" cy="100.65" r="2.85"/>
</svg>