<?xml version="1.0" encoding="utf-8"?>
<!-- Generator: Adobe Illustrator 21.1.0, SVG Export Plug-In . SVG Version: 6.00 Build 0)  -->
<svg version="1.1" id="coor" xmlns="http://www.w3.org/2000/svg" xmlns:xlink="http://www.w3.org/1999/xlink" x="0px" y="0px"
	 viewBox="0 0 226.8 226.8" style="enable-background:new 0 0 226.8 226.8;" xml:space="preserve">
<style type="text/css">
	.st0{clip-path:url(#SVGID_2_);}
	.st1{fill-rule:evenodd;clip-rule:evenodd;fill:#FFFFFF;}
</style>
<g id="_x23_3">
	<defs>
		<circle id="SVGID_1_" cx="113.4" cy="113.4" r="105.9"/>
	</defs>
	<clipPath id="SVGID_2_">
		<use xlink:href="#SVGID_1_"  style="overflow:visible;"/>
	</clipPath>
	<g class="st0">
		<rect width="226.8" height="226.8"/>
		<g>
			<g>
				<path class="st1" d="M194.4,156.2c-0.2-1.6-1.2-2.5-2.6-2.9c-1.4-0.4-2.8-0.7-4.3-0.9c-2.9-0.4-5.8-0.6-8.6-1.5
					c-5.9-1.9-12-3-18.2-3.7c-1.2-0.1-2.3-0.3-3.5-0.4c0.1-2.6,0.2-5.1,0.4-7.6c0-0.3,0.3-0.6,0.5-0.8c4.2-3.4,8.3-6.8,12.5-10.2
					c0.5-0.4,1.2-0.8,1.8-1c1.1-0.4,1.7-1.4,1.5-2.5c-0.2-1.5-1.8-2.4-3.3-1.8c-1,0.4-2,1-2.1,2.4c-2.9,2.6-6.7,4.4-9.8,6.8
					c-0.2,0.2-0.4,0.3-0.7,0.5c0.3-3.5,0.5-6.8,0.7-10.1c0-0.7,0.3-0.9,1-1.1c5.8-1.4,11.7-2.9,17.5-4.4c2.3-0.6,4.5-1.3,6.7-2
					c1.3-0.5,1.9-1.8,1.5-2.9c-0.4-1.2-1.7-1.7-3-1.3c-5.5,1.5-10.9,3-16.4,4.5c-2.2,0.6-4.5,1.1-6.8,1.6c0-0.2,0-0.4,0-0.6
					c0-3.9-0.4-6.4-0.3-10.3c0-0.3,0.8-1.7,0.8-2.8c0-2.1-2.4-2.4-3.4-2.3c-1,0-2.5,0.5-2.6,3.2c-0.2,2.5,0.9,3.6,0.9,3.6
					c-0.1,4.2,0,5.4-0.1,9.7c0,0.5-0.2,0.7-0.6,0.8c-10.7,2.8-21.4,5.5-32,8.3c-0.2,0.1-0.5,0.1-0.9,0.2c0.4-0.6,0.7-0.9,1-1.3
					c0.8-1.2,0.6-2.5-0.4-3.2c-1-0.7-2.3-0.6-3.2,0.5c-0.2,0.2-0.4,0.4-0.5,0.6c-1,1.5-2,3.1-3,4.6c-0.2,0.3-0.5,0.5-0.8,0.6
					c-1.7,0.5-3.4,0.9-5.2,1.3c-0.2,0-0.3,0-0.7,0.1c1.4-2.3,2.7-4.5,4-6.7c0.7-1.1,1.3-2.3,1.9-3.4c0.6-1.3,0.1-2.6-1-3.1
					c-1.1-0.5-2.4-0.1-3,1.1c-2.2,3.8-4.3,7.5-6.5,11.3c-0.1,0.1-0.1,0.2-0.3,0.5c-0.2-0.9-0.3-1.7-0.4-2.5c-0.2-2-0.5-3.9-0.6-5.9
					c-0.1-1.3-0.6-2.3-1.7-2.5c-1.2-0.2-2.4,0.4-2.7,1.7c-0.2,0.7-0.3,1.5-0.2,2.3c0.2,1.7,0.5,3.4,0.7,5.1c0.2,1.6,0.5,3.3,0.8,4.9
					c-1.9,0.6-3.8,1.2-5.6,1.7c0-0.1-0.1-0.2-0.1-0.3c-0.2-2.1-1.4-3.6-1.6-5.7c-0.2-1.6,0.5-3.9,0.5-5.5c0-1.3-0.6-2.3-1.7-2.5
					c-1.2-0.2-2.3,0.4-2.7,1.6c-0.2,0.8-0.3,1.8-0.2,2.7c0.4,3.5,0.8,7,1.2,10.5c0.1,0.5-0.1,0.8-0.6,0.9c-2.3,0.6-4.6,1.3-6.9,2
					c-1.6,0.4-3.2,0.8-4.8,1.2c-1.4,0.3-2.7,0.6-4.1,1c-1.2,0.3-1.9,1.4-1.7,2.6c0.2,1.1,1.1,1.9,2.4,1.9c0.5,0,0.9,0,1.4-0.2
					c5.9-2.6,10-3.2,14.1-3.8c0.3-0.1,0.5-0.1,0.8-0.2c0.1,0.2,0.1,0.4,0.1,0.5c0.5,3,1,6.1,1.7,9.1c0.8,3.3,1.8,6.5,2.7,9.8
					c0.4,1.3,1.5,1.9,2.7,1.7c1.1-0.2,1.9-1.2,1.9-2.5c-0.1-3.9,0.8-7.7,1.9-11.4c0.2-0.8,0.5-1.5,0.8-2.3c0.4,1.2,0.6,2.4,1,3.6
					c0.9,2.8,1.7,5.5,2.7,8.2c0.5,1.4,1.7,1.9,2.8,1.8c1.2-0.2,1.9-1,2.1-2.5c0-0.1,0-0.3,0.1-0.4c0.4-2.5,0.7-5.1,1.2-7.6
					c0.4-1.8,1-3.5,1.5-5.2c0.9,0.2,1.7,0.3,2.5,0.5c-0.4,1.3-0.9,2.6-1.3,3.9c-0.7,2.4-1.3,4.8-1,7.3c0.2,1.7,1.4,3,3.2,3.3
					c0.9,0.1,2,0.2,2.8-0.1c4.8-1.6,8.7-4.4,11.8-8.3c1.3-1.6,1.1-3.7-0.2-5.4c-1.9-2.3-4.2-3.9-7.1-4.6c-0.3-0.1-0.6-0.1-1.1-0.3
					c1.3-1.8,2.4-3.5,3.6-5.1c0.5-0.7,0.8-1.4,0.5-2.2c-0.2-0.5-0.6-1-1-1.5c9.5-2.5,19.2-5.1,28.9-7.6c0,0.4,0,0.6,0,0.8
					c-0.3,3.9-0.6,7.7-0.8,11.6c-0.1,0.9-0.3,1.5-1.1,2c-0.5,0.3-0.9,0.6-1.3,0.9c-4.3,3.1-8.7,6.2-13.7,8.3
					c-0.2,0.1-0.5,0.2-0.8,0.3c0-0.9,0-1.7,0-2.5c0-0.2,0.1-0.4,0.3-0.6c2.2-2.3,4.6-4,7.9-3.9c1.6,0,2.6-1,2.5-2.4
					c-0.1-1.4-1.2-2.3-2.7-2.2c-2.8,0-5.3,0.9-7.6,2.4c-0.1,0.1-0.2,0.1-0.4,0.2c-0.3,0.9-0.2,0.5,0-0.3c0.3-1.4,0-2.8,0-4.2
					c0-1.5-1-2.5-2.3-2.5c-1.3,0-2.2,1-2.2,2.6c0,4.2-0.1,8.4-0.1,12.6c0.1,4,0,8,0.1,12.1c0,1.4,1,2.4,2.3,2.4c1.3,0,2.2-1,2.3-2.4
					c0-0.8,0-1.7,0-2.5c0-1.3,0-2.6,0-4c5.4-0.1,10.7-0.3,16.1-0.4c0,0.5,0,0.9,0,1.3c0.1,1.3,0.1,2.6,0.3,3.9
					c0.2,1.3,1.3,2,2.5,1.9c1.1-0.1,2-1,2-2.3c0-0.5-0.1-1.1-0.1-1.6c0-0.9,0-1.9,0-2.8c0.1,0,0.1,0,0.2,0c0.9,0.1,1.9,0.2,2.8,0.3
					c7.1,0.7,8.3,0.8,15.4,2c2.7,0.8,4.1,1.2,6.8,1.7c1.9,0.4,3.2,1.4,5.1,1.7c0.4,0.1,0.6,0.6,0.9,0.9c0.7,0.8,3.6,1,4.6,0.6
					C193.9,158.3,194.5,157.3,194.4,156.2z M95.2,147.9c-0.2-1.1-0.5-2.2-0.6-3.3c-0.3-1.6-0.5-3.3-0.8-4.9c-0.1-0.5,0-0.8,0.6-0.9
					c1.4-0.4,2.8-0.9,4.2-1.3c0.2-0.1,0.4-0.1,0.5-0.1C97.7,140.8,96.5,144.3,95.2,147.9z M106.3,147.2c-0.1-0.3-0.2-0.5-0.2-0.8
					c-0.6-2.9-1.2-5.8-1.7-8.7c-0.2-0.9,0.6-2.2,1.5-2.4c1.8-0.5,3.6-1,5.6-1.5C109.3,138.2,107.5,142.6,106.3,147.2z M114.1,138.8
					c0.8-1.7,1.7-3.2,2.4-4.8c0.5-1.2,1.3-1.9,2.6-2c0.9-0.1,1.7-0.4,2.4-0.6c-1.4,2.4-2.8,4.9-4.3,7.3c-0.1,0.2-0.4,0.4-0.6,0.4
					C115.9,139,115.1,138.9,114.1,138.8z M126.2,146.5c0.4,0.4,0.4,0.7,0,1c-2.3,2.3-4.9,4.3-7.9,5.6c-0.3,0.2-0.7,0.2-1.3,0.4
					c0.2-1.1,0.2-2.2,0.5-3.1c0.6-2.1,1.4-4.1,2.1-6.2c0.2-0.4,0.4-0.5,0.8-0.5C122.7,143.9,124.6,144.8,126.2,146.5z M152.6,146.6
					c-2,0-4,0-6,0c2.1-1.4,4-2.8,6-4.1C152.6,143.9,152.6,145.3,152.6,146.6z M71.2,101.2c0.8,0.2,1.6,0,2.4,0
					c-0.1,0.3-0.2,0.5-0.3,0.7c-0.9,2.2-1.4,4.6-1.3,7c0.1,2.4,1.7,4.3,4.1,4.7c1.8,0.3,3.4,0,5-0.9c2.5-1.5,4.6-3.5,5.9-6.1
					c1.4-2.9,1.1-5.9-2.3-7.7c-1-0.5-2.1-0.9-3.1-1.3c-0.3-0.1-0.6-0.2-1.1-0.3c1-1.8,2-3.6,3-5.2c0.7-1.1,0.7-2.4-0.2-3.2
					c-0.9-0.8-2.2-0.7-3.2,0.2c-0.5,0.5-0.9,1.1-1.2,1.6c-0.9,1.6-1.7,3.3-2.6,5c-0.5,1-0.5,1-1.8,0.9c0.1-0.2,0.1-0.3,0.2-0.5
					c0.6-1.8,0.1-3.4-1.6-4.3c-0.8-0.4-1.7-0.8-2.6-0.8c-2.2-0.1-4.4,0-6.6,0c-0.4,0-5,1.6-5.5,1.6c0.1-0.1,0.8-1.7,0.9-1.7
					c3.1-2.6,9.6-5.3,12.7-8c0.9-0.8,1.3-1.9,0.8-2.9c-0.5-1-1.6-1.5-2.7-1.2c-0.4,0.1-0.7,0.2-1.1,0.2c-3.6,0.4-7.2,0.9-10.7,1.3
					c-1.3,0.2-2.5,0.3-3.9,0.5c0.8-1.7,1.5-3.3,2-5.9c0.9-2.3,2.9-3.3,3.8-5.4c0.5-1.3-0.3-3.5-1.5-3.8c-1.2-0.3-3.3-1.6-4.4,1.2
					c-0.1,0.3,0.1,3.1,0,3.4c-1.8,4.1-3.1,6.4-4.9,10.6c-0.2,0.4-0.4,0.6-0.8,0.7c-3.3,0.4-6.6,3.2-8.7,0.7
					c-0.1-0.1-0.1-0.9-2.2-0.5c-1,0.2-1.7,1.2-1.9,2.1c-0.2,0.9,0,1.7,0.8,2.2c0.5,0.3,1.2,0.6,1.8,0.6c2,0,3.7-0.9,5.7-1
					c0.8,0,2.5,0.1,3.4,0c-0.1,0.2-0.7,1.1-0.7,1.2c-3.8,8.9-7.5,17.8-11.3,26.8c-0.1,0.2-0.5,0-0.7,0.1c-1.1,0.7-1.8,2.3-1.7,3.4
					c0.1,1.2,1.5,2.3,2.6,2.6c1.1,0.3,2.6,0.6,3.5-1.5c0.3-1.1-0.1-1.3,0.2-1.9c4.2-9.9,8.4-19.9,12.6-29.9c0.2-0.6,0.6-0.8,1.2-0.9
					c2.2-0.3,4.4-0.6,6.7-0.9c1.1-0.1,2.1-0.2,3.2-0.4c-2.3,2.2-4.6,4.4-7.4,5.9c-0.7,0.4-1.5,0.7-2.3,1c-1.3,0.5-2.1,1.4-1.9,2.6
					c0.2,1.2,0.6,2.9,2,2.9c4.1,0.7,5-1,7.2-1c2.8-0.1,5.6-0.2,8.6-0.3c-0.2,0.3-0.2,0.3-0.2,0.4c-3.3,3.3-6.9,6.4-10.7,9.1
					c-2.3,1.6-4.8,3.1-7.7,3.6c-0.7,0.1-1.4,0.2-2.1,0.4c-1.1,0.3-1.7,1.2-1.7,2.3c0.1,1,0.8,1.8,1.9,2c0.5,0.1,1,0.1,1.5,0
					c2.9-0.3,5.5-1.3,7.9-2.8c3.8-2.2,7.2-5.1,10.5-8C69.3,101.7,70,101,71.2,101.2z M78.5,101.5c1.4,0.5,2.7,1,4,1.5
					c0.7,0.3,0.8,0.8,0.5,1.4c-0.1,0.2-0.2,0.5-0.4,0.7c-1,1.5-2.3,2.8-3.9,3.7c-0.2,0.1-0.4,0.2-0.7,0.3c-1.2,0.3-1.5,0.1-1.5-1.2
					C76.7,105.7,77.5,103.7,78.5,101.5z M118.3,90.3c-2.2,1.2-4.4,2.4-6.6,3.7c-2.7,1.6-5.1,3.4-7.3,5.7c-1,1-1.8,2.1-2.3,3.4
					c-0.9,2.4-0.3,4.6,1.8,6.1c1.2,0.8,2.5,1.5,3.9,1.9c2.6,0.9,5.4,0.9,8.1,0.9c0.9,0,1.8,0,2.9,0c-0.2,0.6-0.2,1.2-0.4,1.7
					c-1,1.6-0.3,3.4,1.5,3.8c1.7,0.3,3.1-0.8,3.2-2.7c0.1-1,0.1-1.9,0.2-2.9c1.5-0.2,3.1-0.4,4.6-0.6c4.1-0.6,8.1-1.2,12.2-1.8
					c1.6-0.2,3.2-0.4,4.8-0.6c2.2-0.3,3.3-2.3,2.2-4.2c-0.4-0.6-0.9-1.2-1.5-1.6c-1.3-0.9-2.8-0.4-3.5,1c-0.1,0.2-0.4,0.5-0.7,0.5
					c-4.7,0.7-9.5,1.4-14.2,2.1c-1.3,0.2-2.5,0.3-3.7,0.5c0-4.7,0-9.2,0-13.8c0-0.2,0.2-0.4,0.3-0.5c1.5-0.5,2.9-1.1,4.4-1.3
					c1.2-0.2,2.6-0.1,3.9-0.1c0.2,0,0.4,0.1,0.7,0.1c1.4,0,3,0,3.9-2.3c0.7-1.9-0.9-3.6-3.2-3.8c-2.7-0.1-5.8,1.2-8.6,2.2
					c-0.4,0.2-0.9,0.3-1.3,0.4c0-0.3,0-0.4,0-0.5c0.2-8.2,0.1-16.5,1-23.7c0.2-1,0.6-3.8-2.4-4.4c-2-0.2-3.8,0.5-4.2,1.7
					c-0.3,0.5-0.6,3,0,3.4c0.7,2.4,1.4,4.1,1.3,6.8c-0.1,6-0.2,12-0.3,18C118.9,89.7,118.7,90,118.3,90.3z M118.7,107.3
					c-1.1,0-2.1,0-3,0c-2.2-0.1-4.5,0-6.7-0.7c-0.8-0.2-1.5-0.6-2.2-1c-0.7-0.4-0.8-0.8-0.3-1.4c0.6-0.8,1.3-1.6,2-2.3
					c2.5-2.3,5.4-4.1,8.4-5.8c0.6-0.3,1.2-0.7,1.8-1C118.7,99.2,118.7,103.2,118.7,107.3z M89.2,94c0.9,3.1,1.6,6.3,2.5,9.5
					c0.2,0.6,0.1,1-0.3,1.6c-4.8,7.3-9.2,14.8-13.2,22.6c-0.9,1.8-1.9,3.5-2.9,5.3c-0.8,1.4,0,3,1.5,3.3c1,0.2,1.9-0.2,2.5-1
					c0.5-0.6,0.8-1.3,1.2-1.9c3.9-7.7,8.1-15.3,12.8-22.6c0.2-0.2,0.3-0.5,0.5-0.8c0.3,0.4,0.5,0.7,0.8,0.9c1,0.9,2.5,0.8,3.3-0.2
					c1-1.2,0.8-3.6-0.4-4.5c-0.7-0.6-0.7-0.9-0.3-1.7c2.2-3.8,4.4-7.7,6.5-12c0.6-1.2,1.9-1.4,2.7-2.4c0.9-1.2-0.2-3.6-1.3-4.3
					c-1.1-0.8-3.7-0.5-4.1,0.8c-0.3,0.9-0.1,1.9-0.5,2.8c-1.6,2.9-3.2,5.9-4.8,8.8c-0.1,0.2-0.3,0.4-0.4,0.6c-0.8-2.7-2.1-4.4-3-7
					c-0.2-0.7-0.2-2.4-0.6-3c-0.8-1-1.7-2.6-3.6-1.3c-2.2,1.5-1.4,3.1-0.9,4.3C87.7,92.6,88.9,93.1,89.2,94z M38.9,77.7
					c1.2,0.1,2.3-0.5,2.7-1.6c0.2-0.5,0.2-1.1,0.3-1.6c0,0,0,0-0.1,0c0-0.2,0-0.5,0-0.7c-0.1-1.4-1-2.4-2.3-2.5
					c-1.3-0.1-2.5,0.7-2.8,2.1c-0.1,0.8-0.1,1.6,0,2.4C37,76.8,37.8,77.6,38.9,77.7z M47.8,73c1.1-0.4,1.9-1.5,1.9-2.8
					c0-1.3-0.7-2.5-1.7-2.9c-1-0.4-2.1-0.1-2.9,0.9c-0.9,1-1,2.9-0.1,4C45.7,73,46.8,73.3,47.8,73z M115.3,99.4
					c-1.2,0-2.1,0.9-2.2,2.1c0,1.2,0.9,2.2,2.1,2.2c1.2,0,2.2-0.9,2.2-2.1C117.5,100.4,116.5,99.4,115.3,99.4z"/>
			</g>
		</g>
	</g>
</g>
</svg>
