<svg xmlns="http://www.w3.org/2000/svg" viewBox="0 0 364.96 90.79"><title>signature</title><path d="M43.4,28.87c5.81-3.36,9.08-9,9.08-14.34C52.48,7.08,46.12,0,31.87,0,16.71,0,0,11.53,0,23.61c0,6.53,3.45,8.8,9.71,8.8-.09-.82-1.27-1.54-1.27-6.17C8.44,12.44,18.25,4.18,33,4.18c7.08,0,10,4.44,10,9.53,0,6.9-5.35,15-12.89,15h-.63L33.77,8.53,20.34,10.35,8,68.09H21.06l7.45-34.77a44.84,44.84,0,0,1,4.54-.27c6,0,8.26,5.26,8.26,11.16,0,7.72-4,16.71-9,16.71a7.2,7.2,0,0,1-6.08-3.27,17.25,17.25,0,0,0-1.18,5.72c0,5.72,5.26,6.27,10.71,6.27,10,0,18.07-14.26,18.07-26C53.84,36.59,50.84,30.32,43.4,28.87Z" fill="#231f20"/><path d="M241.4,20.88c-3,0-5.17,2.54-5.17,4.45,0,2.54,1.18,5.08,3.81,5.08a7.15,7.15,0,0,0,1.91-.36c0,9.9-6.08,29.78-15,29.78-2.63,0-3.45-1.18-3.45-2.9a16.5,16.5,0,0,1,.45-3.36l6.54-30.87H217.44L210.9,53.57a13.45,13.45,0,0,0-.46,3.08c-2.17,1.82-4.44,3.18-6.35,3.18-3.63,0-4.54-1.45-4.54-3.45a17,17,0,0,1,.36-2.81l6.54-30.87H193.38l-6.54,30.87a24.31,24.31,0,0,0-.51,3.68c-2,1.47-3.88,2.58-5.57,2.58-3.54,0-4.54-1.36-4.54-3.36a17.35,17.35,0,0,1,.45-2.9L187,4.54,173.59,6.35l-4,18.71a9.85,9.85,0,0,0-6.08-2.27c-17.58,0-23.41,17.52-23.77,32.8a30.8,30.8,0,0,1-9.55,6.87l8.44-39.76H125.56l-7.17,33.59c-2.36,2-4.82,3.54-6.81,3.54-3.63,0-4.54-1.45-4.54-3.45a17,17,0,0,1,.36-2.81l6.54-30.87H100.86l-2.54,12A8.28,8.28,0,0,1,94,36a3.55,3.55,0,0,1-2.64-.81c-.18-6.63-2.36-13.35-11-13.35-12.53,0-23.88,9.62-23.88,32,0,10.8,4.18,14.89,13.89,14.89,9.08,0,19-9,20.7-27.24a27.65,27.65,0,0,0,6.41-2.69L94.33,53.57a22.19,22.19,0,0,0-.55,4.63c0,6.81,4.36,9.89,11.35,9.89,3.63,0,8.08-3.18,12.17-6.9L116,67.37c-8.63,2.54-15.62,5.26-15.62,13.61,0,5.91,5.18,9.81,10.71,9.81,6,0,13.62-2.45,16.35-15.43l1.81-8.72c4.37-1.23,8.39-2.74,11.11-5.06,1.21,3.82,4.28,7.06,10.59,7.06,5.54,0,9.62-3.73,12.35-7.45,1.18,4.72,5.08,6.9,11,6.9,3.68,0,8.22-3.26,12.31-7,1.12,4.77,5.13,7,11,7,3.82,0,8.72-3.63,13-7.53.9,5.17,4.9,7.53,11.07,7.53,18.34,0,25.51-24.87,25.51-39C247.21,24.33,245.31,20.88,241.4,20.88ZM84.34,42.31c-1.09,8.8-4.17,17.52-9.71,17.52-3.54,0-6.09-1.45-6.09-6.9,0-7.26,3.64-25.78,12.17-25.78,2.54,0,3.54,1.72,3.81,4.72-2.45.9-4,3.72-4,6.35C80.53,40.4,81.71,42.31,84.34,42.31Zm30,33.32c-1.09,5.35-3.45,7.08-5.26,7.08-2,0-3.64-1.73-3.64-3,0-4.9,4.27-7.44,10-9.35Zm49.3-22.06a21.3,21.3,0,0,0-.55,3c-1.72,2.54-3.72,4.54-5.81,4.54-2.27,0-5.26-1-5.26-6.44,0-12.35,5.44-26.79,12.25-26.79a6.79,6.79,0,0,1,4.45,1.64Z" fill="#231f20"/><path d="M322.57,28.51c0-3.45-2.45-5.81-6.54-5.81-3.81,0-7.44,2-10.71,4.54l1-4.54H293.24L290.84,34a9.14,9.14,0,0,1-5.4,1.91,3.55,3.55,0,0,1-2.64-.81c-.18-6.63-2.36-13.35-11-13.35-12.53,0-23.88,9.62-23.88,32,0,10.8,4.18,14.89,13.89,14.89,9.08,0,19-9,20.7-27.24A27.85,27.85,0,0,0,290,38.1l-6.36,30h13.07l7.54-35.59c2.09-1.9,3.54-2.9,6.26-2.9s.18,6,5.27,6A6.94,6.94,0,0,0,322.57,28.51Zm-46.76,13.8c-1.09,8.8-4.18,17.52-9.71,17.52-3.54,0-6.09-1.45-6.09-6.9,0-7.26,3.64-25.78,12.17-25.78,2.54,0,3.54,1.72,3.81,4.72-2.45.9-4,3.72-4,6.35C272,40.4,273.18,42.31,275.81,42.31Z" fill="#231f20"/><path d="M357.34,57.38a20.19,20.19,0,0,1,.72-3.81l1.19-5.27a8.88,8.88,0,0,0,.27-2.09c0-6-5.54-11.44-10.53-11.44a16.22,16.22,0,0,0-2.09.18L365,22.7h-9.8c0-.09-10.53,8.17-17.25,13.53l6.72-31.69L331.19,6.35,318,68.09H331.1l5.27-24.6A9.16,9.16,0,0,1,342,41.58c2.81,0,4.08,2.73,4.08,5.63a15.07,15.07,0,0,1-.18,2.09L345,53.57a20.08,20.08,0,0,0-.54,4.54c0,5.72,2.81,10,9.26,10,3.08,0,6.9-.54,9.44-8.35a7.36,7.36,0,0,1-2.36.27C358.06,60,357.34,58.92,357.34,57.38Z" fill="#231f20"/></svg>