<?xml version="1.0" encoding="utf-8"?>
<!-- Generator: Adobe Illustrator 23.1.1, SVG Export Plug-In . SVG Version: 6.00 Build 0)  -->
<svg version="1.1" id="Layer_3" xmlns="http://www.w3.org/2000/svg" xmlns:xlink="http://www.w3.org/1999/xlink" x="0px" y="0px"
	 viewBox="0 0 433.65 433.65" style="enable-background:new 0 0 433.65 433.65;" xml:space="preserve">
<style type="text/css">
	.st0{fill:none;stroke:#231F20;stroke-width:2.7;stroke-miterlimit:10;}
	.st1{fill:#231F20;}
</style>
<path class="st0" d="M237.3,173.99c0,0,2.2,1.95,0.77,3.7c-1.47,1.8-3.74-0.05-3.74-0.05"/>
<path class="st0" d="M239.36,193.68c1.4-0.69,2.77-1.49,4.09-2.41c2.41-1.67,4.66-3.71,6.63-6.13l10.39-12.79"/>
<path class="st0" d="M213.57,184.59c0.54,1.81,2.17,4.65,3.08,6.12"/>
<path class="st0" d="M223.33,145.28c-3.01-2.45-7.44-1.99-9.88,1.02c-2.45,3.01-2.43,6.63,1.02,9.88c0,0,0,0,0,0
	c4.37,4.52,4.37,15.58-2.74,20.05"/>
<path class="st0" d="M229.56,152.47c2.69-1.33,7.47-1.1,9.55,3.12"/>
<path class="st0" d="M255.54,172.6c0.98-3.09,0.04-7.57-4.64-7.95"/>
<path class="st0" d="M194.74,185.93c5.46-1.68,9.73-9.7,9.73-9.7"/>
<path class="st0" d="M252.06,198.24c-15.84-7.3-55.84-9.29-55.84-9.29"/>
<path class="st0" d="M140.18,191.05c0.42-0.21,5.92-7.6,11.31-8.13"/>
<path class="st0" d="M148.75,197.71c-1.16,0.63-5.81,6.64-6.13,7.69c-0.32,1.06-1.16,7.64-1.16,7.64s3.59,0.85,5.07-4.02
	c1.48-4.86,5.71-7.51,7.61-6.24"/>
<path class="st0" d="M155.83,203.21c0,0,9.2,2.83,15.07-0.21c6.14-3.18,11.79-2.75,15.07-2.01"/>
<path class="st0" d="M193.99,202.93c4.78,1.96,68.62,29.45,78.56,24.38c8.33-4.25,11.52-21.67-15.86-31.3"/>
<path class="st0" d="M182.05,205.4c0.83-0.17,10.57-1.03,17.55,4.89c6.98,5.92,43.85,24.42,43.85,24.42"/>
<path class="st0" d="M183.25,242.04c0,0,51.81,16.47,65.38,15.19c0,0,10.13,2.22,11.85-8.25s4.62-22.33,4.62-22.33"/>
<path class="st0" d="M237.97,231.8c0,0,3.84-7.9,5.48-9.44"/>
<path class="st0" d="M155.83,182.92c2.17,0.1,30.34,6.03,33.62,6.03"/>
<path class="st0" d="M146.52,191.05c-1.37,0.53-8.35,9.86-8.35,11.38S135,214.25,135,214.25s3.49,1.27,4.12,0"/>
<path class="st0" d="M146.52,209.02c0,0-5.1,14.68-6.34,25.69c-2.11,18.68,1.16,61.53-12.79,71.37"/>
<path class="st0" d="M192.31,188.95c0,0,1.69,5.93-1.9,12.64"/>
<line class="st0" x1="248.62" y1="257.23" x2="252.69" y2="310.2"/>
<line class="st0" x1="78.23" y1="310.2" x2="342.75" y2="310.2"/>
<path class="st0" d="M193.99,245.33c0,0-34.89,37.28-42.5,64.88"/>
<path class="st0" d="M272.55,227.31c0,0,9.41,4.48,9.41,22.63c0,12.57,0,60.26,0,60.26"/>
<line class="st0" x1="208" y1="310.2" x2="213.81" y2="298.38"/>
<path class="st0" d="M212.75,286.41c0,0,1.5,23.79,3.9,23.79"/>
<g id="eyes">
	<path class="st1" d="M230.06,159.62c-1.08,1.33-1.2,3.03-0.27,3.78c0.93,0.76,2.57,0.3,3.65-1.04c1.08-1.33,1.2-3.03,0.27-3.78
		C232.77,157.82,231.14,158.28,230.06,159.62z"/>
	<path class="st1" d="M244.34,171.23c-1.08,1.33-1.2,3.03-0.27,3.78c0.93,0.76,2.57,0.3,3.65-1.04c1.08-1.33,1.2-3.03,0.27-3.78
		C247.06,169.43,245.43,169.9,244.34,171.23z"/>
</g>
<g id="lips">
	<line class="st0" x1="226.43" y1="180.03" x2="232.95" y2="185.15"/>
</g>
<g id="hair_x5F_01">
	<path class="st0" d="M263.78,144.84c0,0,10.47,1.32,6.66,9.91s-10.59,17.08-2.91,25.05"/>
</g>
<g id="hair_x5F_02">
	<path class="st0" d="M265.68,140.34c0,0,8.88-2.36,11.1,9.37c0.83,4.4,0.3,9.11-0.7,13.28c-1.66,6.95-4.59,12.39-4.59,12.39"/>
</g>
<g id="hair_x5F_03">
	<path class="st0" d="M272.15,181.95c0,0,4.55,12.35-7.05,13.99"/>
</g>
<g id="hair_x5F_04">
	<path class="st0" d="M267.52,127.66c1.43-0.26,8.39,2.7,9.67,10.1"/>
</g>
<g id="hair_x5F_05">
	<path class="st0" d="M260.24,130.34c0,0-7.21,9.16-29.22,6.14"/>
</g>
<g id="hair_x5F_06">
	<path class="st0" d="M264.98,135.67c0,0,2.19-13.47-12.79-17.79"/>
</g>
<g id="hair_x5F_07">
	<path class="st0" d="M247.6,114.92c0,0-12.03-4.23-21.87,3.38c-9.84,7.61-23.1,20.31-33,23.26"/>
</g>
<g id="hair_x5F_08">
	<path class="st0" d="M189.45,147.09c0,0-13.96,13.23,0,26.9"/>
</g>
<g id="hair_x5F_09">
	<path class="st0" d="M194.74,158.21c0,0-5.62,8.48,0,15.03"/>
</g>
<g id="hair_x5F_10">
	<path class="st0" d="M202.98,164.66c0,0-4.65,10.14,4.65,13.82"/>
</g>
</svg>
