<?xml version="1.0" encoding="utf-8"?>
<!-- Generator: Adobe Illustrator 23.1.1, SVG Export Plug-In . SVG Version: 6.00 Build 0)  -->
<svg version="1.1" id="Layer_1" xmlns="http://www.w3.org/2000/svg" xmlns:xlink="http://www.w3.org/1999/xlink" x="0px" y="0px"
	 viewBox="0 0 391.91 391.91" style="enable-background:new 0 0 391.91 391.91;" xml:space="preserve">
<style type="text/css">
	.st0{fill:none;stroke:#231F20;stroke-width:5.5;stroke-miterlimit:10;}
	.st1{fill:#231F20;}
</style>
<path class="st0" d="M104.34,176.68c0,0-4.47,23.16,1.67,40.19c3.1,8.58,48,9.77,48,9.77">
	<animate attributeName="d" keySplines="0.42 0 0.58 1; 0.42 0 0.58 1; 0.42 0 0.58 1" begin="0.12s" dur="1.44s" repeatCount="indefinite" values="
                          M104.34,176.68c0,0-4.47,23.16,1.67,39.19c3.1,8.58,48,9.77,49,9.77
                          ;
                          M104.34,176.68c0,0-4.47,23.16,1.67,40.19c3.1,8.58,48,9.77,48,9.77
                          ;
                          M104.34,176.68c0,0-4.47,23.16,1.67,39.19c3.1,8.58,48,9.77,49,9.77
                          " />
</path>
<path class="st0" d="M132.53,225.24c0,0,16.54,17.43,21.21,42.42c5.58,29.86-5.3,44.65-5.3,44.65">
  <animate attributeName="d" keySplines="0.42 0 0.58 1; 0.42 0 0.58 1; 0.42 0 0.58 1" begin="0.12s" dur="1.44s" repeatCount="indefinite" values="
                          M132.53,225.24c0,0,16.53,17.43,21.20,42.42c5.58,27.86-5.3,44.65-5.3,44.65
                          ;
                          M132.53,225.24c0,0,16.54,17.43,21.21,42.42c5.58,29.86-5.3,44.65-5.3,44.65
                          ;
                          M132.53,225.24c0,0,16.53,17.43,21.20,42.42c5.58,27.86-5.3,44.65-5.3,44.65
                          " />
</path>
<path class="st0" d="M112.71,229.7c0,0-0.56,5.02-8.65,8.65s-16.74,9.21-15.91,18.42c0.84,9.21,10.6,12.28,10.6,12.28">
	<animate attributeName="d" keySplines="0.42 0 0.58 1; 0.42 0 0.58 1; 0.42 0 0.58 1" begin="0.12s" dur="1.44s" repeatCount="indefinite" values="
                          M112.71,229.7c0,0-0.56,5.02-8.65,7.65s-16.74,5.21-15.91,18.42c0.84,5.21,10.6,12.28,11.6,13.28
                          ;
                          M112.71,229.7c0,0-0.56,5.02-8.65,8.65s-16.74,9.21-15.91,18.42c0.84,9.21,10.6,12.28,10.6,12.28
                          ;
                          M112.71,229.7c0,0-0.56,5.02-8.65,7.65s-16.74,5.21-15.91,18.42c0.84,5.21,10.6,12.28,11.6,13.28
                          " />
</path>
<path class="st0" d="M107.41,313.98c0,0,4.47-12.84,15.91-15.63s25.95-7.26,30.42-15.33">
  <animate attributeName="d" keySplines="0.42 0 0.58 1; 0.42 0 0.58 1; 0.42 0 0.58 1" begin="0.12s" dur="1.44s" repeatCount="indefinite" values="
                          M107.41,313.98c0,0,4.47-12.84,12.91-15.63s25.95-7.26,30.42-15.33
                          ;
                          M107.41,313.98c0,0,4.47-12.84,15.91-15.63s25.95-7.26,30.42-15.33
                          ;
                          M107.41,313.98c0,0,4.47-12.84,12.91-15.63s25.95-7.26,30.42-15.33
                          " />
</path>
<path class="st0" d="M204.25,188.17c0,0-3.65,4.53-2.23,7.67c1.26,2.79,3.77,2.65,3.77,2.65"/>
<path class="st0" d="M219.6,197.89c0,0,6.56-0.84,10.47-6"/>
<path class="st0" d="M214.01,181.56c0,0,0,22.93-13.77,55.67s2.23,34.98,2.23,34.98">
  <animate attributeName="d" keySplines="0.42 0 0.58 1; 0.42 0 0.58 1; 0.42 0 0.58 1" begin="0.12s" dur="1.44s" repeatCount="indefinite" values="
                          M214.01,181.56c0,0,0,22.93-13.77,56.67s2.23,34.98,4.23,34.98
                          ;
                          M214.01,181.56c0,0,0,22.93-13.77,55.67s2.23,34.98,2.23,34.98
                          ;
                          M214.01,181.56c0,0,0,22.93-13.77,56.67s2.23,34.98,4.23,34.98
                          " />
</path>
<path class="st0" d="M208.06,272.21c0,0,40.8-8.86,66.72,6.37c3.65,2.14,6.87,4.93,9.7,8.07c6.18,6.86,12.69,18.68,33.53,26.12"/>
<path class="st0" d="M169.92,91.93c0,0-4.47,30.14,18.98,41.49s36.28,15.44,30.14,30.88">
	<animate attributeName="d" keySplines="0.42 0 0.58 1; 0.42 0 0.58 1; 0.42 0 0.58 1" begin="0.12s" dur="1.44s" repeatCount="indefinite" values="
                          M169.92,91.93c0,0-4.47,30.14,18.98,42.49s36.27,15.44,31.16,30.88
                          ;
                          M169.92,91.93c0,0-4.47,30.14,18.98,41.49s36.28,15.44,30.14,30.88
                          ;
                          M169.92,91.93c0,0-4.47,30.14,18.98,42.49s36.27,15.44,31.16,30.88
                          " />
</path>
<path class="st0" d="M166.76,81.33c0.56,0,19.57-8.97,23.26-5.95c9.3,7.63,6.14,36.65,25.67,44.84">
	<animate attributeName="d" keySplines="0.42 0 0.58 1; 0.42 0 0.58 1; 0.42 0 0.58 1" begin="0.12s" dur="1.44s" repeatCount="indefinite" values="
                          M166.76,81.33c0.56,0,19.57-8.97,23.26-5.95c9.3,8.62,6.14,37.66,25.67,44.84
                          ;
                          M166.76,81.33c0.56,0,19.57-8.97,23.26-5.95c9.3,7.63,6.14,36.65,25.67,44.84
                          ;
                          M166.76,81.33c0.56,0,19.57-8.97,23.26-5.95c9.3,8.62,6.14,37.66,25.67,44.84
                          " />
</path>
<path class="st0" d="M194.29,80.4c0,0,11.91,7.44,19.72,8.56c7.81,1.12,29.95,6.33,39.07,22.7s3.35,44.65,13.58,53.95
	s25.55,32.29,25.7,53.91c0.16,22.51-5.02,33.49-28.47,44.37">
	<animate attributeName="d" keySplines="0.42 0 0.58 1; 0.42 0 0.58 1; 0.42 0 0.58 1" begin="0.12s" dur="1.44s" repeatCount="indefinite" values="
                          M194.29,80.4c0,0,11.91,7.44,19.72,8.56c7.81,4.12,29.95,3.33,39.07,22.7s3.35,44.65,13.58,53.95
	s25.55,32.29,25.7,53.91c0.18,22.51-5.03,34.49-28.48,46.38
                          ;
                          M194.29,80.4c0,0,11.91,7.44,19.72,8.56c7.81,1.12,29.95,6.33,39.07,22.7s3.35,44.65,13.58,53.95
	s25.55,32.29,25.7,53.91c0.16,22.51-5.02,33.49-28.47,44.37
                          ;
                          M194.29,80.4c0,0,11.91,7.44,19.72,8.56c7.81,4.12,29.95,3.33,39.07,22.7s3.35,44.65,13.58,53.95
	s25.55,32.29,25.7,53.91c0.168,22.51-5.03,34.49-28.48,46.38
                          " />
</path>
<path class="st0" d="M125.46,133.8c0,0,1.86,9.49-2.23,13.02c-3.91,3.38-5.95,5.4-15.07,0.93c0,0-2.79-1.12-4.09,0.37
	c-1.3,1.49-2.6,5.21-0.74,9.12c1.86,3.91,2.42,9.67,2.42,9.67">
  <animate attributeName="d" keySplines="0.42 0 0.58 1; 0.42 0 0.58 1; 0.42 0 0.58 1" begin="0.12s" dur="1.44s" repeatCount="indefinite" values="
                          M125.46,133.8c0,0,1.86,9.49-2.23,13.02c-3.91,3.38-5.95,5.4-15.07,0.1c0,0-2.79-1.12-4.09,0.37
  c-1.3,1.49-2.6,5.21-0.74,9.12c1.86,3.91,2.42,9.67,2.42,9.67
                          ;
                          M125.46,133.8c0,0,1.86,9.49-2.23,13.02c-3.91,3.38-5.95,5.4-15.07,0.93c0,0-2.79-1.12-4.09,0.37
  c-1.3,1.49-2.6,5.21-0.74,9.12c1.86,3.91,2.42,9.67,2.42,9.67
                          ;
                          M125.46,133.8c0,0,1.86,9.49-2.23,13.02c-3.91,3.38-5.95,5.4-15.07,0.1c0,0-2.79-1.12-4.09,0.37
  c-1.3,1.49-2.6,5.21-0.74,9.12c1.86,3.91,2.42,9.67,2.42,9.67
                          " />
</path>
<path class="st0" d="M155.6,99.56c0,0-18.79-5.02-39.26,24.74"/>
<path class="st0" d="M104.25,122.26c0,0,1.3-8,1.3-16.37s2.6-23.26,18.6-27.16c16-3.91,35.35,1.12,35.35,1.12">
	<animate attributeName="d" keySplines="0.42 0 0.58 1; 0.42 0 0.58 1; 0.42 0 0.58 1" begin="0.12s" dur="1.44s" repeatCount="indefinite" values="
                          M104.25,122.26c0,0,2.3-8,1.3-16.37s2.6-23.28,18.6-27.16c16-3.91,35.35,1.12,36.37,1.12
                          ;
                          M104.25,122.26c0,0,1.3-8,1.3-16.37s2.6-23.26,18.6-27.16c16-3.91,35.35,1.12,35.35,1.12
                          ;
                          M104.25,122.26c0,0,2.3-8,1.3-16.37s2.6-23.28,18.6-27.16c16-3.91,35.35,1.12,36.37,1.12
                          " />
</path>
<path class="st0" d="M147.78,131.93c0,0,17.12-6.33,19.16,12.47"/>
<path class="st1" d="M155.86,148.37c-1.08,2.89-3.87,4.51-6.23,3.62s-3.39-3.94-2.3-6.83c0.54-1.44,1.51-2.57,2.64-3.22
	c1.13-0.66,2.41-0.84,3.59-0.4c1.12,0.42,1.94,1.33,2.37,2.47C156.41,145.29,156.43,146.85,155.86,148.37z">
	<animate attributeName="d" keySplines="0.42 0 0.58 1; 0.42 0 0.58 1; 0.42 0 0.58 1" begin="0.12s" dur="1.44s" repeatCount="indefinite" values="
                          M155.86,148.37c-1.08,2.89-3.87,4.51-6.23,3.62s-3.39-3.94-2.3-6.83c0.54-1.44,1.3-1.97,1.35-1.22
		c-0.28,0.79-2.44,3.65,1.56,6.02c3.7,1.67,4.91-2.02,5.37-2.49C156.12,147.38,156.22,147.52,155.86,148.37z
                          ;
                          M155.86,148.37c-1.08,2.89-3.87,4.51-6.23,3.62s-3.39-3.94-2.3-6.83c0.54-1.44,1.51-2.57,2.64-3.22
	c1.13-0.66,2.41-0.84,3.59-0.4c1.12,0.42,1.94,1.33,2.37,2.47C156.41,145.29,156.43,146.85,155.86,148.37z
                          ;
                          M155.86,148.37c-1.08,2.89-3.87,4.51-6.23,3.62s-3.39-3.94-2.3-6.83c0.54-1.44,1.51-2.57,2.64-3.22
	c1.13-0.66,2.41-0.84,3.59-0.4c1.12,0.42,1.94,1.33,2.37,2.47C156.41,145.29,156.43,146.85,155.86,148.37z
                          ;
                          M155.86,148.37c-1.08,2.89-3.87,4.51-6.23,3.62s-3.39-3.94-2.3-6.83c0.54-1.44,1.51-2.57,2.64-3.22
	c1.13-0.66,2.41-0.84,3.59-0.4c1.12,0.42,1.94,1.33,2.37,2.47C156.41,145.29,156.43,146.85,155.86,148.37z
                          ;
                          M155.86,148.37c-1.08,2.89-3.87,4.51-6.23,3.62s-3.39-3.94-2.3-6.83c0.54-1.44,1.51-2.57,2.64-3.22
	c1.13-0.66,2.41-0.84,3.59-0.4c1.12,0.42,1.94,1.33,2.37,2.47C156.41,145.29,156.43,146.85,155.86,148.37z
                          ;
                          M155.86,148.37c-1.08,2.89-3.87,4.51-6.23,3.62s-3.39-3.94-2.3-6.83c0.54-1.44,1.51-2.57,2.64-3.22
	c1.13-0.66,2.41-0.84,3.59-0.4c1.12,0.42,1.94,1.33,2.37,2.47C156.41,145.29,156.43,146.85,155.86,148.37z
                          ;
                          M155.86,148.37c-1.08,2.89-3.87,4.51-6.23,3.62s-3.39-3.94-2.3-6.83c0.54-1.44,1.51-2.57,2.64-3.22
	c1.13-0.66,2.41-0.84,3.59-0.4c1.12,0.42,1.94,1.33,2.37,2.47C156.41,145.29,156.43,146.85,155.86,148.37z
                          ;
                          M155.86,148.37c-1.08,2.89-3.87,4.51-6.23,3.62s-3.39-3.94-2.3-6.83c0.54-1.44,1.51-2.57,2.64-3.22
	c1.13-0.66,2.41-0.84,3.59-0.4c1.12,0.42,1.94,1.33,2.37,2.47C156.41,145.29,156.43,146.85,155.86,148.37z
                          ;
                          M155.86,148.37c-1.08,2.89-3.87,4.51-6.23,3.62s-3.39-3.94-2.3-6.83c0.54-1.44,1.3-1.97,1.35-1.22
		c-0.28,0.79-2.44,3.65,1.56,6.02c3.7,1.67,4.91-2.02,5.37-2.49C156.12,147.38,156.22,147.52,155.86,148.37z
                          " />
</path>
<path class="st0" d="M112.5,174.17l3.63,1.3c2.49,0.94,4.65,1.3,8.29,1.95l7.34,0.66"/>
</svg>
