<?xml version="1.0" encoding="utf-8"?>
<!-- Generator: Adobe Illustrator 22.0.1, SVG Export Plug-In . SVG Version: 6.00 Build 0)  -->
<svg version="1.1" id="Instagram" xmlns="http://www.w3.org/2000/svg" xmlns:xlink="http://www.w3.org/1999/xlink" x="0px" y="0px"
	 viewBox="0 0 128 128" style="enable-background:new 0 0 128 128;" xml:space="preserve">
<style type="text/css">
	.st0{fill:#262626;}
</style>
<path class="st0" d="M64,0C28.7,0,0,28.7,0,64c0,35.3,28.7,64,64,64s64-28.7,64-64C128,28.7,99.3,0,64,0z M43.4,78
	c3.5,6,8.2,9.9,14,11.7c4.9,1.5,9.8,1.3,14.8-0.8c5-2.1,8.4-5.4,10.3-9.9L70,75l3-9.4L96.3,73l-0.7,2.2c-1.6,5-3.5,9.2-5.9,12.6
	c-2.3,3.2-5.2,5.9-8.9,8.1c-8.3,5-17.2,6-26.7,3C44.9,96,38,90.1,33.5,81.4c-4.5-8.8-5.2-17.9-2.3-27.3c3-9.6,8.9-16.7,17.8-21.2
	c8.8-4.6,18-5.4,27.7-2.3c5.2,1.6,9.7,4.2,13.5,7.7c3.6,3.5,6.7,8.2,9.4,14.3l-9.3,4.6c-3.1-8.9-8.6-14.6-16.4-17.1
	c-7-2.2-13.6-1.6-19.9,1.7c-6.2,3.2-10.5,8.4-12.7,15.6C38.9,64.6,39.7,71.5,43.4,78z"/>
</svg>
